<?xml version="1.0" standalone="no"?>
<!DOCTYPE svg PUBLIC "-//W3C//DTD SVG 1.1//EN" "http://www.w3.org/Graphics/SVG/1.1/DTD/svg11.dtd" >
<svg xmlns="http://www.w3.org/2000/svg">
<metadata></metadata>
<defs>
<font id="AmericanaRegular" horiz-adv-x="1327" >
<font-face units-per-em="2048" ascent="1638" descent="-410" />
<missing-glyph horiz-adv-x="663" />
<glyph horiz-adv-x="0" />
<glyph horiz-adv-x="2048" />
<glyph unicode=" "  horiz-adv-x="663" />
<glyph unicode="&#x09;" horiz-adv-x="663" />
<glyph unicode="&#xa0;" horiz-adv-x="663" />
<glyph unicode="!" horiz-adv-x="569" d="M162 92q0 49 37 86t86 37t86 -37t37 -86t-37 -86t-86 -37t-86 37t-37 86zM170 1067q0 285 115 285q114 0 114 -285q0 -160 -29 -292q-63 -280 -63 -470h-45q0 185 -57 449q-35 158 -35 313z" />
<glyph unicode="&#x22;" horiz-adv-x="681" d="M123 1186q-18 166 70 166q51 0 65 -64q9 -39 2 -102l-35 -418q-2 -12 -6 -37.5t-27.5 -25.5t-27.5 25.5t-6 37.5zM418 1186q-18 166 67 166q88 0 70 -166l-35 -418q-2 -12 -6 -37.5t-28 -25.5t-27.5 25.5t-5.5 37.5z" />
<glyph unicode="#" d="M195 403l12 91h223l39 272h-221l12 90h221l56 404h116l-57 -404h229l56 404h116l-57 -404h190l-12 -90h-190l-39 -272h188l-12 -91h-188l-56 -403h-116l57 403h-227l-58 -403h-117l58 403h-223zM547 494h227l39 272h-229z" />
<glyph unicode="$" d="M156 154l61 186q16 49 25 49q4 0 13 -43t42 -90t85 -85q119 -87 261 -87q124 0 215 66q103 74 103 190q0 143 -201 186q-58 13 -130.5 22t-148 31.5t-131.5 60.5q-123 82 -123 234q0 159 141 263q126 92 289 92v188h74v-188q193 0 381 -84l-45 -160q-6 -20 -12 -36.5 t-19 -16.5q-12 0 -20 38.5t-43 82t-81 73.5q-94 60 -202 60q-98 0 -173 -64q-79 -66 -79 -168q0 -104 101 -164q76 -44 251 -67t278 -98.5t103 -202.5q0 -162 -143 -276q-132 -105 -297 -105v-193h-74v193q-243 0 -501 113z" />
<glyph unicode="%" horiz-adv-x="1366" d="M33 930q0 64 19.5 128t55.5 116q83 116 218 116q131 0 215 -116q73 -102 73 -246q0 -145 -73 -246q-85 -117 -215 -117q-134 0 -218 117q-75 105 -75 248zM180 928q0 -150 28 -236t116 -86q118 0 137 188q6 60 6 134q0 162 -21.5 219t-49 79.5t-72.5 22.5 q-88 0 -116 -85.5t-28 -235.5zM244 -31l774 1321h106l-774 -1321h-106zM750 334q0 64 19 128t56 116q84 116 217 116t216 -116q73 -104 73 -246q0 -143 -73 -246q-84 -117 -216 -117t-217 117q-75 103 -75 248zM897 332q0 -150 27.5 -236t115.5 -86q85 0 116 86 q28 77 28 236q0 158 -21.5 217t-49.5 81.5t-73 22.5q-88 0 -115.5 -85.5t-27.5 -235.5z" />
<glyph unicode="&#x26;" horiz-adv-x="1478" d="M115 266q0 133 85 230q76 87 222 141q27 10 29 14q-117 117 -117 295q0 129 96 221q97 93 236 93q296 0 311 -236q0 -122 -107 -216q-93 -83 -221 -116q114 -138 323 -322q60 -53 97 -75q20 33 31.5 60.5t11.5 100t-44 113.5t-130 64q-12 4 -12 12t94 8h278 q-8 -149 -32 -211q-39 -104 -123 -206q27 -23 61.5 -53.5t74.5 -60.5q94 -71 153 -86t59 -26q0 -10 -6 -10h-344l-135 96q-211 -137 -465 -137q-167 0 -289 74q-137 82 -137 233zM344 393q0 -88 27.5 -156.5t76.5 -111.5q97 -84 261 -84q154 0 252 96q-107 63 -427 409 q-38 41 -61 68q-59 -45 -94 -89t-35 -132zM461 1036q0 -147 162 -309q84 47 114.5 89t44 79t14.5 84t-8.5 88t-31.5 73q-46 68 -131 68t-124.5 -43t-39.5 -129z" />
<glyph unicode="'" horiz-adv-x="454" d="M156 1186q-18 166 67 166q88 0 70 -166l-35 -418q-2 -12 -6 -37.5t-28 -25.5t-27.5 25.5t-6.5 37.5z" />
<glyph unicode="(" horiz-adv-x="569" d="M78 502q0 316 218 658q64 100 132 192h49q-169 -246 -199 -627q-20 -262 -8.5 -409.5t36.5 -259.5q52 -238 186 -441h-56q-175 225 -256 415q-102 237 -102 472z" />
<glyph unicode=")" horiz-adv-x="569" d="M78 -385q192 291 219 665q13 182 -0.5 369t-36.5 295q-48 232 -168 408h49q164 -222 228 -364q123 -276 123 -486q0 -436 -359 -887h-55z" />
<glyph unicode="*" horiz-adv-x="909" d="M57 936l62 209q135 -111 193.5 -135.5t101.5 -30.5q4 154 -74 332h235q-92 -141 -81 -332q75 10 135 48q80 51 159 118l62 -209q-179 21 -340 -35q116 -156 266 -196l-184 -154q-35 170 -139 305q-104 -135 -140 -305l-184 154q150 42 266 196q-158 56 -338 35z" />
<glyph unicode="+" horiz-adv-x="1228" d="M82 471v123h471v471h123v-471h471v-123h-471v-471h-123v471h-471z" />
<glyph unicode="," horiz-adv-x="663" d="M209 83q0 56 32.5 94t93.5 38t90.5 -46t29.5 -128t-55.5 -175t-127.5 -161l-28 21q101 97 110 243q-59 -4 -102 27t-43 87z" />
<glyph unicode="-" horiz-adv-x="530" d="M4 451l39 163h483l-37 -163h-485z" />
<glyph unicode="." horiz-adv-x="663" d="M209 92q0 49 37 86t86 37t86 -37t37 -86t-37 -86t-86 -37t-86 37t-37 86z" />
<glyph unicode="/" horiz-adv-x="569" d="M-45 -41l534 1393h125l-534 -1393h-125z" />
<glyph unicode="0" d="M37 630q0 132 47 251.5t130 210.5q179 198 450 198q270 0 449 -198q177 -195 177 -463q0 -131 -47 -251t-130 -211q-181 -198 -449 -198q-137 0 -252 53.5t-198 144.5t-130 211t-47 252zM293 631q0 -270 58 -410q88 -213 313 -213q224 0 312 213q58 140 58 408 q0 269 -58 409q-88 213 -312 213q-225 0 -313 -213q-58 -140 -58 -407z" />
<glyph unicode="1" d="M379 0q0 8 44 15t70.5 34t40.5 63q21 50 21 158v748q0 84 -28.5 116.5t-106.5 45.5q-16 4 -17 10q0 8 13 10q193 43 356 90v-1020q0 -108 17.5 -151t44 -69.5t70.5 -34t44 -15.5t-23.5 -8t-37 1t-39.5 3q-50 4 -151 4t-146 -1t-71 -3q-54 -4 -77.5 -4t-23.5 8z" />
<glyph unicode="2" d="M100 0q0 251 480 508q305 165 305 410q0 150 -85 234.5t-223.5 84.5t-231.5 -69.5t-128 -184.5q-8 -27 -11 -33t-10 -6t-11.5 14.5t-8.5 26.5l-53 201q240 104 434 104q381 0 529 -206q55 -78 55 -193t-51.5 -186.5t-130 -118.5t-171 -77t-177.5 -59.5t-145 -64.5 t-98 -72q-71 -69 -71 -137h553q212 0 299 135q12 16 20 17q20 0 10 -26t-14 -40l-90 -262h-975z" />
<glyph unicode="3" d="M49 96l62 180q14 39 19 52.5t14 13.5t15.5 -43t44.5 -100.5t93 -99.5q119 -91 252 -91q171 0 281 76q124 85 124 252q0 160 -122 242q-111 75 -275 75q-72 0 -131 -20v86q41 -14 119 -14q348 0 348 276q0 131 -92 204q-83 66 -215 66q-114 0 -219 -72.5t-129 -172.5 q-10 -35 -13.5 -49.5t-10.5 -14.5t-21 59l-48 177q216 112 447 112q223 0 358 -53q199 -78 199 -264q0 -153 -171 -227q-124 -53 -304 -64v-4q198 0 348 -75q80 -40 134 -106.5t54 -172t-62.5 -176t-154.5 -110.5q-159 -69 -385 -69q-328 0 -559 127z" />
<glyph unicode="4" d="M25 315q8 55 28.5 87t46.5 61l709 756q6 6 16.5 18t21.5 23q28 30 44 30h4q18 0 18 -57v-819q106 4 192.5 37.5t147.5 123.5q8 14 17 15q10 0 10 -15.5t-4 -25.5t-8 -23l-76 -225q-92 14 -279 14v-45q0 -105 17.5 -149.5t44 -71t71 -34t44.5 -15.5t-39 -8l-246 8 q-132 0 -186 -4t-71.5 -4t-17.5 8t39 15t66 34t41 63q20 50 20 158v45h-671zM154 414h542v620z" />
<glyph unicode="5" d="M51 102l66 199q6 16 10 29.5t11 13.5t9 -14q31 -145 167 -236q128 -86 278 -86q163 0 270 85q115 91 115 253q0 167 -118 263q-107 87 -295 87t-402 -92l51 656h805q41 0 64.5 5t52.5 29q6 10 14 11q6 0 6 -9.5t-8 -25.5l-62 -187h-716q-76 0 -103.5 -42t-34.5 -134 l-16 -233q230 74 403 74q212 0 378 -65q140 -55 204 -169q33 -59 33 -161.5t-62.5 -181.5t-157.5 -123q-171 -79 -415 -79q-213 0 -423 76q-69 25 -124 57z" />
<glyph unicode="6" d="M78 599q0 99 36 220t114.5 225.5t202.5 175t302 70.5q151 0 245 -30q111 -35 241 -97l-66 -194q-10 -31 -20.5 -31t-15.5 13.5t-11 33.5q-80 266 -367 266q-239 0 -344 -237q-76 -172 -71 -430h4q132 245 385 245q233 0 385 -106q166 -116 166 -324q0 -181 -148 -301 q-158 -129 -403 -129q-184 0 -306 61.5t-195 155t-103.5 204t-30.5 209.5zM352 393q0 -271 180 -356q62 -29 148 -29q166 0 251 109q77 98 77 276q0 275 -180 357q-62 28 -148 28q-165 0 -249 -108q-79 -102 -79 -277z" />
<glyph unicode="7" d="M111 957q0 5 4 14.5t8 21.5l94 267h1067q0 -99 -161 -288q-48 -57 -106 -115t-113.5 -132t-97.5 -165t-66.5 -201.5t-24.5 -191t6 -167.5h-303q0 339 278 612q78 76 135.5 133.5t95.5 92t73 73.5q84 92 108 172h-619q-195 0 -231.5 -13t-59 -37.5t-67.5 -69.5 q-6 -10 -13 -10.5t-7 4.5z" />
<glyph unicode="8" d="M72 311.5q0 69.5 30.5 121.5t77.5 87t100.5 55.5t100.5 31.5q108 25 108 16q-61 23 -119.5 48t-104.5 63q-103 85 -103 220q0 92 49 157t124 105q141 74 324 74q321 0 454 -148q52 -57 52 -137t-35.5 -129t-89.5 -82q-96 -58 -239 -73v-2q72 -20 151.5 -44t147.5 -63 q155 -90 155 -252q0 -115 -60 -190.5t-151 -119.5q-169 -81 -393 -81q-203 0 -365 69q-131 55 -186 152q-28 52 -28 121.5zM289 319q0 -153 125 -238q106 -73 272 -73q136 0 238 69q114 76 114 208q0 175 -228 245q-60 19 -116 37l-100 33q-25 0 -76 -19.5t-102 -55.5 q-127 -90 -127 -206zM379 1032q0 -106 91 -179q79 -63 189 -81l68 -10q85 -12 153 72q68 83 68 162t-27.5 124t-70.5 75q-80 56 -205 56q-102 0 -180 -56q-86 -62 -86 -163z" />
<glyph unicode="9" d="M61 831q0 96 44.5 180.5t120.5 146.5q162 132 366 132t326 -61.5t195 -154.5t103.5 -203.5t30.5 -209.5t-31.5 -220.5t-106.5 -225.5t-201 -175t-302 -71q-279 0 -504 123l64 201q15 51 21 51q8 0 14 -50t40.5 -102.5t88.5 -93.5q117 -90 256 -90q167 0 269 113 q153 170 140 493h-4q-68 -156 -249 -216q-66 -23 -158 -23t-188.5 33.5t-169.5 93.5q-165 136 -165 329zM317 836.5q0 -186.5 84 -298.5t234 -112t244 120.5t94 305t-89 292t-246 107.5t-239 -114t-82 -300.5z" />
<glyph unicode=":" horiz-adv-x="663" d="M209 92q0 49 37 86t86 37t86 -37t37 -86t-37 -86t-86 -37t-86 37t-37 86zM209 840q0 49 37 86t86 37t86 -37t37 -86t-37 -86t-86 -37t-86 37t-37 86z" />
<glyph unicode=";" horiz-adv-x="663" d="M209 83q0 56 32.5 94t93.5 38t90.5 -46t29.5 -128t-55.5 -175t-127.5 -161l-28 21q101 97 110 243q-59 -4 -102 27t-43 87zM209 840q0 49 37 86t86 37t86 -37t37 -86t-37 -86t-86 -37t-86 37t-37 86z" />
<glyph unicode="&#x3c;" horiz-adv-x="1228" d="M94 473v119l1041 475v-127l-893 -408l893 -407v-127z" />
<glyph unicode="=" horiz-adv-x="1228" d="M82 270v123h1065v-123h-1065zM82 672v123h1065v-123h-1065z" />
<glyph unicode="&#x3e;" horiz-adv-x="1228" d="M94 -2v127l893 407l-893 408v127l1041 -475v-119z" />
<glyph unicode="?" horiz-adv-x="1024" d="M20 1247q130 73 318 97q57 8 139 8t177.5 -31t163.5 -82q147 -109 147 -242q0 -173 -150 -289q-43 -34 -88 -67t-88 -65.5t-77 -71.5q-75 -87 -79 -199h-45q-10 139 86 271q29 40 60 79.5t57.5 82t46.5 88.5q47 104 47 184q0 139 -83 221t-222 82q-109 0 -205 -89 q-86 -80 -123 -192q-4 -16 -11 -16t-15 31zM338 92q0 49 37 86t86 37t86 -37t37 -86t-37 -86t-86 -37t-86 37t-37 86z" />
<glyph unicode="@" horiz-adv-x="1638" d="M119 632.5q0 156.5 59.5 289.5t160.5 229t234.5 148.5t277.5 52.5t266 -45t211 -125q192 -173 192 -424q0 -175 -98 -318q-111 -164 -277 -164q-89 0 -143 62q-37 42 -37 80h-4q-45 -68 -152 -117q-63 -29 -115.5 -19.5t-83.5 34.5q-78 63 -78 212q0 53 25 136.5t74 161 t123.5 133t177.5 55.5q84 0 122 -68q11 -18 21 -37l19 78h141l-131 -514q-24 -73 22 -113q17 -16 64 -16t96 40t83 100q71 127 71 272q0 86 -39 180t-114 173q-170 179 -431 179q-241 0 -399 -174q-168 -185 -168 -510q0 -224 161 -390q76 -79 184.5 -127t208 -48t154 7 t102.5 20q55 16 177 67l24 -59q-98 -45 -201.5 -80t-228 -35t-232.5 30.5t-192 82t-145 119t-102 141.5q-80 144 -80 300.5zM680 537q0 -92 37 -131t79 -39t79.5 27.5t71.5 80.5q76 118 95 322q0 129 -86 129q-37 0 -85 -27t-90 -77q-101 -120 -101 -285z" />
<glyph unicode="A" horiz-adv-x="1593" d="M-2 4q0 10 14.5 17.5t35 24t55 57t67.5 87.5q63 89 104 170l502 975q10 16 15 17h4q8 0 16 -17l602 -1126q86 -150 169 -189q15 -8 15 -17t-28 -9l-230 6l-247 -6q-20 0 -21 6q0 10 31 19q53 15 53 104q0 44 -92 233l-117 242h-487l-111 -215q-72 -132 -72 -233 q0 -83 70 -114q21 -9 42.5 -16.5t21.5 -16.5t-25 -9l-201 6l-159 -6q-27 0 -27 10zM485 649h435l-220 426z" />
<glyph unicode="B" horiz-adv-x="1554" d="M16 5q0 9 10 11q87 17 122.5 69t35.5 148v848q0 95 -10 125q-18 55 -72 74q-14 6 -23 9t-9 12.5t45 9.5h704q192 0 341 -57q83 -31 139.5 -88.5t56.5 -147.5q0 -264 -441 -303v-4q211 -5 365 -80q84 -41 141.5 -110.5t57.5 -166t-44 -159t-111 -102.5q-115 -69 -298 -89 q-88 -12 -219 -12l-369 8h-270l-96 -4q-56 0 -56 9zM422 299q0 -158 19.5 -192.5t48 -45t77.5 -10.5h287q160 0 255 75t95 245q0 166 -156 247q-123 64 -276 64h-350v-383zM422 733h254q217 0 319.5 75t102.5 194t-87 188.5t-253 69.5h-336v-527z" />
<glyph unicode="C" horiz-adv-x="1554" d="M86 646q0 167 64.5 296t172 220t248 140.5t289.5 49.5q231 0 452 -86q72 -29 136 -70l-64 -192q-23 -70 -28 -70q-10 0 -24.5 60.5t-47.5 116.5t-89 97q-121 88 -335 92q-139 0 -235.5 -58t-154.5 -150q-110 -176 -110 -437q0 -262 128 -436q153 -209 456 -209t440 316 q8 18 11.5 30.5t10.5 12.5t10 -7.5t9 -29.5l54 -187q-231 -186 -619 -186q-322 0 -538 172q-107 86 -171.5 217t-64.5 298z" />
<glyph unicode="D" horiz-adv-x="1630" d="M27 5q0 7 44.5 20.5t78.5 69t34 169.5v817q0 96 -18.5 135t-61.5 62q-34 15 -34 24t28 9h680q335 0 544 -178q218 -186 218 -474q0 -109 -44 -225.5t-133 -212.5t-222 -158.5t-314 -62.5h-753q-47 0 -47 5zM422 213q0 -84 50 -123t206 -39t271.5 44t186.5 127 q130 154 130 466q0 571 -537 572h-307v-1047z" />
<glyph unicode="E" horiz-adv-x="1478" d="M27 8q0 4 23.5 12.5t43 25t36.5 40t28 56.5q16 53 16 200v696q0 100 -14.5 163t-75.5 79l-22 9q-13 5 -13 9q0 13 39 13h1157l55 -193q4 -16 11.5 -36.5t7.5 -38t-12 -17.5t-34 35.5t-76 76t-121 68.5q-131 54 -288 54h-376v-543h379q108 0 199 45q88 43 110 108 q6 18 16 19q8 0 8 -31v-338q0 -43 -7 -43t-10 9q-50 158 -269 176q-56 4 -109 4h-317v-433q0 -109 42 -147q40 -35 148 -35h232q125 0 282 65q151 62 252 158q48 43 54.5 43t7.5 -6q0 -4 -1.5 -7t-3.5 -9l-90 -295h-1247q-61 0 -61 8z" />
<glyph unicode="F" horiz-adv-x="1366" d="M45 -1q0 7 31 21t52.5 35t34.5 49q23 51 23 168v809q0 90 -12 139q-13 56 -78 73q-12 3 -12 10.5t35 7.5h1134l56 -193q2 -8 6 -19.5t8 -23.5q10 -30 10 -38.5t-5 -8.5q-9 0 -28 25q-90 100 -224 153.5t-279 53.5h-373v-543h379q111 0 199 45q87 44 104 108q6 18 14 19 q10 0 10 -27v-348q0 -20 -7 -20t-12 13q-47 122 -261 151q-55 8 -109 8h-317v-295q0 -141 22.5 -237.5t83.5 -115.5q18 -6 30.5 -10t12.5 -9t-12 -5l-256 6l-242 -6q-18 0 -18 5z" />
<glyph unicode="G" horiz-adv-x="1669" d="M82 646q0 167 64.5 296t172 220t248 140.5t317.5 49.5q363 0 615 -172l-72 -179q-4 -10 -12 -30.5t-12 -20.5t-7 14q-22 100 -70 160t-114 99q-129 77 -287.5 77t-263 -58t-171.5 -154q-134 -188 -134 -465q0 -249 140 -429q67 -85 159.5 -134.5t198.5 -49.5t179 19.5 t117 57.5q83 72 83 237v151q0 88 -47 124q-38 28 -111 43t-74 24q0 8 29 8l285 -8l250 8q41 0 41 -15q0 -7 -37 -16.5t-56.5 -24t-28.5 -32.5q-14 -29 -14 -107v-338q-205 -182 -614 -182q-310 0 -530 172q-109 86 -176.5 217t-67.5 298z" />
<glyph unicode="H" horiz-adv-x="1630" d="M57 1q0 7 19 15q70 35 90 82t20 123v909q0 146 -88 168q-20 8 -20 14.5t31 6.5l196 -8l197 8q57 0 10 -21q-88 -22 -88 -168v-413h780v413q0 146 -88 168q-20 8 -20 14.5t30 6.5l197 -8l197 8q57 0 10 -21q-88 -22 -88 -168v-909q0 -76 20.5 -123t89.5 -82q18 -8 19 -16 q0 -6 -33 -6l-215 6l-215 -6q-33 0 -33 7t19 15q70 35 90 82t20 123v445h-780v-445q0 -76 20.5 -123t90.5 -82q18 -8 18 -15t-33 -7l-215 6l-215 -6q-33 0 -33 7z" />
<glyph unicode="I" horiz-adv-x="606" d="M55 4q0 2 33 16q59 31 77.5 78t18.5 123v909q-4 140 -80 160q-22 7 -22 13q0 16 24 16l197 -8l176 8q29 0 29 -16q0 -6 -11.5 -11.5t-25.5 -14.5q-49 -31 -49 -110v-946q0 -156 100 -201q29 -14 29 -17t-23 -3h-456q-16 0 -17 4z" />
<glyph unicode="J" horiz-adv-x="948" d="M8 6l66 191q10 34 20 34t12.5 -9t7.5 -34.5t21.5 -59.5t42.5 -60q58 -58 129 -58q215 0 215 340v719q0 102 -16.5 155.5t-71.5 65.5q-28 6 -28 15q0 14 38 14l197 -8l188 8q23 0 23 -14q0 -5 -22.5 -15t-34 -18t-19.5 -26q-16 -34 -16 -116v-704q0 -186 -128 -318 q-145 -149 -384 -149q-127 0 -240 47z" />
<glyph unicode="K" horiz-adv-x="1441" d="M92 1q0 7 19 15q70 35 90 82t20 123v909q0 143 -63 166q-20 6 -21 13q0 10 29 10l170 -8l178 8q27 0 27 -6t-7.5 -7t-13.5 -6q-35 -16 -48 -54t-13 -116v-436l446 377q77 66 107 110t30 63q0 36 -30 48q-29 12 -29 19.5t18 7.5l201 -8q96 0 137 4t52.5 4t11.5 -6 t-53.5 -26t-156.5 -86t-216 -157l-399 -319l4 -4q19 1 37 1q121 0 197 -30q88 -34 142 -71t85.5 -93.5t77.5 -126t97 -139.5q143 -192 228 -238q18 -10 18 -20t-26 -10l-150 6l-151 -6q-49 0 -64 18q-68 104 -128 209t-127 214.5t-124 170t-123 60.5q-99 0 -109 -92 q-3 -27 -3 -58v-295q0 -76 20.5 -123t89.5 -82q18 -8 19 -16q0 -6 -33 -6l-215 6l-215 -6q-33 0 -33 7z" />
<glyph unicode="L" horiz-adv-x="1402" d="M43 10q0 2 49 19q59 27 80 91t21 202v808q0 63 -24 106.5t-65 57.5q-20 8 -20 17q0 8 31 8l196 -8l197 8q25 0 24 -10q0 -4 -6 -7q-58 -24 -77 -66t-19 -106v-858q0 -144 62 -188q47 -33 190 -33h109q133 0 287 63q192 80 276 210q10 14 20 14t10 -10t-3 -17.5t-5 -15.5 l-84 -295h-1204q-45 0 -45 10z" />
<glyph unicode="M" horiz-adv-x="1781" d="M14 5q0 5 10 9q128 54 162 284q9 56 9 105v676q0 125 -49 183q-19 24 -38 28q-24 5 -24 21q0 8 14 8h338l486 -1012l452 1012h322q28 0 28 -10t-28 -19q-51 -10 -68.5 -60t-17.5 -122v-778q0 -124 15 -180q29 -110 112 -130q32 -11 32 -16q0 -10 -32 -10l-242 6l-233 -6 q-25 0 -25 10q0 4 36 14t58.5 43t32.5 78q16 72 16 191v850h-4l-512 -1114q-2 -4 -7 -17.5t-13 -28.5q-20 -36 -31 -36h-4q-22 0 -44 61q-5 14 -9 23l-506 1112h-4v-777q0 -313 135 -370q43 -27 43 -30t-27 -3h-354q-29 0 -29 5z" />
<glyph unicode="N" horiz-adv-x="1554" d="M14 4q0 8 15 8q161 79 161 353v573q0 181 -19 238t-37.5 74.5t-48.5 30.5t-30 21t31 9h340l901 -920v490q0 169 -22.5 238t-53 110t-65.5 55t-35 25q0 10 27 10h335q20 0 21 -8q0 -8 -36 -26.5t-59.5 -53.5t-36.5 -81q-24 -85 -24 -204v-960q0 -31 -10 -31h-4 q-10 0 -20.5 12.5t-22.5 24.5l-1079 1177v-804q0 -130 22 -189q44 -114 133 -156q10 -4 17.5 -6t7.5 -6q0 -8 -45 -8h-344q-18 0 -19 4z" />
<glyph unicode="O" horiz-adv-x="1705" d="M78 655q0 158 64.5 287t172 220t247.5 140.5t291 49.5t290 -49.5t246.5 -140.5t172 -220t64.5 -287t-64.5 -286.5t-171.5 -220.5q-223 -189 -538 -189q-150 0 -290 49t-247.5 140.5t-172 220.5t-64.5 286zM352 655q0 -264 110 -436q58 -92 154.5 -150.5t235.5 -58.5 t235.5 58.5t154.5 150.5q110 174 110 436q0 261 -110 437q-58 92 -154.5 150t-235.5 58t-235.5 -58t-154.5 -150q-110 -174 -110 -437z" />
<glyph unicode="P" horiz-adv-x="1402" d="M43 0q0 6 10 9t33 13t44.5 32t33.5 52q20 51 20 183v792q0 91 -9 119q-22 71 -91 94q-6 2 -6 9t20 8h672q374 0 544 -173q66 -67 66 -154t-34.5 -140t-91 -93t-131 -66t-153.5 -42t-158 -23.5t-185 -7.5t-205 11v-402q0 -76 22 -123q27 -61 128 -86q18 -4 18 -8 q0 -10 -17 -10l-270 6l-246 -6q-14 0 -14 6zM422 682q58 -18 207 -18q231 0 354 85t123 230q0 146 -140 221q-111 60 -282 60h-262v-578z" />
<glyph unicode="Q" horiz-adv-x="1705" d="M78 659.5q0 153.5 64.5 282.5t172 220t247.5 140.5t291 49.5t290 -49.5t246.5 -140.5t172 -220t64.5 -286t-62.5 -282.5t-167.5 -216.5q-220 -192 -522 -196v-4q136 -5 370 -117q226 -108 255 -108q57 0 73.5 6t27 6t10.5 -10t-15.5 -16.5t-40.5 -16.5l-274 -119 l-311 172q-94 51 -170 87t-130 36t-96.5 -30.5t-93.5 -71.5l-6 65q72 41 149.5 79t161.5 42v4q-292 21 -494 206q-97 89 -154.5 212t-57.5 276.5zM352 655q0 -264 110 -436q58 -92 154.5 -150.5t235.5 -58.5t235.5 58.5t154.5 150.5q110 174 110 436q0 261 -110 437 q-58 92 -154.5 150t-235.5 58t-235.5 -58t-154.5 -150q-110 -174 -110 -437z" />
<glyph unicode="R" horiz-adv-x="1554" d="M55 4q0 2 33 16q59 31 77.5 78t18.5 123v860q0 169 -82 195q-16 6 -29.5 9t-13.5 14.5t39 11.5h766q411 0 508 -177q31 -57 31 -143.5t-56.5 -149.5t-139.5 -97q-135 -54 -355 -54v-4q383 -39 475 -311q113 -320 186 -344q14 -10 24.5 -15.5t10.5 -10.5t-78 -5h-270 l-98 268q-33 92 -61.5 164t-67.5 122q-80 103 -252 108l-299 8v-449q0 -156 100 -201q29 -14 29 -17t-23 -3h-456q-16 0 -17 4zM422 721h371q157 0 250 86q85 79 85 192t-78.5 187t-242.5 74h-385v-539z" />
<glyph unicode="S" horiz-adv-x="1402" d="M39 80l65 244q8 29 11.5 37t12.5 8t13 -27q19 -142 181 -242q145 -90 301 -90q303 0 411 150q43 59 43 148t-38 135t-96 70t-128 33t-142.5 19t-173 28.5t-187.5 57.5q-206 92 -206 283q0 230 201 335q159 83 410 83q286 0 524 -88l-57 -197q-14 -43 -21 -43q-4 0 -10 12 q-62 181 -267 242q-73 22 -150.5 22t-145.5 -9t-124 -35q-130 -59 -130 -199q0 -92 42 -142.5t115.5 -76t174 -36.5t227.5 -28.5t210 -55.5t128 -86q74 -79 74 -209t-62.5 -220t-160.5 -145q-180 -99 -447 -99q-177 0 -275 23q-148 34 -323 98z" />
<glyph unicode="T" horiz-adv-x="1478" d="M14 1033q0 9 6 19q6 12 9 29l65 230h1290l66 -230q4 -16 9 -28.5t5 -21.5t-7 -9t-18.5 12.5t-34 34t-65.5 57t-96 65.5q-122 69 -258 69q-70 0 -98.5 -17.5t-28.5 -77.5v-944q0 -76 25.5 -130t97.5 -68q31 -4 31 -16.5t-17 -12.5l-256 6l-252 -6q-18 0 -18 8t11.5 10 t37 13t48 32t34.5 53q21 57 21 201v854q0 59 -29 77t-101.5 18t-137 -19.5t-117.5 -49.5q-80 -45 -175 -134q-10 -10 -21 -22.5t-18 -12.5q-8 0 -8 11z" />
<glyph unicode="U" horiz-adv-x="1593" d="M84 1312.5q0 6.5 31 6.5l196 -8l197 8q31 0 31 -6t-21 -15q-88 -22 -88 -168v-729q0 -185 124 -291q118 -100 312 -100q256 0 372 122t116 386v428q0 156 -38 233.5t-102 110.5q-26 10 -26 21q0 8 16 8l172 -8l168 8q31 0 31 -6t-27 -24.5t-51 -43t-45 -64.5 q-47 -93 -47 -235v-426q0 -297 -141.5 -429t-438.5 -132q-283 0 -433 81q-199 107 -199 359v731q0 147 -89 168q-20 8 -20 14.5z" />
<glyph unicode="V" horiz-adv-x="1593" d="M18 1307q0 12 25.5 12t42 -1t38.5 -3q42 -4 130 -4l223 8q25 0 25 -7q0 -14 -34 -21t-47 -31.5t-13 -39.5t12 -45t31.5 -67t43 -77t44.5 -77l370 -669l314 643q77 163 77 246q0 75 -71 106q-12 6 -32.5 13t-20.5 16.5t26 9.5l182 -8q68 0 94.5 4t60.5 4t34 -11 q0 -14 -31 -38t-63.5 -62.5t-64.5 -81.5q-57 -77 -107 -174l-467 -927q-29 -66 -47 -66h-5q-17 0 -53 76l-532 1048q-64 137 -107 175q-22 18 -42 27q-36 16 -36 22z" />
<glyph unicode="W" horiz-adv-x="2048" d="M20 1305q0 14 29 14l201 -8l211 8q20 0 20 -12t-20 -19q-68 -16 -68 -76q0 -31 24.5 -96t53.5 -139l248 -631l313 883q41 123 55 123h5q12 0 27.5 -36t31.5 -77l373 -897l229 643q33 97 33 157t-20 94q-24 39 -88 66q-11 5 -11 9q0 8 19 8l161 -8l156 8q33 0 33 -10 q0 -4 -14 -13q-75 -53 -110.5 -119.5t-62.5 -136.5l-379 -985q-4 -10 -9 -26.5t-12 -31.5q-18 -38 -30 -38h-4q-12 0 -23.5 28.5t-25.5 65.5l-365 920l-337 -932q-25 -82 -46 -82h-4q-12 0 -22 23.5t-25 60.5l-426 1137q-35 84 -82 102q-14 6 -26.5 11t-12.5 12z" />
<glyph unicode="X" horiz-adv-x="1478" d="M12 1q0 7 25 19q72 45 134 104.5t122 121.5l328 383l-279 399q-92 143 -183 222q-36 32 -64 43t-27.5 18.5t34.5 7.5l226 -8l217 8q35 0 35 -8t-17 -13q-76 -8 -76 -67q0 -33 70 -121l234 -336l239 307q45 57 45 102.5t-20.5 78t-44.5 37.5t-25 12q0 8 31 8l198 -8l191 8 q31 0 31 -6t-19 -17q-70 -24 -102 -49q-74 -45 -189 -161q-26 -25 -41 -42l-268 -311l338 -440q18 -20 50 -60t72 -83q95 -104 169 -138q18 -8 18 -12q0 -6 -32 -6l-250 6l-262 -6q-25 0 -25 7t19 12q61 16 61 71q0 38 -60 121l-268 385l-170 -232q-127 -169 -127 -224.5 t17.5 -80t47 -35t29.5 -17.5t-22 -7l-191 6l-194 -6q-25 0 -25 7z" />
<glyph unicode="Y" horiz-adv-x="1478" d="M2 1307.5q0 11.5 29 11.5l266 -8q78 0 125 4t67.5 4t20.5 -12q0 -8 -26 -17q-70 -27 -70 -73q0 -41 17.5 -67t43.5 -60l352 -451l283 379q47 61 71.5 113.5t24.5 84.5q0 46 -51 72q-39 17 -39 24t29 7l147 -8l156 8q27 0 27 -12q0 -4 -16.5 -13.5t-37 -24.5t-50.5 -43 t-61 -60q-40 -41 -98 -111l-348 -469v-338q0 -123 12.5 -157t29 -49t35.5 -23.5t27.5 -10.5t8.5 -6q0 -8 -25 -8l-207 6l-206 -6q-25 0 -25 8q0 4 8 6t28 10t36 23.5t26 41.5q15 42 15 165v305l-416 545q-90 115 -156 164q-25 20 -39 27t-14 18.5z" />
<glyph unicode="Z" d="M59 0l785 1108q47 75 47 103q0 49 -105 49h-180q-251 0 -394 -118q-46 -38 -95 -87q-14 -12 -21 -13q-6 0 -6 9.5t5 24t9 26.5l76 209h1065l-729 -1086q-4 -8 -14 -22.5t-20 -30.5q-23 -40 -23 -55q0 -35 36.5 -50.5t130 -15.5t177.5 9.5t163 33.5q170 54 277 176 q30 36 40 36q5 0 5 -9q0 -15 -8 -35l-86 -262h-1135z" />
<glyph unicode="[" horiz-adv-x="530" d="M98 -47v1053q0 166 61 244q77 98 265 102v-41q-78 0 -111.5 -53.5t-33.5 -127.5v-1232q0 -242 151 -242v-41q-172 0 -252 86t-80 252z" />
<glyph unicode="\" horiz-adv-x="569" d="M-150 1352h123l746 -1393h-123z" />
<glyph unicode="]" horiz-adv-x="530" d="M100 -344q152 0 152 242v1232q0 74 -34 127.5t-112 53.5v41q275 -5 314 -210q12 -63 12 -136v-1053q0 -166 -80 -252t-252 -86v41z" />
<glyph unicode="^" horiz-adv-x="1228" d="M186 512l375 748h107l374 -748h-127l-301 604l-301 -604h-127z" />
<glyph unicode="_" horiz-adv-x="1024" d="M0 -152h1024v-94h-1024v94z" />
<glyph unicode="`" horiz-adv-x="569" d="M-37 1470q0 41 26.5 70t61.5 29t60.5 -19.5t44.5 -38.5l290 -311h-104l-334 201q-45 29 -45 69z" />
<glyph unicode="a" horiz-adv-x="1251" d="M70 311q0 203 265 288q169 54 425 54h117v68q0 147 -72 241.5t-220 94.5t-236.5 -50.5t-143.5 -185.5q-6 -14 -9 -24.5t-6.5 -10.5t-11.5 23l-53 184q123 65 209 79q139 24 250.5 24t197.5 -17.5t154 -57.5q151 -89 151 -267v-576q0 -51 13 -93q16 -49 76 -71q6 -2 6 -8 t-27 -6h-221q-43 98 -49 209h-4q-59 -125 -151.5 -182.5t-227.5 -57.5q-178 0 -296 80q-136 92 -136 262zM307 302.5q0 -78.5 19.5 -127t53.5 -82.5q73 -73 172 -73t159.5 43t97.5 109q68 121 68 299v143h-121q-308 0 -410 -168q-39 -65 -39 -143.5z" />
<glyph unicode="b" horiz-adv-x="1366" d="M0 9q0 9 12 16q63 23 88 71.5t25 120.5v1020q0 131 -70 152q-30 6 -30 15t10 11t51 10q123 24 250 60v-651h4q59 133 155.5 197.5t266.5 64.5q193 0 354 -148q78 -71 127 -176.5t49 -227t-41 -222.5t-113 -180q-156 -173 -376 -173q-166 0 -267.5 60.5t-166.5 160.5 q-26 -122 -70 -190h-238q-20 0 -20 9zM340 532q0 -286 128 -418q92 -94 230 -94q228 0 320 250q37 101 37 262q0 288 -129 418q-91 94 -228 94q-229 0 -321 -250q-37 -100 -37 -262z" />
<glyph unicode="c" horiz-adv-x="1214" d="M68 532q0 245 173 405q172 159 433 159q88 0 194 -24q193 -46 262 -99l-47 -160q-18 -55 -24 -55q-4 0 -6 7t-13 39.5t-43 83t-77 87.5q-101 82 -248 82q-186 0 -283 -169q-84 -147 -84 -356q0 -257 127 -394q109 -118 268 -118q196 0 340 164q43 49 72 107l33 -33 q-84 -141 -194.5 -215t-259 -74t-259 42t-191.5 117q-173 160 -173 404z" />
<glyph unicode="d" horiz-adv-x="1366" d="M70 532q0 109 41 211.5t111 180.5q157 172 376 172q135 0 241.5 -45t168.5 -129h4v315q0 75 -10 98q-20 50 -70 60q-27 8 -27 13t13.5 7t54.5 10q123 24 250 60v-953q0 -223 6 -308.5t30.5 -137t79.5 -68.5q14 -4 15 -10q0 -8 -35 -8h-242q-29 55 -40 110.5t-19 94.5h-4 q-134 -236 -416 -236q-220 0 -372 153q-156 158 -156 410zM307 532q0 -286 128 -418q92 -94 231 -94q49 0 111.5 27t116.5 87q128 144 128 398q0 287 -128 418q-91 94 -228 94q-230 0 -322 -250q-37 -100 -37 -262z" />
<glyph unicode="e" horiz-adv-x="1290" d="M68 532q0 245 173 405q172 159 433 159q187 0 334 -104q170 -120 188 -316h-885q-6 -70 -6 -173t34 -202.5t89 -162.5q104 -118 277 -118t297 111t178 291h43q-49 -213 -193.5 -333t-355.5 -120q-261 0 -433 159q-173 160 -173 404zM319 715h619q0 152 -75 247t-234 95 q-131 0 -216 -105q-74 -91 -94 -237z" />
<glyph unicode="f" horiz-adv-x="681" d="M37 948l26 66h152v65q0 219 153 320q131 86 390 86l-58 -150q-11 -39 -21.5 -39t-23.5 17q-60 98 -124 98t-84.5 -40t-20.5 -116v-241h201l-19 -66h-182v-690q0 -110 12 -144q23 -61 94 -100q21 0 21 -7t-29 -7h-407q-29 0 -29 5t10.5 7t32 11t40.5 30t29 51 q15 40 15 154v690h-178z" />
<glyph unicode="g" horiz-adv-x="1290" d="M39 -168q0 145 149 211q85 37 236 51v4q-128 11 -182 58q-23 20 -23 55t31 61.5t73 45.5q66 29 148 36v4q-153 22 -252 117q-101 97 -101 218q0 12 1 24q0 104 54 177t133 118q147 84 331 84q91 0 190 -27q111 107 174 135q101 47 248 47l-69 -217q-12 10 -27.5 25.5 t-36.5 30.5q-55 36 -131 36q-29 0 -70 -17t-51 -50q149 -76 196 -120q93 -89 93 -207.5t-54.5 -191.5t-132.5 -118q-147 -84 -331 -84q-35 -2 -71 -3t-64 -5q-64 -9 -64 -49q0 -60 172 -68q45 -2 101.5 -4t151.5 -11.5t181 -39t146.5 -87t60.5 -143.5t-49 -144t-132 -100 q-178 -90 -419 -90q-289 0 -457 75q-77 34 -115 77t-38 86zM244 -150v-2q0 -136 148 -186q88 -29 212.5 -29t198.5 13.5t130 39.5q122 58 122 162q0 127 -147 180q-103 38 -259 38q-169 0 -244 -25t-118 -68t-43 -123zM336 717q10 -150 84 -245t213.5 -95t214.5 91.5 t88 248.5q-19 240 -174 315q-53 25 -125 25q-143 0 -217 -95.5t-84 -244.5z" />
<glyph unicode="h" d="M18 4q0 8 31 13t52.5 25.5t32.5 52.5q18 52 18 163v979q0 84 -16.5 118t-51.5 38q-10 2 -21.5 4t-11.5 7t10.5 7t52.5 12t108.5 25.5t139.5 36.5v-672h5q43 154 144 218.5t251 64.5q295 0 399 -236q37 -84 37 -207v-395q-1 -28 -1 -52q1 -94 13 -124q16 -38 31.5 -48.5 t40.5 -19t25 -14.5t-31 -6l-184 6l-211 -6q-23 0 -23 8t19 10q55 6 82.5 57.5t27.5 188.5v397q0 159 -69 267q-78 122 -232 122q-171 0 -253 -160q-71 -137 -71 -376v-250q0 -115 12.5 -155t32 -60t48.5 -25.5t28.5 -14.5t-18.5 -9l-209 6l-219 -6q-18 0 -19 10z" />
<glyph unicode="i" horiz-adv-x="569" d="M51 0q0 14 21 18q72 14 90 79t18 161v596q0 69 -18 91q-32 41 -76 48q-12 2 -12 6t13 5.5t55 9.5q108 21 249 59v-815q0 -115 15 -154q27 -73 92 -86q20 -4 20 -18q0 -6 -29 -6l-204 6l-205 -6q-29 0 -29 6zM147 1327q0 49 36 86t87 37t86 -37t35 -86t-35 -85t-86 -36 t-87 36t-36 85z" />
<glyph unicode="j" horiz-adv-x="569" d="M-178 -393l51 164q14 36 21.5 36t19.5 -22t22.5 -38.5t27.5 -30.5q36 -33 97 -33q129 0 129 477v665q0 100 -30 137q-21 24 -60 28q-10 1 -10 9t10 9q91 0 301 65v-1012q0 -259 -197 -381q-81 -51 -166 -68.5t-118 -17.5q-50 0 -98 13zM158 1327q0 49 35.5 86t87 37 t86 -37t34.5 -86t-34.5 -85t-85.5 -36t-87 36t-36 85z" />
<glyph unicode="k" horiz-adv-x="1214" d="M43 2q0 8 25.5 17t47 37t32.5 69q16 64 16 215v813q0 92 -12.5 154.5t-63.5 70.5q-35 6 -35 19q0 6 124 36.5t198 51.5v-885l344 287q76 63 76 106q0 23 -13.5 35t-20.5 18.5t-14.5 8.5t-7.5 10t29 8l197 -8l190 8q14 0 21.5 -1t7.5 -10t-21.5 -12t-78 -18t-142.5 -62.5 t-158 -103.5l-303 -229v-4q193 -4 292 -87q50 -42 93 -104.5t97 -146.5q53 -84 117.5 -161t148.5 -116q20 -8 20 -16t-22 -8l-205 6l-135 -6l-197 330q-16 27 -40.5 69.5t-55.5 82.5q-77 99 -148 99q-67 0 -70 -106q-1 -31 -1 -63v-148q0 -98 17.5 -156.5t92.5 -85.5 q18 -4 19 -12q0 -10 -23 -10l-213 6l-205 -6q-20 0 -20 8z" />
<glyph unicode="l" horiz-adv-x="569" d="M51 0q0 6 27.5 18t51.5 35t35 51q15 39 15 154v979q0 76 -15 109.5t-54 42.5q-31 6 -31 15t10 11t52 10q118 23 249 60v-1227q0 -112 15 -149q27 -69 102 -97q12 -6 12 -12t-13 -6t-59.5 3t-162.5 3l-213 -6q-20 0 -21 6z" />
<glyph unicode="m" horiz-adv-x="2048" d="M51 991q0 10 10.5 12.5t51.5 10.5q133 26 227 59v-262h4q99 285 412 285q143 0 243.5 -74t124.5 -211h4q83 285 402 285q167 0 260 -90q121 -118 121 -375v-434q0 -95 12 -122.5t27.5 -38.5t33 -17.5t25.5 -9.5t8 -9t-28 -6l-185 6l-205 -6q-16 0 -16 8t14 14 q70 20 86.5 88t16.5 201v414q0 221 -134 297q-48 28 -130 28t-142.5 -50t-95.5 -126q-61 -131 -61 -321v-348q0 -78 15 -123t71 -56q25 -2 24 -18q0 -8 -22 -8l-195 6l-201 -6q-16 0 -16 8t12 10q61 18 81 83t20 163v461q0 221 -134 297q-49 28 -130.5 28t-142 -50 t-95.5 -126q-62 -133 -62 -321v-289q0 -98 17.5 -162.5t79.5 -79.5q12 -2 12 -16q0 -6 -29 -6l-186 6l-160 -6q-23 0 -22 6q0 10 18.5 17t31.5 35t20 70q8 55 8 206v497q0 99 -29 133q-16 19 -44 24t-28 9z" />
<glyph unicode="n" d="M18 4q0 8 31 13t52.5 25.5t32.5 52.5q18 52 18 163v508q0 92 -14.5 145.5t-54.5 70.5t-40 22q0 4 57 14q168 30 240 55v-295h4q41 149 125 223q108 95 293 95q295 0 399 -236q37 -84 37 -207v-395q-1 -28 -1 -52q1 -94 13 -124q16 -38 31.5 -48.5t40.5 -19t25 -14.5 t-31 -6l-184 6l-211 -6q-23 0 -23 8t19 10q55 6 82.5 57.5t27.5 188.5v397q0 159 -69 267q-78 122 -232 122q-171 0 -253 -160q-71 -137 -71 -376v-250q0 -115 12.5 -155t32 -60t48.5 -25.5t28.5 -14.5t-18.5 -9l-209 6l-219 -6q-18 0 -19 10z" />
<glyph unicode="o" horiz-adv-x="1366" d="M76 532q0 245 173 405q172 159 433 159q263 0 435 -159q173 -160 173 -405q0 -244 -173 -404q-172 -159 -435 -159q-261 0 -433 159q-173 160 -173 404zM313 532q0 -353 183 -476q71 -48 186 -48q208 0 301 172q70 130 70 352q0 356 -183 477q-73 48 -188 48 q-206 0 -299 -172q-70 -130 -70 -353z" />
<glyph unicode="p" horiz-adv-x="1366" d="M29 -397q0 6 5 7t25.5 6t38 18.5t26.5 41.5q15 45 15 185v964q1 14 1 27q0 47 -12 76q-16 40 -78 56q-11 3 -11 7q0 10 10 12.5t21 4.5q145 18 258 65v-266h4q61 158 168.5 223.5t261.5 65.5q201 0 358 -148q76 -71 124 -176.5t48 -227t-43 -222.5t-115.5 -180t-169 -126 t-190.5 -47t-154.5 14.5t-107.5 40.5q-64 34 -162 132v-215q0 -293 86 -318q47 -12 47 -20v-4q0 -4 -37 -5l-200 5l-164 -5q-53 0 -53 7v2zM340 532q0 -286 128 -418q92 -94 230 -94q228 0 320 250q37 101 37 262q0 288 -129 418q-91 94 -228 94q-229 0 -321 -250 q-37 -100 -37 -262z" />
<glyph unicode="q" horiz-adv-x="1366" d="M66 532q0 109 40.5 211.5t111.5 180.5q158 172 376 172q131 0 234.5 -49.5t156.5 -145.5h4q18 134 53 172h211q43 0 43 -7t-5 -8t-18 -4t-27.5 -14.5t-23.5 -37.5q-16 -49 -16 -177v-964q0 -136 13.5 -173.5t30.5 -51.5q34 -25 50.5 -25t16.5 -4v-2q0 -11 -60 -11l-157 5 l-117 -2l-100 -3q-25 0 -25 7v4q0 8 43 14q63 10 78.5 72.5t15.5 169.5v354h-4q-89 -246 -397 -246q-221 0 -376 173q-152 169 -152 390zM303 532q0 -343 179 -466q67 -46 169 -46q187 0 275 166q69 131 69 346q0 345 -175 466q-66 46 -169 46q-187 0 -277 -166 q-71 -130 -71 -346z" />
<glyph unicode="r" horiz-adv-x="796" d="M43 0q0 6 30 14t51 24.5t32 44.5q20 47 20 175v490q0 106 -13 162.5t-67 68.5q-31 10 -30 16q2 6 17 6t26 5q130 22 266 67v-264h4q103 209 281 269q53 19 113 19q11 0 22 -1l-86 -211q-45 33 -107.5 33t-98.5 -26t-61 -66q-55 -85 -55 -191v-377q0 -98 18.5 -163.5 t98.5 -82.5q20 -6 20 -12t-16 -6l-227 6l-220 -6q-18 0 -18 6z" />
<glyph unicode="s" horiz-adv-x="1175" d="M39 51l43 170q10 39 18 39t13 -18q22 -112 169 -178q124 -56 253 -56q137 0 236 52q118 63 118 194q0 109 -91 150q-46 20 -114 29t-147 16.5t-153.5 22.5t-137.5 49q-142 78 -142 231q0 188 187 277q141 67 352 67q194 0 381 -78l-51 -154q-10 -25 -19 -24 q-12 0 -17 29.5t-34 66.5t-74 64q-98 57 -221 57q-205 0 -274 -133q-25 -47 -25 -106.5t31 -94.5t82 -55q87 -35 278 -47t292.5 -77t101.5 -212q0 -196 -199 -291q-151 -72 -373 -72q-260 0 -483 82z" />
<glyph unicode="t" horiz-adv-x="681" d="M61 967q0 12 41 28q180 63 291 291q8 20 23 21q10 0 10 -29v-264h227l-14 -66h-213v-581q0 -264 82 -320q24 -16 49 -24t25 -15.5t-33 -7.5h-248q-86 40 -86 150v798h-133q-20 0 -21 19z" />
<glyph unicode="u" d="M43 1006q0 4 51 11q101 14 256 56v-663q0 -158 69 -264q81 -126 232 -126q150 0 238 126q78 110 78 268v411q0 123 -34 154q-11 10 -32 20t-20.5 12.5t12.5 5.5l20 5q166 28 265 51v-813q0 -127 23.5 -178t88.5 -68q12 -2 13 -6q0 -8 -27 -8h-244q-45 101 -53 236h-4 q-51 -137 -145.5 -202t-230 -65t-217 22.5t-135.5 74.5q-108 106 -108 346v413q0 90 -9 114t-21.5 33t-29.5 15q-36 13 -36 19z" />
<glyph unicode="v" d="M20 1066.5q0 6.5 27 5.5l182 -7l185 7q26 0 26 -7.5t-18 -15.5q-57 -14 -57 -78q0 -41 51 -140l319 -614l262 510q70 142 70 205t-28.5 85.5t-56 31t-28.5 16.5q0 8 21 7l155 -7l152 7q27 0 27 -5q0 -12 -19 -25q-79 -55 -209 -280l-399 -764q-12 -29 -25 -29h-4 q-4 0 -7 7.5t-13 23.5l-359 698q-59 117 -111 210t-118 136q-25 16 -25 22.5z" />
<glyph unicode="w" horiz-adv-x="1972" d="M14 1066q0 7 29 7l195 -8l188 8q29 0 29 -9t-11.5 -12t-28.5 -9.5t-31.5 -25t-14.5 -49.5q0 -55 45 -137l278 -557l316 756q16 35 25 50.5t22 15.5h4q20 0 51 -66l348 -756l228 508q34 87 34 130.5t-24.5 82.5t-77.5 56q-8 2 -8 11t6 10t16 1l154 -8l147 8q23 0 23 -8 q0 -14 -6 -18q-68 -55 -116 -133t-87 -160l-348 -742q-4 -12 -15.5 -27.5t-17.5 -15.5h-4q-10 0 -15.5 11.5t-15.5 31.5l-354 795l-330 -803q-14 -35 -31 -35h-4q-18 0 -51 68l-409 854q-47 118 -127 162q-11 6 -11 13z" />
<glyph unicode="x" horiz-adv-x="1214" d="M0 1q0 7 13.5 9t66.5 37q83 55 244 238l200 227l-205 285q-76 104 -137 170.5t-72 75.5t-30 13.5t-19 10.5t33 5l185 -7l180 7q27 0 26.5 -5.5t-9.5 -8.5t-20 -10q-30 -16 -30 -48t35 -82t76 -103l127 -170l104 127q18 23 39.5 49.5t40.5 52.5q47 64 47 100t-27 62 q-8 10 -20 14.5t-12 13.5t26 8l146 -7l141 7q20 0 20 -7q0 -8 -20.5 -15.5t-57 -39t-87 -71.5t-91.5 -83l-225 -246l213 -288q82 -123 196 -240q47 -48 78 -63q33 -16 33 -21q0 -3 -5 -3q-7 -1 -15 -1l-209 6q-117 0 -163 -3t-60 -3t-15 8q0 4 13 6q57 9 57 60 q0 35 -117 192l-153 211l-142 -182q-53 -59 -84.5 -121t-31.5 -89q0 -58 41 -67q27 -10 26.5 -14t-26.5 -4l-140 6l-166 -6q-18 0 -18 7z" />
<glyph unicode="y" d="M18 1065q0 8 29 8l199 -8l190 8q29 0 29 -7t-20.5 -14t-45 -20.5t-24.5 -49t7 -61.5t18 -51q28 -70 38 -86l303 -563l183 350q127 254 127 349q0 97 -93 124q-18 6 -18 21q0 8 25 8l161 -8l158 8q25 0 25 -8t-19 -20t-51.5 -53.5t-64.5 -88.5q-53 -77 -105 -170 l-371 -715q-130 -255 -247 -344q-105 -81 -283 -81q-16 0 -33 1l64 175q6 18 10 32.5t9 14.5t5 -9q27 -73 150 -73q93 0 151 80q51 72 51 170q0 80 -108 303l-305 612q-25 47 -52.5 87t-80.5 67q-10 6 -11 12z" />
<glyph unicode="z" horiz-adv-x="1214" d="M57 0l699 897q49 66 49 80q0 29 -40 33t-111.5 4t-144.5 -5t-137 -27q-126 -41 -241 -175q-12 -12 -16 -12q-9 0 4 41l84 229h911l-610 -829q-41 -55 -72 -95.5t-31 -54.5q0 -35 98.5 -35t180.5 6t158 27q168 44 282 160q37 43 37 18q0 -18 -14 -53l-76 -209h-1010z" />
<glyph unicode="{" horiz-adv-x="530" d="M-14 483q98 29 136 80t38 150v358q0 233 210 271q58 10 115 10v-41q-72 0 -108.5 -53.5t-36.5 -188.5v-332q0 -104 -38 -164.5t-152 -87.5v-4q115 -27 152.5 -87t37.5 -165v-331q0 -117 37 -179.5t108 -62.5v-41q-143 0 -221 50q-104 66 -104 231v358q0 98 -38 149.5 t-136 79.5z" />
<glyph unicode="|" horiz-adv-x="454" d="M166 0v1485h123v-1485h-123z" />
<glyph unicode="}" horiz-adv-x="530" d="M45 -344q72 0 108.5 53t36.5 189v331q0 104 38 165t153 87v4q-115 27 -153 87.5t-38 164.5v332q0 242 -145 242v41q226 0 297 -136q29 -55 29 -145v-358q0 -98 37.5 -149.5t136.5 -80.5q-98 -29 -136 -80t-38 -149v-358q0 -164 -105 -231q-78 -50 -221 -50v41z" />
<glyph unicode="~" horiz-adv-x="1228" d="M141 483q85 176 256 176q84 0 228 -65q57 -25 112.5 -49.5t91.5 -24.5t61 13.5t46.5 34t40 47t37.5 53.5l73 -86q-60 -87 -97 -116q-73 -60 -144.5 -60t-121.5 19t-100 48q-124 72 -233.5 72t-175.5 -148z" />
<glyph unicode="&#xa1;" horiz-adv-x="569" d="M162 973q0 49 37 86t86 37t86 -37t37 -86t-37 -86t-86 -37t-86 37t-37 86zM170 -2q0 166 30 295q62 267 62 467h45q0 -191 58 -449q34 -153 34 -313q0 -285 -114 -285q-115 0 -115 285z" />
<glyph unicode="&#xa2;" d="M156 627q0 200 132 331q135 132 339 144v184h73v-182q146 -7 284 -62q44 -18 73 -41l-39 -135q-14 -47 -21 -47q-6 0 -16 34t-36.5 76t-65.5 75q-83 69 -190 69t-165.5 -40t-95.5 -103q-72 -124 -72 -303q0 -219 105 -335q89 -99 231 -99q167 0 289 138q37 42 61 91 l27 -27q-66 -113 -152 -175t-215 -68v-181h-73v183q-207 12 -339 144q-134 132 -134 329z" />
<glyph unicode="&#xa3;" d="M43 95q0 46 42 95.5t101 81.5q124 68 236 68l92 -6q7 139 -41 293h-184l22 65h152q-39 99 -39 197t30.5 167.5t79.5 121.5q106 112 246 112q147 0 318 -110l-54 -181q-21 -69 -30 -12q-24 106 -102 183q-76 77 -175 77q-73 0 -125 -67q-51 -63 -51 -150.5t35 -172.5 t70 -165h321l-22 -65h-283q29 -113 29 -162q0 -90 -35 -162q37 -12 84 -36.5t97 -49.5q122 -61 192 -61q101 0 173 102q32 46 38 67t16 21t10 -10q0 -6 -7 -25.5t-10 -30t-12 -38t-38 -80.5t-67 -96q-86 -97 -185 -97q-91 0 -189 80q-41 35 -81 74t-81 70 q-210 -224 -434 -224q-89 0 -126 59q-13 21 -13 67zM205 150q0 -32 12 -49t29 -29q35 -25 73 -25t71.5 17.5t59.5 45.5q60 61 56 140q-57 39 -109.5 39t-83 -8.5t-55.5 -25.5t-39 -45t-14 -60z" />
<glyph unicode="&#xa4;" d="M152 203l110 116q-109 135 -108.5 319.5t112.5 303.5l-114 117l81 82l117 -113q133 111 311.5 111t311.5 -111l114 115l87 -86l-113 -111q108 -125 108 -313q0 -181 -106 -316l108 -114l-81 -82l-111 119q-131 -117 -317 -117t-318 117l-111 -119zM279 629 q0 -161 113 -275q112 -114 274 -114q161 0 269 118q109 118 109 275q0 158 -110 272q-113 117 -266 117q-165 0 -276 -114q-113 -117 -113 -279z" />
<glyph unicode="&#xa5;" d="M63 1260q0 8 19 8l192 -8l187 8q20 0 20 -10t-22.5 -12.5t-40 -20t-17.5 -51.5t12.5 -58t37.5 -61l290 -437l211 338q92 150 92 224q0 35 -21.5 46t-34.5 18t-13 16q0 8 20 8l127 -8l123 8q18 0 19 -8q0 -8 -7 -13q-61 -37 -117.5 -103.5t-92.5 -125.5l-162 -258h223v-66 h-256l-72 -112h328v-66h-330v-340q0 -57 12.5 -101t61.5 -63q14 -4 14 -14t-28 -10l-168 12l-168 -12q-29 0 -29 10t14 14q49 18 61.5 62.5t12.5 101.5v340h-328v66h330l-76 112h-254v66h205l-227 340q-46 77 -131 139q-16 12 -17 21z" />
<glyph unicode="&#xa6;" horiz-adv-x="454" d="M166 0v555h123v-555h-123zM166 930v555h123v-555h-123z" />
<glyph unicode="&#xa7;" horiz-adv-x="1138" d="M115 582q0 86 39 148.5t104 115.5q-68 68 -68 180q0 132 96 224q106 102 300 102q173 0 301 -58q47 -22 80 -57l-64 -113q-10 -20 -16 -20q-8 0 -19 31q-35 84 -120.5 124.5t-190 40.5t-174.5 -50t-70 -158q0 -132 187 -198q61 -22 138 -42t145.5 -47t121.5 -67 q117 -88 117 -230q0 -76 -38 -142.5t-83 -123.5q49 -41 67.5 -88.5t18.5 -122t-39 -140t-106 -112.5q-145 -103 -340 -103q-111 0 -198 15.5t-167 62.5l23 146q5 37 12 37q4 0 6 -5.5t15.5 -31t55.5 -61.5t93 -61q105 -50 179.5 -50t133 13t104.5 43q105 68 105 187 q0 107 -116 165q-54 26 -120.5 43.5t-137.5 36.5t-138 45t-120 68q-117 94 -117 253zM217 641q0 -126 145 -195q44 -22 130 -47.5t184 -53.5t182 -75q62 87 62 147t-20.5 97t-56.5 64q-60 44 -148 70.5t-142.5 41.5t-100.5 30q-98 32 -149 83q-86 -55 -86 -162z" />
<glyph unicode="&#xa8;" horiz-adv-x="569" d="M-49 1341q0 49 37 86t86 37t86 -36.5t37 -86.5q0 -49 -37 -85.5t-86 -36.5t-86 36.5t-37 85.5zM373 1341q0 49 37 86t86 37t85.5 -36.5t36.5 -86.5q0 -49 -36.5 -85.5t-85.5 -36.5t-86 36.5t-37 85.5z" />
<glyph unicode="&#xa9;" horiz-adv-x="1638" d="M139 654q0 144 53.5 271.5t145.5 222.5t216 149.5t266 54.5t266 -54.5t216 -149.5q197 -202 197 -495q0 -143 -52 -270t-144.5 -221t-216.5 -148.5t-266 -54.5t-266 54.5t-216 148.5t-145.5 221t-53.5 271zM250 653q0 -121 45 -231.5t122 -194.5t181 -134t222 -50 t221.5 50t180 134t122 194.5t45.5 232.5t-44.5 233.5t-121 195.5t-181 134.5t-223.5 50.5q-234 0 -402 -186q-167 -184 -167 -429zM434 672q0 145 104 258q123 131 334 131q78 0 123 -11.5t77 -21.5q50 -16 50 -45v-141h-32q-8 117 -123 164q-41 16 -106 16t-117 -25.5 t-86 -71.5q-68 -94 -68 -245q0 -262 158 -341q55 -28 144 -28t145.5 52.5t84.5 121.5h33l-31 -139q-2 -16 -15 -23.5t-40 -16.5q-102 -34 -199.5 -34t-174.5 22.5t-135 71.5q-126 105 -126 306z" />
<glyph unicode="&#xaa;" horiz-adv-x="751" d="M14 815q0 51 23.5 84t61.5 55.5t87.5 37t98.5 21.5q77 11 178 11h65v41q0 90 -41 132t-143 42t-140 -13.5t-60.5 -36t-41.5 -63.5l-10 -22q-2 0 -6 14l-35 111q82 41 152.5 51t144.5 10t129 -10t99 -34q100 -55 100 -161v-346q0 -31 8 -56.5t41 -37.5q4 -4 8 -4t4 -4 t-16 -4h-146q-27 57 -30 125h-4q-74 -143 -246 -144q-187 0 -257 111q-24 39 -24 90zM178 801q0 -125 156 -125q194 0 194 239v58h-67q-138 0 -187 -21.5t-72.5 -55.5t-23.5 -95z" />
<glyph unicode="&#xab;" horiz-adv-x="1138" d="M186 535q159 223 267 393q45 -61 120 -84q-177 -219 -227 -309q19 -34 84 -127q121 -171 145 -183q-94 -48 -131 -88q-53 109 -120.5 205t-137.5 193zM563 535q165 230 266 393q45 -61 121 -84q-185 -229 -227 -309q16 -28 82 -124q120 -173 147 -186q-94 -48 -131 -88 q-53 109 -120.5 205t-137.5 193z" />
<glyph unicode="&#xac;" horiz-adv-x="1228" d="M82 672v123h1065v-562h-123v439h-942z" />
<glyph unicode="&#xad;" horiz-adv-x="530" d="M4 451l39 163h483l-37 -163h-485z" />
<glyph unicode="&#xae;" horiz-adv-x="1638" d="M139 654q0 144 53.5 271.5t145.5 222.5t216 149.5t266 54.5t266 -54.5t216 -149.5q197 -202 197 -495q0 -143 -52 -270t-144.5 -221t-216.5 -148.5t-266 -54.5t-266 54.5t-216 148.5t-145.5 221t-53.5 271zM250 653q0 -121 45 -231.5t122 -194.5t181 -134t222 -50 t221.5 50t180 134t122 194.5t45.5 232.5t-44.5 233.5t-121 195.5t-181 134.5t-223.5 50.5q-234 0 -402 -186q-167 -184 -167 -429zM494 293v31q75 8 85.5 18t11.5 28.5t1 51.5v487q0 68 -10 78q-14 13 -88 21v30h358q97 0 162 -44q71 -49 71 -133.5t-46 -140.5t-115 -79 l114 -160q96 -124 154 -170v-18h-129q-25 0 -47.5 24.5t-50 68.5t-62.5 104.5t-84 130.5h-96v-199q0 -68 10 -78q12 -12 88 -20v-31h-327zM723 659h86q139 0 139 185q0 86 -42 120.5t-101 34.5h-82v-340z" />
<glyph unicode="&#xaf;" horiz-adv-x="569" d="M-45 1280v133h661v-133h-661z" />
<glyph unicode="&#xb0;" horiz-adv-x="819" d="M117 997q0 123 85 208t208 85q124 0 208 -85q84 -86 84 -208q0 -123 -84.5 -207.5t-207.5 -84.5q-122 0 -208 85q-85 83 -85 207zM209 997q0 -92 54 -151.5t147 -59.5q92 0 146 59.5t54 151.5t-54 151.5t-146 59.5t-146.5 -59t-54.5 -152z" />
<glyph unicode="&#xb1;" horiz-adv-x="1228" d="M82 0v123h1065v-123h-1065zM82 584v123h471v358h123v-358h471v-123h-471v-359h-123v359h-471z" />
<glyph unicode="&#xb2;" horiz-adv-x="794" d="M47 516q0 151 311 305q80 41 134.5 97.5t54.5 147.5t-50.5 131t-139.5 40q-192 0 -234 -131q-6 -23 -14 -23q-7 0 -13 25l-35 119q148 63 283 63q246 0 343 -124q36 -46 36 -115.5t-33 -112.5t-84 -71.5t-110.5 -48t-138 -50.5t-131 -71t-52.5 -74h361q135 0 188 79 q6 10 15 10.5t10 -7.5q0 -10 -9 -31l-59 -158h-633z" />
<glyph unicode="&#xb3;" horiz-adv-x="794" d="M33 573l39 109q10 23 13 31t12 8t9 -25.5t24 -55.5t60 -50q74 -39 145.5 -39t118 6t82.5 23q76 38 76 137q0 178 -255 178q-55 0 -81 -10v73q23 -10 73 -10t90 6.5t70 22.5q64 34 64 127q0 74 -55 108q-42 25 -108 25t-103 -7t-67 -22q-68 -32 -78 -79.5t-19.5 -47.5 t-17.5 35l-31 107q134 67 291 67q363 0 363 -190q0 -91 -112 -136q-79 -32 -198 -38v-2q129 0 204 -35t109.5 -75t34.5 -103.5t-39.5 -105.5t-100.5 -67q-100 -40 -222 -40q-244 0 -391 75z" />
<glyph unicode="&#xb4;" horiz-adv-x="569" d="M123 1200l291 311q58 58 98.5 58t67 -29t26.5 -70t-45 -69l-334 -201h-104z" />
<glyph unicode="&#xb6;" horiz-adv-x="1228" d="M233 955.5q0 184.5 87.5 270t291.5 85.5h451v-51q-76 0 -112 -20.5t-36 -80.5v-1413h-106v1514h-111v-1514h-106v819q-175 0 -272 108q-87 98 -87 282.5z" />
<glyph unicode="&#xb7;" horiz-adv-x="663" d="M209 532q0 49 37 86t86 37t86 -36.5t37 -86.5q0 -49 -37 -85.5t-86 -36.5t-86 36.5t-37 85.5z" />
<glyph unicode="&#xb8;" horiz-adv-x="569" d="M49 -410l35 72q61 -25 120 -24q122 1 122 83q0 27 -28 50.5t-66 23.5t-62 -8l-23 16l89 197h83l-63 -131q42 6 68 6q176 0 176 -149q0 -90 -90 -134q-67 -34 -142 -34q-143 0 -219 32z" />
<glyph unicode="&#xb9;" horiz-adv-x="794" d="M207 522q0 10 27.5 15.5t44 18.5t24.5 32q12 30 12 90v448q0 41 -15 59.5t-67 26.5q-10 0 -10 11.5t8 13.5q88 15 238 53v-612q0 -94 37 -122q18 -13 45 -18t27 -16q0 -10 -25 -10l-41 2l-119 2l-160 -4q-27 0 -26 10z" />
<glyph unicode="&#xba;" horiz-adv-x="819" d="M14 952q0 148 112 243t282 95t284 -95q113 -94 113 -243q0 -148 -113 -242q-116 -96 -284.5 -96t-281.5 96q-112 95 -112 242zM190 952q0 -130 30 -183.5t73 -78t116 -24.5t116.5 24.5t66.5 64.5q37 67 37 197q0 131 -30 184.5t-74 78t-116.5 24.5t-115.5 -24.5 t-65 -64.5q-38 -67 -38 -198z" />
<glyph unicode="&#xbb;" horiz-adv-x="1138" d="M186 225q26 13 90 104q125 178 140 206q-38 73 -120.5 175.5t-107.5 133.5q76 23 121 84q91 -144 266 -393q-70 -96 -137.5 -192.5t-120.5 -205.5q-37 40 -131 88zM563 225q33 17 187 243q32 48 43 67q-38 73 -120.5 175.5t-107.5 133.5q76 23 121 84q91 -144 266 -393 q-70 -96 -137.5 -192.5t-120.5 -205.5q-37 40 -131 88z" />
<glyph unicode="&#xbc;" horiz-adv-x="1990" d="M250 522q0 10 27.5 15.5t44 18.5t24.5 32q12 30 12 90v448q0 41 -15 59.5t-67 26.5q-10 0 -10 11.5t8 13.5q88 15 238 53v-612q0 -94 38 -122q17 -13 44 -18t27 -16q0 -10 -25 -10l-41 2l-119 2l-160 -4q-27 0 -26 10zM526 -31l918 1321h108l-917 -1321h-109zM1149 188 q4 35 18.5 54.5t30.5 36.5l461 452q32 43 59 43q16 0 18.5 -12t2.5 -23v-491q137 5 209 98q4 8 10 8t6 -9q0 -12 -8 -30l-49 -135q-57 8 -168 8v-26q0 -93 35 -128q14 -14 41 -19t26.5 -12t-26.5 -7l-68 2l-92 2l-160 -4q-18 0 -18 7t24.5 12t43 19.5t27.5 35.5q13 29 13 92 v26h-436zM1233 248h352v373z" />
<glyph unicode="&#xbd;" horiz-adv-x="1990" d="M246 522q0 10 27.5 15.5t44 18.5t24.5 32q12 30 12 90v448q0 41 -15 59.5t-67 26.5q-10 0 -10 11.5t8 13.5q81 14 238 53v-612q0 -94 38 -122q17 -13 44 -18t26 -16q0 -10 -24 -10l-41 2l-119 2l-160 -4q-27 0 -26 10zM403 -31l918 1321h109l-918 -1321h-109zM1190 0 q0 148 311 305q80 41 134.5 97.5t54.5 147.5t-50.5 131t-139.5 40q-191 0 -234 -131q-6 -23 -15 -23q-6 0 -12 25l-35 119q148 63 283 63q246 0 343 -124q36 -46 36 -116t-33 -112.5t-84 -71t-110.5 -48t-138 -50.5t-131 -71t-52.5 -75h360q135 0 189 80q6 10 15 10.5t9 -9 t-8 -29.5l-59 -158h-633z" />
<glyph unicode="&#xbe;" horiz-adv-x="1990" d="M51 573l39 109q10 23 13 31t12.5 8t9.5 -25.5t23.5 -55.5t60.5 -50q75 -39 146 -39t117 6t82 23q77 38 77 137q0 178 -256 178q-55 0 -80 -10v73q22 -10 72.5 -10t90.5 6.5t70 22.5q64 35 64 127q0 73 -56 108q-42 25 -108 25t-102.5 -7t-67.5 -22q-68 -31 -78 -79 t-19 -48t-18 35l-30 107q134 67 290 67q363 0 363 -190q0 -91 -112 -136q-79 -33 -197 -38v-2q129 0 203.5 -35t109.5 -75t35 -103.5t-40 -105.5t-101 -67q-100 -40 -222 -40q-244 0 -391 75zM600 -31l918 1321h108l-917 -1321h-109zM1149 188q4 35 18.5 54.5t30.5 36.5 l461 452q32 43 59 43q16 0 18.5 -12t2.5 -23v-491q137 5 209 98q4 8 10 8t6 -9q0 -12 -8 -30l-49 -135q-57 8 -168 8v-26q0 -93 35 -128q14 -14 41 -19t26.5 -12t-26.5 -7l-68 2l-92 2l-160 -4q-18 0 -18 7t24.5 12t43 19.5t27.5 35.5q13 29 13 92v26h-436zM1233 248h352 v373z" />
<glyph unicode="&#xbf;" horiz-adv-x="1024" d="M59 70q0 66 20.5 118t53.5 94t76 75.5t88 66.5t88 65.5t77 71.5q75 87 79 199h45q10 -139 -86 -270q-29 -41 -60 -80.5t-57.5 -82t-46.5 -88.5q-47 -104 -47 -184q0 -139 83 -221t222 -82q109 0 205 89q92 85 123 192q4 16 11 16t15 -31l56 -200q-130 -73 -318 -98 q-57 -7 -139 -7t-176.5 31t-164 82t-108.5 114.5t-39 129.5zM440 973q0 49 37 86t86 37t86 -37t37 -86t-37 -86t-86 -37t-86 37t-37 86z" />
<glyph unicode="&#xc0;" horiz-adv-x="1593" d="M-2 4q0 10 14.5 17.5t35 24t55 57t67.5 87.5q63 89 104 170l502 975q10 16 15 17h4q8 0 16 -17l602 -1126q86 -150 169 -189q15 -8 15 -17t-28 -9l-230 6l-247 -6q-20 0 -21 6q0 10 31 19q53 15 53 104q0 44 -92 233l-117 242h-487l-111 -215q-72 -132 -72 -233 q0 -83 70 -114q21 -9 42.5 -16.5t21.5 -16.5t-25 -9l-201 6l-159 -6q-27 0 -27 10zM475 1679q0 41 26.5 70t61.5 29t60.5 -19.5t44.5 -38.5l290 -311h-104l-334 201q-45 29 -45 69zM485 649h435l-220 426z" />
<glyph unicode="&#xc1;" horiz-adv-x="1593" d="M-2 4q0 10 14.5 17.5t35 24t55 57t67.5 87.5q63 89 104 170l502 975q10 16 15 17h4q8 0 16 -17l602 -1126q86 -150 169 -189q15 -8 15 -17t-28 -9l-230 6l-247 -6q-20 0 -21 6q0 10 31 19q53 15 53 104q0 44 -92 233l-117 242h-487l-111 -215q-72 -132 -72 -233 q0 -83 70 -114q21 -9 42.5 -16.5t21.5 -16.5t-25 -9l-201 6l-159 -6q-27 0 -27 10zM485 649h435l-220 426zM635 1409l291 311q58 58 98.5 58t67 -29t26.5 -70t-45 -69l-334 -201h-104z" />
<glyph unicode="&#xc2;" horiz-adv-x="1593" d="M-2 4q0 10 14.5 17.5t35 24t55 57t67.5 87.5q63 89 104 170l502 975q10 16 15 17h4q8 0 16 -17l602 -1126q86 -150 169 -189q15 -8 15 -17t-28 -9l-230 6l-247 -6q-20 0 -21 6q0 10 31 19q53 15 53 104q0 44 -92 233l-117 242h-487l-111 -215q-72 -132 -72 -233 q0 -83 70 -114q21 -9 42.5 -16.5t21.5 -16.5t-25 -9l-201 6l-159 -6q-27 0 -27 10zM465 1409l252 352h160l253 -352h-96l-237 205l-234 -205h-98zM485 649h435l-220 426z" />
<glyph unicode="&#xc3;" horiz-adv-x="1593" d="M-2 4q0 10 14.5 17.5t35 24t55 57t67.5 87.5q63 89 104 170l502 975q10 16 15 17h4q8 0 16 -17l602 -1126q86 -150 169 -189q15 -8 15 -17t-28 -9l-230 6l-247 -6q-20 0 -21 6q0 10 31 19q53 15 53 104q0 44 -92 233l-117 242h-487l-111 -215q-72 -132 -72 -233 q0 -83 70 -114q21 -9 42.5 -16.5t21.5 -16.5t-25 -9l-201 6l-159 -6q-27 0 -27 10zM436 1454q27 161 140 217q40 19 92 19q51 0 91 -15.5t77 -32.5t70.5 -33t75.5 -16t63.5 32t35.5 69h76q-38 -169 -144 -223q-40 -21 -88 -21q-68 0 -173 51q-39 18 -72 33.5t-69 15.5 t-62.5 -28.5t-36.5 -67.5h-76zM485 649h435l-220 426z" />
<glyph unicode="&#xc4;" horiz-adv-x="1593" d="M-2 4q0 10 14.5 17.5t35 24t55 57t67.5 87.5q63 89 104 170l502 975q10 16 15 17h4q8 0 16 -17l602 -1126q86 -150 169 -189q15 -8 15 -17t-28 -9l-230 6l-247 -6q-20 0 -21 6q0 10 31 19q53 15 53 104q0 44 -92 233l-117 242h-487l-111 -215q-72 -132 -72 -233 q0 -83 70 -114q21 -9 42.5 -16.5t21.5 -16.5t-25 -9l-201 6l-159 -6q-27 0 -27 10zM463 1550q0 49 37 86t86 37t86 -36.5t37 -86.5q0 -49 -37 -85.5t-86 -36.5t-86 36.5t-37 85.5zM485 649h435l-220 426zM885 1550q0 49 37 86t86 37t85.5 -36.5t36.5 -86.5 q0 -49 -36.5 -85.5t-85.5 -36.5t-86 36.5t-37 85.5z" />
<glyph unicode="&#xc5;" horiz-adv-x="1593" d="M-2 4q0 10 14.5 17.5t35 24t55 57t67.5 87.5q63 89 104 170l502 975q10 16 15 17h4q8 0 16 -17l602 -1126q86 -150 169 -189q15 -8 15 -17t-28 -9l-230 6l-247 -6q-20 0 -21 6q0 10 31 19q53 15 53 104q0 44 -92 233l-117 242h-487l-111 -215q-72 -132 -72 -233 q0 -83 70 -114q21 -9 42.5 -16.5t21.5 -16.5t-25 -9l-201 6l-159 -6q-27 0 -27 10zM485 649h435l-220 426zM586 1620q0 90 61 149q63 62 150 62q89 0 149 -62q62 -64 62 -149q0 -88 -61.5 -149.5t-150.5 -61.5t-149.5 60.5t-60.5 150.5zM676 1618q0 -51 34.5 -85t86.5 -34 q51 0 86 34t35 85t-35 87t-86 36t-86 -36t-35 -87z" />
<glyph unicode="&#xc6;" horiz-adv-x="1972" d="M-102 0q0 5 18 19.5t44 40.5t54 60q75 94 107 142l545 850q45 74 45 108q0 57 -43 68q-12 4 -24.5 6t-12.5 6q0 11 39 11h1099l68 -242q10 -30 10 -39.5t-7 -9.5t-14 10t-31 35t-61.5 62.5t-87.5 66.5q-112 66 -257 66h-267v-543h205q113 0 199 45t110 108q9 23 15 23 q10 0 10 -35v-338q0 -37 -10 -37q-4 0 -15 23q-35 82 -91 121t-152 39h-271v-377q0 -82 8.5 -129t34 -72t72.5 -31t119 -6t144.5 17.5t143.5 47.5q152 62 252 158q48 43 55 43t7 -5t-4 -17l-90 -295h-1092q-35 0 -35 6t16.5 13.5t39.5 23.5q61 47 76.5 114.5t15.5 137.5v371 h-443l-204 -355q-25 -45 -44.5 -79.5t-19.5 -81.5q0 -79 100 -130q10 -4 21.5 -8t11.5 -11t-20 -7l-181 6l-184 -6q-24 0 -24 6zM477 717h408v493q0 49 -41 50q-23 0 -44.5 -29t-33.5 -49z" />
<glyph unicode="&#xc7;" horiz-adv-x="1554" d="M86 646q0 167 64.5 296t172 220t248 140.5t289.5 49.5q231 0 452 -86q72 -29 136 -70l-64 -192q-23 -70 -28 -70q-10 0 -24.5 60.5t-47.5 116.5t-89 97q-121 88 -335 92q-139 0 -235.5 -58t-154.5 -150q-110 -176 -110 -437q0 -262 128 -436q153 -209 456 -209t440 316 q8 18 11.5 30.5t10.5 12.5t10 -7.5t9 -29.5l54 -187q-231 -186 -619 -186q-322 0 -538 172q-107 86 -171.5 217t-64.5 298zM661 -410l35 72q61 -25 120 -24q122 1 122 83q0 27 -28 50.5t-66 23.5t-62 -8l-23 16l89 197h83l-63 -131q42 6 68 6q176 0 176 -149q0 -90 -90 -134 q-67 -34 -142 -34q-143 0 -219 32z" />
<glyph unicode="&#xc8;" horiz-adv-x="1478" d="M27 8q0 4 23.5 12.5t43 25t36.5 40t28 56.5q16 53 16 200v696q0 100 -14.5 163t-75.5 79l-22 9q-13 5 -13 9q0 13 39 13h1157l55 -193q4 -16 11.5 -36.5t7.5 -38t-12 -17.5t-34 35.5t-76 76t-121 68.5q-131 54 -288 54h-376v-543h379q108 0 199 45q88 43 110 108 q6 18 16 19q8 0 8 -31v-338q0 -43 -7 -43t-10 9q-50 158 -269 176q-56 4 -109 4h-317v-433q0 -109 42 -147q40 -35 148 -35h232q125 0 282 65q151 62 252 158q48 43 54.5 43t7.5 -6q0 -4 -1.5 -7t-3.5 -9l-90 -295h-1247q-61 0 -61 8zM405 1679q0 41 26.5 70t61.5 29 t60.5 -19.5t44.5 -38.5l290 -311h-104l-334 201q-45 29 -45 69z" />
<glyph unicode="&#xc9;" horiz-adv-x="1478" d="M27 8q0 4 23.5 12.5t43 25t36.5 40t28 56.5q16 53 16 200v696q0 100 -14.5 163t-75.5 79l-22 9q-13 5 -13 9q0 13 39 13h1157l55 -193q4 -16 11.5 -36.5t7.5 -38t-12 -17.5t-34 35.5t-76 76t-121 68.5q-131 54 -288 54h-376v-543h379q108 0 199 45q88 43 110 108 q6 18 16 19q8 0 8 -31v-338q0 -43 -7 -43t-10 9q-50 158 -269 176q-56 4 -109 4h-317v-433q0 -109 42 -147q40 -35 148 -35h232q125 0 282 65q151 62 252 158q48 43 54.5 43t7.5 -6q0 -4 -1.5 -7t-3.5 -9l-90 -295h-1247q-61 0 -61 8zM565 1409l291 311q58 58 98.5 58 t67 -29t26.5 -70t-45 -69l-334 -201h-104z" />
<glyph unicode="&#xca;" horiz-adv-x="1478" d="M27 8q0 4 23.5 12.5t43 25t36.5 40t28 56.5q16 53 16 200v696q0 100 -14.5 163t-75.5 79l-22 9q-13 5 -13 9q0 13 39 13h1157l55 -193q4 -16 11.5 -36.5t7.5 -38t-12 -17.5t-34 35.5t-76 76t-121 68.5q-131 54 -288 54h-376v-543h379q108 0 199 45q88 43 110 108 q6 18 16 19q8 0 8 -31v-338q0 -43 -7 -43t-10 9q-50 158 -269 176q-56 4 -109 4h-317v-433q0 -109 42 -147q40 -35 148 -35h232q125 0 282 65q151 62 252 158q48 43 54.5 43t7.5 -6q0 -4 -1.5 -7t-3.5 -9l-90 -295h-1247q-61 0 -61 8zM395 1409l252 352h160l253 -352h-96 l-237 205l-234 -205h-98z" />
<glyph unicode="&#xcb;" horiz-adv-x="1478" d="M27 8q0 4 23.5 12.5t43 25t36.5 40t28 56.5q16 53 16 200v696q0 100 -14.5 163t-75.5 79l-22 9q-13 5 -13 9q0 13 39 13h1157l55 -193q4 -16 11.5 -36.5t7.5 -38t-12 -17.5t-34 35.5t-76 76t-121 68.5q-131 54 -288 54h-376v-543h379q108 0 199 45q88 43 110 108 q6 18 16 19q8 0 8 -31v-338q0 -43 -7 -43t-10 9q-50 158 -269 176q-56 4 -109 4h-317v-433q0 -109 42 -147q40 -35 148 -35h232q125 0 282 65q151 62 252 158q48 43 54.5 43t7.5 -6q0 -4 -1.5 -7t-3.5 -9l-90 -295h-1247q-61 0 -61 8zM393 1550q0 49 37 86t86 37t86 -36.5 t37 -86.5q0 -49 -37 -85.5t-86 -36.5t-86 36.5t-37 85.5zM815 1550q0 49 37 86t86 37t85.5 -36.5t36.5 -86.5q0 -49 -36.5 -85.5t-85.5 -36.5t-86 36.5t-37 85.5z" />
<glyph unicode="&#xcc;" horiz-adv-x="606" d="M-31 1679q0 41 26.5 70t61.5 29t60.5 -19.5t44.5 -38.5l290 -311h-104l-334 201q-45 29 -45 69zM55 4q0 2 33 16q59 31 77.5 78t18.5 123v909q-4 140 -80 160q-22 7 -22 13q0 16 24 16l197 -8l176 8q29 0 29 -16q0 -6 -11.5 -11.5t-25.5 -14.5q-49 -31 -49 -110v-946 q0 -156 100 -201q29 -14 29 -17t-23 -3h-456q-16 0 -17 4z" />
<glyph unicode="&#xcd;" horiz-adv-x="606" d="M55 4q0 2 33 16q59 31 77.5 78t18.5 123v909q-4 140 -80 160q-22 7 -22 13q0 16 24 16l197 -8l176 8q29 0 29 -16q0 -6 -11.5 -11.5t-25.5 -14.5q-49 -31 -49 -110v-946q0 -156 100 -201q29 -14 29 -17t-23 -3h-456q-16 0 -17 4zM129 1409l291 311q58 58 98.5 58t67 -29 t26.5 -70t-45 -69l-334 -201h-104z" />
<glyph unicode="&#xce;" horiz-adv-x="606" d="M-41 1409l252 352h160l253 -352h-96l-237 205l-234 -205h-98zM55 4q0 2 33 16q59 31 77.5 78t18.5 123v909q-4 140 -80 160q-22 7 -22 13q0 16 24 16l197 -8l176 8q29 0 29 -16q0 -6 -11.5 -11.5t-25.5 -14.5q-49 -31 -49 -110v-946q0 -156 100 -201q29 -14 29 -17 t-23 -3h-456q-16 0 -17 4z" />
<glyph unicode="&#xcf;" horiz-adv-x="606" d="M-43 1550q0 49 37 86t86 37t86 -36.5t37 -86.5q0 -49 -37 -85.5t-86 -36.5t-86 36.5t-37 85.5zM55 4q0 2 33 16q59 31 77.5 78t18.5 123v909q-4 140 -80 160q-22 7 -22 13q0 16 24 16l197 -8l176 8q29 0 29 -16q0 -6 -11.5 -11.5t-25.5 -14.5q-49 -31 -49 -110v-946 q0 -156 100 -201q29 -14 29 -17t-23 -3h-456q-16 0 -17 4zM379 1550q0 49 37 86t86 37t85.5 -36.5t36.5 -86.5q0 -49 -36.5 -85.5t-85.5 -36.5t-86 36.5t-37 85.5z" />
<glyph unicode="&#xd0;" horiz-adv-x="1630" d="M8 666v51h176v364q0 96 -18.5 135t-61.5 62q-34 15 -34 24t28 9h680q335 0 544 -178q218 -186 218 -474q0 -109 -44 -225.5t-133 -212.5t-222 -158.5t-314 -62.5h-753q-47 0 -47 5q0 7 44.5 20.5t78.5 69t34 169.5v402h-176zM422 213q0 -84 50 -123t206 -39t271.5 44 t186.5 127q130 154 130 466q0 571 -537 572h-307v-543h369v-51h-369v-453z" />
<glyph unicode="&#xd1;" horiz-adv-x="1554" d="M14 4q0 8 15 8q161 79 161 353v573q0 181 -19 238t-37.5 74.5t-48.5 30.5t-30 21t31 9h340l901 -920v490q0 169 -22.5 238t-53 110t-65.5 55t-35 25q0 10 27 10h335q20 0 21 -8q0 -8 -36 -26.5t-59.5 -53.5t-36.5 -81q-24 -85 -24 -204v-960q0 -31 -10 -31h-4 q-10 0 -20.5 12.5t-22.5 24.5l-1079 1177v-804q0 -130 22 -189q44 -114 133 -156q10 -4 17.5 -6t7.5 -6q0 -8 -45 -8h-344q-18 0 -19 4zM442 1454q27 161 140 217q40 19 92 19q51 0 91 -15.5t77 -32.5t70.5 -33t75.5 -16t63.5 32t35.5 69h76q-38 -169 -144 -223 q-40 -21 -88 -21q-68 0 -173 51q-39 18 -72 33.5t-69 15.5t-62.5 -28.5t-36.5 -67.5h-76z" />
<glyph unicode="&#xd2;" horiz-adv-x="1705" d="M78 655q0 158 64.5 287t172 220t247.5 140.5t291 49.5t290 -49.5t246.5 -140.5t172 -220t64.5 -287t-64.5 -286.5t-171.5 -220.5q-223 -189 -538 -189q-150 0 -290 49t-247.5 140.5t-172 220.5t-64.5 286zM352 655q0 -264 110 -436q58 -92 154.5 -150.5t235.5 -58.5 t235.5 58.5t154.5 150.5q110 174 110 436q0 261 -110 437q-58 92 -154.5 150t-235.5 58t-235.5 -58t-154.5 -150q-110 -174 -110 -437zM532 1679q0 41 26.5 70t61.5 29t60.5 -19.5t44.5 -38.5l290 -311h-104l-334 201q-45 29 -45 69z" />
<glyph unicode="&#xd3;" horiz-adv-x="1705" d="M78 655q0 158 64.5 287t172 220t247.5 140.5t291 49.5t290 -49.5t246.5 -140.5t172 -220t64.5 -287t-64.5 -286.5t-171.5 -220.5q-223 -189 -538 -189q-150 0 -290 49t-247.5 140.5t-172 220.5t-64.5 286zM352 655q0 -264 110 -436q58 -92 154.5 -150.5t235.5 -58.5 t235.5 58.5t154.5 150.5q110 174 110 436q0 261 -110 437q-58 92 -154.5 150t-235.5 58t-235.5 -58t-154.5 -150q-110 -174 -110 -437zM692 1409l291 311q58 58 98.5 58t67 -29t26.5 -70t-45 -69l-334 -201h-104z" />
<glyph unicode="&#xd4;" horiz-adv-x="1705" d="M78 655q0 158 64.5 287t172 220t247.5 140.5t291 49.5t290 -49.5t246.5 -140.5t172 -220t64.5 -287t-64.5 -286.5t-171.5 -220.5q-223 -189 -538 -189q-150 0 -290 49t-247.5 140.5t-172 220.5t-64.5 286zM352 655q0 -264 110 -436q58 -92 154.5 -150.5t235.5 -58.5 t235.5 58.5t154.5 150.5q110 174 110 436q0 261 -110 437q-58 92 -154.5 150t-235.5 58t-235.5 -58t-154.5 -150q-110 -174 -110 -437zM522 1409l252 352h160l253 -352h-96l-237 205l-234 -205h-98z" />
<glyph unicode="&#xd5;" horiz-adv-x="1705" d="M78 655q0 158 64.5 287t172 220t247.5 140.5t291 49.5t290 -49.5t246.5 -140.5t172 -220t64.5 -287t-64.5 -286.5t-171.5 -220.5q-223 -189 -538 -189q-150 0 -290 49t-247.5 140.5t-172 220.5t-64.5 286zM352 655q0 -264 110 -436q58 -92 154.5 -150.5t235.5 -58.5 t235.5 58.5t154.5 150.5q110 174 110 436q0 261 -110 437q-58 92 -154.5 150t-235.5 58t-235.5 -58t-154.5 -150q-110 -174 -110 -437zM493 1454q27 161 140 217q40 19 92 19q51 0 91 -15.5t77 -32.5t70.5 -33t75.5 -16t63.5 32t35.5 69h76q-38 -169 -144 -223 q-40 -21 -88 -21q-68 0 -173 51q-39 18 -72 33.5t-69 15.5t-62.5 -28.5t-36.5 -67.5h-76z" />
<glyph unicode="&#xd6;" horiz-adv-x="1705" d="M78 655q0 158 64.5 287t172 220t247.5 140.5t291 49.5t290 -49.5t246.5 -140.5t172 -220t64.5 -287t-64.5 -286.5t-171.5 -220.5q-223 -189 -538 -189q-150 0 -290 49t-247.5 140.5t-172 220.5t-64.5 286zM352 655q0 -264 110 -436q58 -92 154.5 -150.5t235.5 -58.5 t235.5 58.5t154.5 150.5q110 174 110 436q0 261 -110 437q-58 92 -154.5 150t-235.5 58t-235.5 -58t-154.5 -150q-110 -174 -110 -437zM520 1550q0 49 37 86t86 37t86 -36.5t37 -86.5q0 -49 -37 -85.5t-86 -36.5t-86 36.5t-37 85.5zM942 1550q0 49 37 86t86 37t85.5 -36.5 t36.5 -86.5q0 -49 -36.5 -85.5t-85.5 -36.5t-86 36.5t-37 85.5z" />
<glyph unicode="&#xd7;" horiz-adv-x="1228" d="M82 86l446 446l-446 447l84 86l448 -444l447 444l86 -86l-447 -447l447 -446l-86 -86l-447 446l-448 -446z" />
<glyph unicode="&#xd8;" horiz-adv-x="1705" d="M41 -131l266 287q-229 203 -229 499q0 158 64.5 287t172 220t247.5 140.5t290 49.5q238 0 451 -127l208 225h127l-260 -279q113 -92 180.5 -222t67.5 -291t-64.5 -289.5t-171.5 -220.5q-223 -189 -538 -189q-259 0 -469 139l-215 -229h-127zM352 655q0 -214 76 -370 l784 843q-126 172 -360 172q-139 0 -235.5 -58t-154.5 -150q-110 -174 -110 -437zM477 201q131 -191 375 -191q139 0 235.5 58.5t154.5 150.5q110 174 110 436q0 229 -88 394z" />
<glyph unicode="&#xd9;" horiz-adv-x="1593" d="M84 1312.5q0 6.5 31 6.5l196 -8l197 8q31 0 31 -6t-21 -15q-88 -22 -88 -168v-729q0 -185 124 -291q118 -100 312 -100q256 0 372 122t116 386v428q0 156 -38 233.5t-102 110.5q-26 10 -26 21q0 8 16 8l172 -8l168 8q31 0 31 -6t-27 -24.5t-51 -43t-45 -64.5 q-47 -93 -47 -235v-426q0 -297 -141.5 -429t-438.5 -132q-283 0 -433 81q-199 107 -199 359v731q0 147 -89 168q-20 8 -20 14.5zM534 1679q0 41 26.5 70t61.5 29t60.5 -19.5t44.5 -38.5l290 -311h-104l-334 201q-45 29 -45 69z" />
<glyph unicode="&#xda;" horiz-adv-x="1593" d="M84 1312.5q0 6.5 31 6.5l196 -8l197 8q31 0 31 -6t-21 -15q-88 -22 -88 -168v-729q0 -185 124 -291q118 -100 312 -100q256 0 372 122t116 386v428q0 156 -38 233.5t-102 110.5q-26 10 -26 21q0 8 16 8l172 -8l168 8q31 0 31 -6t-27 -24.5t-51 -43t-45 -64.5 q-47 -93 -47 -235v-426q0 -297 -141.5 -429t-438.5 -132q-283 0 -433 81q-199 107 -199 359v731q0 147 -89 168q-20 8 -20 14.5zM694 1409l291 311q58 58 98.5 58t67 -29t26.5 -70t-45 -69l-334 -201h-104z" />
<glyph unicode="&#xdb;" horiz-adv-x="1593" d="M84 1312.5q0 6.5 31 6.5l196 -8l197 8q31 0 31 -6t-21 -15q-88 -22 -88 -168v-729q0 -185 124 -291q118 -100 312 -100q256 0 372 122t116 386v428q0 156 -38 233.5t-102 110.5q-26 10 -26 21q0 8 16 8l172 -8l168 8q31 0 31 -6t-27 -24.5t-51 -43t-45 -64.5 q-47 -93 -47 -235v-426q0 -297 -141.5 -429t-438.5 -132q-283 0 -433 81q-199 107 -199 359v731q0 147 -89 168q-20 8 -20 14.5zM524 1409l252 352h160l253 -352h-96l-237 205l-234 -205h-98z" />
<glyph unicode="&#xdc;" horiz-adv-x="1593" d="M84 1312.5q0 6.5 31 6.5l196 -8l197 8q31 0 31 -6t-21 -15q-88 -22 -88 -168v-729q0 -185 124 -291q118 -100 312 -100q256 0 372 122t116 386v428q0 156 -38 233.5t-102 110.5q-26 10 -26 21q0 8 16 8l172 -8l168 8q31 0 31 -6t-27 -24.5t-51 -43t-45 -64.5 q-47 -93 -47 -235v-426q0 -297 -141.5 -429t-438.5 -132q-283 0 -433 81q-199 107 -199 359v731q0 147 -89 168q-20 8 -20 14.5zM522 1550q0 49 37 86t86 37t86 -36.5t37 -86.5q0 -49 -37 -85.5t-86 -36.5t-86 36.5t-37 85.5zM944 1550q0 49 37 86t86 37t85.5 -36.5 t36.5 -86.5q0 -49 -36.5 -85.5t-85.5 -36.5t-86 36.5t-37 85.5z" />
<glyph unicode="&#xdd;" horiz-adv-x="1478" d="M2 1307.5q0 11.5 29 11.5l266 -8q78 0 125 4t67.5 4t20.5 -12q0 -8 -26 -17q-70 -27 -70 -73q0 -41 17.5 -67t43.5 -60l352 -451l283 379q47 61 71.5 113.5t24.5 84.5q0 46 -51 72q-39 17 -39 24t29 7l147 -8l156 8q27 0 27 -12q0 -4 -16.5 -13.5t-37 -24.5t-50.5 -43 t-61 -60q-40 -41 -98 -111l-348 -469v-338q0 -123 12.5 -157t29 -49t35.5 -23.5t27.5 -10.5t8.5 -6q0 -8 -25 -8l-207 6l-206 -6q-25 0 -25 8q0 4 8 6t28 10t36 23.5t26 41.5q15 42 15 165v305l-416 545q-90 115 -156 164q-25 20 -39 27t-14 18.5zM602 1409l291 311 q58 58 98.5 58t67 -29t26.5 -70t-45 -69l-334 -201h-104z" />
<glyph unicode="&#xde;" horiz-adv-x="1402" d="M41 4q0 4 16.5 8t28.5 11q59 35 78.5 95t19.5 173v839q0 55 -19.5 100.5t-53.5 59.5t-33.5 21.5t28.5 7.5l197 -8l197 8q29 0 28.5 -6t-26.5 -21q-80 -31 -80 -162v-86h348q375 0 544 -172q66 -67 66 -154.5t-34.5 -140.5t-91 -93t-131 -65.5t-153.5 -42t-158 -23.5 t-178 -7t-212 10v-135q0 -76 23.5 -125t86.5 -69q23 -6 40.5 -10.5t17.5 -10.5t-17 -6h-516q-16 0 -16 4zM422 416q61 -19 207 -19q231 0 354 85t123 231t-140 221q-109 59 -282 59h-262v-577z" />
<glyph unicode="&#xdf;" horiz-adv-x="1290" d="M18 6q0 6 10.5 10t31 14.5t40 31t28.5 48.5q13 39 13 148v760q0 227 143 351q133 116 353.5 116t339.5 -101.5t119 -265.5q0 -130 -98 -217q-84 -74 -224 -96v-4q309 -27 404 -235q34 -74 34 -174.5t-31.5 -178.5t-88.5 -132q-120 -112 -312 -112q-84 0 -196 45l-19 140 q-2 12 -4 23t-2 22.5t7 11.5t12 -10q31 -122 116 -175q29 -18 83.5 -18t97.5 42t65 106q35 99 35 238.5t-19.5 201t-59.5 99.5q-75 71 -241 75q-51 2 -68.5 6t-17.5 23.5t21 19.5q11 0 41 -6l35 -2q183 0 201 208q5 58 5 127t-20.5 127t-55.5 97q-67 76 -179.5 76 t-188.5 -69.5t-76 -192.5v-926q0 -109 12 -143q21 -63 87 -97q10 -6 20 -8t10 -6t-6 -4h-432q-25 0 -25 6z" />
<glyph unicode="&#xe0;" horiz-adv-x="1251" d="M70 311q0 203 265 288q169 54 425 54h117v68q0 147 -72 241.5t-220 94.5t-236.5 -50.5t-143.5 -185.5q-6 -14 -9 -24.5t-6.5 -10.5t-11.5 23l-53 184q123 65 209 79q139 24 250.5 24t197.5 -17.5t154 -57.5q151 -89 151 -267v-576q0 -51 13 -93q16 -49 76 -71q6 -2 6 -8 t-27 -6h-221q-43 98 -49 209h-4q-59 -125 -151.5 -182.5t-227.5 -57.5q-178 0 -296 80q-136 92 -136 262zM280 1470q0 41 26.5 70t61.5 29t60.5 -19.5t44.5 -38.5l290 -311h-104l-334 201q-45 29 -45 69zM307 302.5q0 -78.5 19.5 -127t53.5 -82.5q73 -73 172 -73t159.5 43 t97.5 109q68 121 68 299v143h-121q-308 0 -410 -168q-39 -65 -39 -143.5z" />
<glyph unicode="&#xe1;" horiz-adv-x="1251" d="M70 311q0 203 265 288q169 54 425 54h117v68q0 147 -72 241.5t-220 94.5t-236.5 -50.5t-143.5 -185.5q-6 -14 -9 -24.5t-6.5 -10.5t-11.5 23l-53 184q123 65 209 79q139 24 250.5 24t197.5 -17.5t154 -57.5q151 -89 151 -267v-576q0 -51 13 -93q16 -49 76 -71q6 -2 6 -8 t-27 -6h-221q-43 98 -49 209h-4q-59 -125 -151.5 -182.5t-227.5 -57.5q-178 0 -296 80q-136 92 -136 262zM307 302.5q0 -78.5 19.5 -127t53.5 -82.5q73 -73 172 -73t159.5 43t97.5 109q68 121 68 299v143h-121q-308 0 -410 -168q-39 -65 -39 -143.5zM440 1200l291 311 q58 58 98.5 58t67 -29t26.5 -70t-45 -69l-334 -201h-104z" />
<glyph unicode="&#xe2;" horiz-adv-x="1251" d="M70 311q0 203 265 288q169 54 425 54h117v68q0 147 -72 241.5t-220 94.5t-236.5 -50.5t-143.5 -185.5q-6 -14 -9 -24.5t-6.5 -10.5t-11.5 23l-53 184q123 65 209 79q139 24 250.5 24t197.5 -17.5t154 -57.5q151 -89 151 -267v-576q0 -51 13 -93q16 -49 76 -71q6 -2 6 -8 t-27 -6h-221q-43 98 -49 209h-4q-59 -125 -151.5 -182.5t-227.5 -57.5q-178 0 -296 80q-136 92 -136 262zM270 1200l252 352h160l253 -352h-96l-237 205l-234 -205h-98zM307 302.5q0 -78.5 19.5 -127t53.5 -82.5q73 -73 172 -73t159.5 43t97.5 109q68 121 68 299v143h-121 q-308 0 -410 -168q-39 -65 -39 -143.5z" />
<glyph unicode="&#xe3;" horiz-adv-x="1251" d="M70 311q0 203 265 288q169 54 425 54h117v68q0 147 -72 241.5t-220 94.5t-236.5 -50.5t-143.5 -185.5q-6 -14 -9 -24.5t-6.5 -10.5t-11.5 23l-53 184q123 65 209 79q139 24 250.5 24t197.5 -17.5t154 -57.5q151 -89 151 -267v-576q0 -51 13 -93q16 -49 76 -71q6 -2 6 -8 t-27 -6h-221q-43 98 -49 209h-4q-59 -125 -151.5 -182.5t-227.5 -57.5q-178 0 -296 80q-136 92 -136 262zM241 1245q27 161 140 217q40 19 92 19q51 0 91 -15.5t77 -32.5t70.5 -33t75.5 -16t63.5 32t35.5 69h76q-38 -169 -144 -223q-40 -21 -88 -21q-68 0 -173 51 q-39 18 -72 33.5t-69 15.5t-62.5 -28.5t-36.5 -67.5h-76zM307 302.5q0 -78.5 19.5 -127t53.5 -82.5q73 -73 172 -73t159.5 43t97.5 109q68 121 68 299v143h-121q-308 0 -410 -168q-39 -65 -39 -143.5z" />
<glyph unicode="&#xe4;" horiz-adv-x="1251" d="M70 311q0 203 265 288q169 54 425 54h117v68q0 147 -72 241.5t-220 94.5t-236.5 -50.5t-143.5 -185.5q-6 -14 -9 -24.5t-6.5 -10.5t-11.5 23l-53 184q123 65 209 79q139 24 250.5 24t197.5 -17.5t154 -57.5q151 -89 151 -267v-576q0 -51 13 -93q16 -49 76 -71q6 -2 6 -8 t-27 -6h-221q-43 98 -49 209h-4q-59 -125 -151.5 -182.5t-227.5 -57.5q-178 0 -296 80q-136 92 -136 262zM268 1341q0 49 37 86t86 37t86 -36.5t37 -86.5q0 -49 -37 -85.5t-86 -36.5t-86 36.5t-37 85.5zM307 302.5q0 -78.5 19.5 -127t53.5 -82.5q73 -73 172 -73t159.5 43 t97.5 109q68 121 68 299v143h-121q-308 0 -410 -168q-39 -65 -39 -143.5zM690 1341q0 49 37 86t86 37t85.5 -36.5t36.5 -86.5q0 -49 -36.5 -85.5t-85.5 -36.5t-86 36.5t-37 85.5z" />
<glyph unicode="&#xe5;" horiz-adv-x="1251" d="M70 311q0 203 265 288q169 54 425 54h117v68q0 147 -72 241.5t-220 94.5t-236.5 -50.5t-143.5 -185.5q-6 -14 -9 -24.5t-6.5 -10.5t-11.5 23l-53 184q123 65 209 79q139 24 250.5 24t197.5 -17.5t154 -57.5q151 -89 151 -267v-576q0 -51 13 -93q16 -49 76 -71q6 -2 6 -8 t-27 -6h-221q-43 98 -49 209h-4q-59 -125 -151.5 -182.5t-227.5 -57.5q-178 0 -296 80q-136 92 -136 262zM307 302.5q0 -78.5 19.5 -127t53.5 -82.5q73 -73 172 -73t159.5 43t97.5 109q68 121 68 299v143h-121q-308 0 -410 -168q-39 -65 -39 -143.5zM391 1411q0 90 61 149 q63 62 150 62q89 0 149 -62q62 -64 62 -149q0 -88 -61.5 -149.5t-150.5 -61.5t-149.5 60.5t-60.5 150.5zM481 1409q0 -51 34.5 -85t86.5 -34q51 0 86 34t35 85t-35 87t-86 36t-86 -36t-35 -87z" />
<glyph unicode="&#xe6;" horiz-adv-x="2048" d="M55 311q0 202 265 288q168 54 425 54h117v68q0 150 -80 242q-81 94 -217.5 94t-231.5 -54.5t-140 -183.5q-8 -33 -17.5 -33t-15.5 23l-47 180q111 64 202 81q139 26 279.5 26t239 -36t184.5 -114q84 78 183 114t210 36t199 -26t162 -78q174 -121 192 -316h-885 q-6 -70 -6 -173t34 -202.5t89 -162.5q104 -118 277 -118t297 111t178 291h43q-49 -213 -193.5 -333t-358.5 -120t-338 80t-196 227q-95 -307 -418 -307q-177 0 -295 80q-137 93 -137 262zM293 302.5q0 -78.5 19.5 -127t53.5 -82.5q71 -73 171 -73t160.5 43t96.5 109 q68 122 68 299v143h-121q-307 0 -409 -168q-39 -65 -39 -143.5zM1087 715h619q0 152 -79 247t-230 95q-131 0 -216 -105q-74 -91 -94 -237z" />
<glyph unicode="&#xe7;" horiz-adv-x="1214" d="M68 532q0 245 173 405q172 159 433 159q88 0 194 -24q193 -46 262 -99l-47 -160q-18 -55 -24 -55q-4 0 -6 7t-13 39.5t-43 83t-77 87.5q-101 82 -248 82q-186 0 -283 -169q-84 -147 -84 -356q0 -257 127 -394q109 -118 268 -118q196 0 340 164q43 49 72 107l33 -33 q-84 -141 -194.5 -215t-259 -74t-259 42t-191.5 117q-173 160 -173 404zM444 -410l35 72q61 -25 120 -24q122 1 122 83q0 27 -28 50.5t-66 23.5t-62 -8l-23 16l89 197h83l-63 -131q42 6 68 6q176 0 176 -149q0 -90 -90 -134q-67 -34 -142 -34q-143 0 -219 32z" />
<glyph unicode="&#xe8;" horiz-adv-x="1290" d="M68 532q0 245 173 405q172 159 433 159q187 0 334 -104q170 -120 188 -316h-885q-6 -70 -6 -173t34 -202.5t89 -162.5q104 -118 277 -118t297 111t178 291h43q-49 -213 -193.5 -333t-355.5 -120q-261 0 -433 159q-173 160 -173 404zM319 715h619q0 152 -75 247t-234 95 q-131 0 -216 -105q-74 -91 -94 -237zM348 1470q0 41 26.5 70t61.5 29t60.5 -19.5t44.5 -38.5l290 -311h-104l-334 201q-45 29 -45 69z" />
<glyph unicode="&#xe9;" horiz-adv-x="1290" d="M68 532q0 245 173 405q172 159 433 159q187 0 334 -104q170 -120 188 -316h-885q-6 -70 -6 -173t34 -202.5t89 -162.5q104 -118 277 -118t297 111t178 291h43q-49 -213 -193.5 -333t-355.5 -120q-261 0 -433 159q-173 160 -173 404zM319 715h619q0 152 -75 247t-234 95 q-131 0 -216 -105q-74 -91 -94 -237zM508 1200l291 311q58 58 98.5 58t67 -29t26.5 -70t-45 -69l-334 -201h-104z" />
<glyph unicode="&#xea;" horiz-adv-x="1290" d="M68 532q0 245 173 405q172 159 433 159q187 0 334 -104q170 -120 188 -316h-885q-6 -70 -6 -173t34 -202.5t89 -162.5q104 -118 277 -118t297 111t178 291h43q-49 -213 -193.5 -333t-355.5 -120q-261 0 -433 159q-173 160 -173 404zM319 715h619q0 152 -75 247t-234 95 q-131 0 -216 -105q-74 -91 -94 -237zM338 1200l252 352h160l253 -352h-96l-237 205l-234 -205h-98z" />
<glyph unicode="&#xeb;" horiz-adv-x="1290" d="M68 532q0 245 173 405q172 159 433 159q187 0 334 -104q170 -120 188 -316h-885q-6 -70 -6 -173t34 -202.5t89 -162.5q104 -118 277 -118t297 111t178 291h43q-49 -213 -193.5 -333t-355.5 -120q-261 0 -433 159q-173 160 -173 404zM319 715h619q0 152 -75 247t-234 95 q-131 0 -216 -105q-74 -91 -94 -237zM336 1341q0 49 37 86t86 37t86 -36.5t37 -86.5q0 -49 -37 -85.5t-86 -36.5t-86 36.5t-37 85.5zM758 1341q0 49 37 86t86 37t85.5 -36.5t36.5 -86.5q0 -49 -36.5 -85.5t-85.5 -36.5t-86 36.5t-37 85.5z" />
<glyph unicode="&#xec;" horiz-adv-x="569" d="M-47 1470q0 41 26.5 70t61.5 29t60.5 -19.5t44.5 -38.5l290 -311h-104l-334 201q-45 29 -45 69zM51 0q0 14 21 18q72 14 90 79t18 161v596q0 69 -18 91q-32 41 -76 48q-12 2 -12 6t13 5.5t55 9.5q108 21 249 59v-815q0 -115 15 -154q27 -73 92 -86q20 -4 20 -18 q0 -6 -29 -6l-204 6l-205 -6q-29 0 -29 6z" />
<glyph unicode="&#xed;" horiz-adv-x="569" d="M51 0q0 14 21 18q72 14 90 79t18 161v596q0 69 -18 91q-32 41 -76 48q-12 2 -12 6t13 5.5t55 9.5q108 21 249 59v-815q0 -115 15 -154q27 -73 92 -86q20 -4 20 -18q0 -6 -29 -6l-204 6l-205 -6q-29 0 -29 6zM113 1200l291 311q58 58 98.5 58t67 -29t26.5 -70t-45 -69 l-334 -201h-104z" />
<glyph unicode="&#xee;" horiz-adv-x="569" d="M-57 1200l252 352h160l253 -352h-96l-237 205l-234 -205h-98zM51 0q0 14 21 18q72 14 90 79t18 161v596q0 69 -18 91q-32 41 -76 48q-12 2 -12 6t13 5.5t55 9.5q108 21 249 59v-815q0 -115 15 -154q27 -73 92 -86q20 -4 20 -18q0 -6 -29 -6l-204 6l-205 -6q-29 0 -29 6z " />
<glyph unicode="&#xef;" horiz-adv-x="569" d="M-59 1341q0 49 37 86t86 37t86 -36.5t37 -86.5q0 -49 -37 -85.5t-86 -36.5t-86 36.5t-37 85.5zM51 0q0 14 21 18q72 14 90 79t18 161v596q0 69 -18 91q-32 41 -76 48q-12 2 -12 6t13 5.5t55 9.5q108 21 249 59v-815q0 -115 15 -154q27 -73 92 -86q20 -4 20 -18 q0 -6 -29 -6l-204 6l-205 -6q-29 0 -29 6zM363 1341q0 49 37 86t86 37t85.5 -36.5t36.5 -86.5q0 -49 -36.5 -85.5t-85.5 -36.5t-86 36.5t-37 85.5z" />
<glyph unicode="&#xf0;" horiz-adv-x="1366" d="M76 532q0 245 173 405q81 75 191.5 117t222 42t218.5 -31l4 4q-82 104 -189 199l-393 -117l-16 57l352 107q-97 81 -209 147l37 23q156 -67 272 -142l457 136l16 -58l-409 -121q332 -223 444 -508q41 -104 42 -230t-45 -238.5t-127 -190.5q-170 -164 -435 -164 q-261 0 -433 159q-173 160 -173 404zM313 532q0 -353 183 -476q71 -48 186 -48q208 0 301 172q70 130 70 352q0 356 -183 477q-73 48 -188 48q-206 0 -299 -172q-70 -130 -70 -353z" />
<glyph unicode="&#xf1;" d="M18 4q0 8 31 13t52.5 25.5t32.5 52.5q18 52 18 163v508q0 92 -14.5 145.5t-54.5 70.5t-40 22q0 4 57 14q168 30 240 55v-295h4q41 149 125 223q108 95 293 95q295 0 399 -236q37 -84 37 -207v-395q-4 -138 11.5 -175.5t31.5 -48.5t41 -19.5t25 -14.5t-31 -6l-184 6 l-211 -6q-23 0 -23 8t19 10q55 6 82.5 57.5t27.5 188.5v397q0 159 -69 267q-78 122 -232 122q-171 0 -253 -160q-71 -137 -71 -376v-250q0 -115 12.5 -155t32 -60t48.5 -25.5t28.5 -14.5t-18.5 -9l-209 6l-219 -6q-18 0 -19 10zM303 1245q27 161 140 217q40 19 92 19 q51 0 91 -15.5t77 -32.5t70.5 -33t75.5 -16t63.5 32t35.5 69h76q-38 -169 -144 -223q-40 -21 -88 -21q-68 0 -173 51q-39 18 -72 33.5t-69 15.5t-62.5 -28.5t-36.5 -67.5h-76z" />
<glyph unicode="&#xf2;" horiz-adv-x="1366" d="M76 532q0 245 173 405q172 159 433 159q263 0 435 -159q173 -160 173 -405q0 -244 -173 -404q-172 -159 -435 -159q-261 0 -433 159q-173 160 -173 404zM313 532q0 -353 183 -476q71 -48 186 -48q208 0 301 172q70 130 70 352q0 356 -183 477q-73 48 -188 48 q-206 0 -299 -172q-70 -130 -70 -353zM362 1470q0 41 26.5 70t61.5 29t60.5 -19.5t44.5 -38.5l290 -311h-104l-334 201q-45 29 -45 69z" />
<glyph unicode="&#xf3;" horiz-adv-x="1366" d="M76 532q0 245 173 405q172 159 433 159q263 0 435 -159q173 -160 173 -405q0 -244 -173 -404q-172 -159 -435 -159q-261 0 -433 159q-173 160 -173 404zM313 532q0 -353 183 -476q71 -48 186 -48q208 0 301 172q70 130 70 352q0 356 -183 477q-73 48 -188 48 q-206 0 -299 -172q-70 -130 -70 -353zM522 1200l291 311q58 58 98.5 58t67 -29t26.5 -70t-45 -69l-334 -201h-104z" />
<glyph unicode="&#xf4;" horiz-adv-x="1366" d="M76 532q0 245 173 405q172 159 433 159q263 0 435 -159q173 -160 173 -405q0 -244 -173 -404q-172 -159 -435 -159q-261 0 -433 159q-173 160 -173 404zM313 532q0 -353 183 -476q71 -48 186 -48q208 0 301 172q70 130 70 352q0 356 -183 477q-73 48 -188 48 q-206 0 -299 -172q-70 -130 -70 -353zM352 1200l252 352h160l253 -352h-96l-237 205l-234 -205h-98z" />
<glyph unicode="&#xf5;" horiz-adv-x="1366" d="M76 532q0 245 173 405q172 159 433 159q263 0 435 -159q173 -160 173 -405q0 -244 -173 -404q-172 -159 -435 -159q-261 0 -433 159q-173 160 -173 404zM313 532q0 -353 183 -476q71 -48 186 -48q208 0 301 172q70 130 70 352q0 356 -183 477q-73 48 -188 48 q-206 0 -299 -172q-70 -130 -70 -353zM323 1245q27 161 140 217q40 19 92 19q51 0 91 -15.5t77 -32.5t70.5 -33t75.5 -16t63.5 32t35.5 69h76q-38 -169 -144 -223q-40 -21 -88 -21q-68 0 -173 51q-39 18 -72 33.5t-69 15.5t-62.5 -28.5t-36.5 -67.5h-76z" />
<glyph unicode="&#xf6;" horiz-adv-x="1366" d="M76 532q0 245 173 405q172 159 433 159q263 0 435 -159q173 -160 173 -405q0 -244 -173 -404q-172 -159 -435 -159q-261 0 -433 159q-173 160 -173 404zM313 532q0 -353 183 -476q71 -48 186 -48q208 0 301 172q70 130 70 352q0 356 -183 477q-73 48 -188 48 q-206 0 -299 -172q-70 -130 -70 -353zM350 1341q0 49 37 86t86 37t86 -36.5t37 -86.5q0 -49 -37 -85.5t-86 -36.5t-86 36.5t-37 85.5zM772 1341q0 49 37 86t86 37t85.5 -36.5t36.5 -86.5q0 -49 -36.5 -85.5t-85.5 -36.5t-86 36.5t-37 85.5z" />
<glyph unicode="&#xf7;" horiz-adv-x="1228" d="M82 471h1065v123h-1065v-123zM492 106q0 49 36.5 86t85.5 37t86 -36.5t37 -86.5q0 -49 -37 -85.5t-86 -36.5t-85.5 36.5t-36.5 85.5zM492 958q0 49 36.5 86t85.5 37t86 -36.5t37 -86.5q0 -49 -37 -85.5t-86 -36.5t-85.5 36.5t-36.5 85.5z" />
<glyph unicode="&#xf8;" horiz-adv-x="1366" d="M-10 -98l243 241q-157 153 -157 389q0 245 173 405q172 159 433 159q222 0 385 -119l188 188h115l-240 -239q160 -156 160 -394q0 -244 -173 -404q-172 -159 -415.5 -159t-406.5 123l-191 -190h-114zM313 532q0 -161 37 -272l629 629q-91 168 -297 168t-299 -172 q-70 -130 -70 -353zM385 180q90 -172 297 -172q208 0 301 172q70 130 70 352q0 164 -39 277z" />
<glyph unicode="&#xf9;" d="M43 1006q0 4 51 11q101 14 256 56v-663q0 -158 69 -264q81 -126 232 -126q150 0 238 126q78 110 78 268v411q0 123 -34 154q-11 10 -32 20t-20.5 12.5t12.5 5.5l20 5q166 28 265 51v-813q0 -127 23.5 -178t88.5 -68q12 -2 13 -6q0 -8 -27 -8h-244q-45 101 -53 236h-4 q-51 -137 -145.5 -202t-230 -65t-217 22.5t-135.5 74.5q-108 106 -108 346v413q0 90 -9 114t-21.5 33t-29.5 15q-36 13 -36 19zM330 1470q0 41 26.5 70t61.5 29t60.5 -19.5t44.5 -38.5l290 -311h-104l-334 201q-45 29 -45 69z" />
<glyph unicode="&#xfa;" d="M43 1006q0 4 51 11q101 14 256 56v-663q0 -158 69 -264q81 -126 232 -126q150 0 238 126q78 110 78 268v411q0 123 -34 154q-11 10 -32 20t-20.5 12.5t12.5 5.5l20 5q166 28 265 51v-813q0 -127 23.5 -178t88.5 -68q12 -2 13 -6q0 -8 -27 -8h-244q-45 101 -53 236h-4 q-51 -137 -145.5 -202t-230 -65t-217 22.5t-135.5 74.5q-108 106 -108 346v413q0 90 -9 114t-21.5 33t-29.5 15q-36 13 -36 19zM490 1200l291 311q58 58 98.5 58t67 -29t26.5 -70t-45 -69l-334 -201h-104z" />
<glyph unicode="&#xfb;" d="M43 1006q0 4 51 11q101 14 256 56v-663q0 -158 69 -264q81 -126 232 -126q150 0 238 126q78 110 78 268v411q0 123 -34 154q-11 10 -32 20t-20.5 12.5t12.5 5.5l20 5q166 28 265 51v-813q0 -127 23.5 -178t88.5 -68q12 -2 13 -6q0 -8 -27 -8h-244q-45 101 -53 236h-4 q-51 -137 -145.5 -202t-230 -65t-217 22.5t-135.5 74.5q-108 106 -108 346v413q0 90 -9 114t-21.5 33t-29.5 15q-36 13 -36 19zM320 1200l252 352h160l253 -352h-96l-237 205l-234 -205h-98z" />
<glyph unicode="&#xfc;" d="M43 1006q0 4 51 11q101 14 256 56v-663q0 -158 69 -264q81 -126 232 -126q150 0 238 126q78 110 78 268v411q0 123 -34 154q-11 10 -32 20t-20.5 12.5t12.5 5.5l20 5q166 28 265 51v-813q0 -127 23.5 -178t88.5 -68q12 -2 13 -6q0 -8 -27 -8h-244q-45 101 -53 236h-4 q-51 -137 -145.5 -202t-230 -65t-217 22.5t-135.5 74.5q-108 106 -108 346v413q0 90 -9 114t-21.5 33t-29.5 15q-36 13 -36 19zM318 1341q0 49 37 86t86 37t86 -36.5t37 -86.5q0 -49 -37 -85.5t-86 -36.5t-86 36.5t-37 85.5zM740 1341q0 49 37 86t86 37t85.5 -36.5 t36.5 -86.5q0 -49 -36.5 -85.5t-85.5 -36.5t-86 36.5t-37 85.5z" />
<glyph unicode="&#xfd;" d="M18 1065q0 8 29 8l199 -8l190 8q29 0 29 -7t-20.5 -14t-45 -20.5t-24.5 -49t7 -61.5t18 -51q28 -70 38 -86l303 -563l183 350q127 254 127 349q0 97 -93 124q-18 6 -18 21q0 8 25 8l161 -8l158 8q25 0 25 -8t-19 -20t-51.5 -53.5t-64.5 -88.5q-53 -77 -105 -170 l-371 -715q-130 -255 -247 -344q-114 -88 -316 -80l64 175q6 18 10 32.5t9 14.5t5 -9q27 -73 150 -73q93 0 151 80q51 72 51 170q0 80 -108 303l-305 612q-25 47 -52.5 87t-80.5 67q-10 6 -11 12zM502 1200l291 311q58 58 98.5 58t67 -29t26.5 -70t-45 -69l-334 -201h-104z " />
<glyph unicode="&#xfe;" horiz-adv-x="1366" d="M29 -397q0 6 5 7t25.5 6t38 18.5t26.5 41.5q15 45 15 185v1376q0 134 -71 152q-8 4 -18.5 7t-10.5 7q0 10 10 12t51 10q119 23 250 60v-625h4q104 236 408 236q201 0 358 -148q76 -71 124 -176.5t48 -227t-43 -222.5t-115.5 -180t-169 -126t-190.5 -47t-154.5 14.5 t-107.5 40.5q-64 34 -162 132v-215q0 -293 86 -318q47 -12 47 -20v-4q0 -4 -37 -5l-200 5l-164 -5q-53 0 -53 7v2zM340 532q0 -286 128 -418q92 -94 230 -94q228 0 320 250q37 101 37 262q0 288 -129 418q-91 94 -228 94q-229 0 -321 -250q-37 -100 -37 -262z" />
<glyph unicode="&#xff;" d="M18 1065q0 8 29 8l199 -8l190 8q29 0 29 -7t-20.5 -14t-45 -20.5t-24.5 -49t7 -61.5t18 -51q28 -70 38 -86l303 -563l183 350q127 254 127 349q0 97 -93 124q-18 6 -18 21q0 8 25 8l161 -8l158 8q25 0 25 -8t-19 -20t-51.5 -53.5t-64.5 -88.5q-53 -77 -105 -170 l-371 -715q-130 -255 -247 -344q-114 -88 -316 -80l64 175q6 18 10 32.5t9 14.5t5 -9q27 -73 150 -73q93 0 151 80q51 72 51 170q0 80 -108 303l-305 612q-25 47 -52.5 87t-80.5 67q-10 6 -11 12zM330 1341q0 49 37 86t86 37t86 -36.5t37 -86.5q0 -49 -37 -85.5t-86 -36.5 t-86 36.5t-37 85.5zM752 1341q0 49 37 86t86 37t85.5 -36.5t36.5 -86.5q0 -49 -36.5 -85.5t-85.5 -36.5t-86 36.5t-37 85.5z" />
<glyph unicode="&#x152;" horiz-adv-x="2048" d="M70 655q0 308 177 485q187 187 548 187l321 -16h737l60 -256q14 -49 14 -59.5t-6 -10.5t-18 21q-54 128 -123 186q-80 68 -209 68h-348v-543h204q211 0 283 90q21 27 36 52.5t19 25.5q9 0 9 -31v-334q0 -41 -9 -41q-4 0 -8 10.5t-16 37t-37 56t-62 47.5q-70 36 -208 36 h-211v-371q-4 -76 0 -124t25 -75q37 -45 169 -45t211.5 19.5t139.5 51.5q84 44 186 146q16 16 29.5 32.5t18.5 16.5t5 -5t-4 -17l-90 -295h-797q-39 0 -81 -3t-89 -6q-110 -7 -255.5 -7t-271.5 57t-203 151q-146 180 -146 463zM307 655q0 -287 82 -435q102 -185 340 -185 q102 0 159.5 10t85 38t33 75t5.5 121v792q0 66 -5.5 106t-30 62.5t-74.5 29.5t-140 7q-260 0 -373 -210q-82 -152 -82 -411z" />
<glyph unicode="&#x153;" horiz-adv-x="2048" d="M53 532q0 245 158 405q157 159 401 159q152 0 254.5 -54.5t171.5 -164.5q63 98 168 158.5t211.5 60.5t194.5 -26t162 -78q170 -120 188 -316h-809q-8 -70 -8 -152.5t19.5 -174t64.5 -163.5q103 -166 295 -166q132 0 250 111q123 115 168 287h43q-49 -213 -193.5 -331 t-355.5 -118q-123 4 -226.5 59.5t-169.5 159.5q-86 -121 -188 -170t-232.5 -49t-232.5 42t-176 117q-158 160 -158 404zM291 532q0 -227 50 -346q74 -178 271 -178q277 0 312 347q10 93 10 177q0 225 -50 348q-74 177 -272 177q-279 0 -312 -347q-9 -94 -9 -178zM1159 715 h545q0 228 -137 311q-51 31 -120.5 31t-118 -26.5t-83.5 -72.5q-69 -92 -86 -243z" />
<glyph unicode="&#x178;" horiz-adv-x="1478" d="M2 1307.5q0 11.5 29 11.5l266 -8q78 0 125 4t67.5 4t20.5 -12q0 -8 -26 -17q-70 -27 -70 -73q0 -41 17.5 -67t43.5 -60l352 -451l283 379q47 61 71.5 113.5t24.5 84.5q0 46 -51 72q-39 17 -39 24t29 7l147 -8l156 8q27 0 27 -12q0 -4 -16.5 -13.5t-37 -24.5t-50.5 -43 t-61 -60q-40 -41 -98 -111l-348 -469v-338q0 -123 12.5 -157t29 -49t35.5 -23.5t27.5 -10.5t8.5 -6q0 -8 -25 -8l-207 6l-206 -6q-25 0 -25 8q0 4 8 6t28 10t36 23.5t26 41.5q15 42 15 165v305l-416 545q-90 115 -156 164q-25 20 -39 27t-14 18.5zM430 1550q0 49 37 86 t86 37t86 -36.5t37 -86.5q0 -49 -37 -85.5t-86 -36.5t-86 36.5t-37 85.5zM852 1550q0 49 37 86t86 37t85.5 -36.5t36.5 -86.5q0 -49 -36.5 -85.5t-85.5 -36.5t-86 36.5t-37 85.5z" />
<glyph unicode="&#x2c6;" horiz-adv-x="569" d="M-47 1200l252 352h160l253 -352h-96l-237 205l-234 -205h-98z" />
<glyph unicode="&#x2dc;" horiz-adv-x="569" d="M-76 1245q27 161 140 217q40 19 92 19q51 0 91 -15.5t77 -32.5t70.5 -33t75.5 -16t63.5 32t35.5 69h76q-38 -169 -144 -223q-40 -21 -88 -21q-68 0 -173 51q-39 18 -72 33.5t-69 15.5t-62.5 -28.5t-36.5 -67.5h-76z" />
<glyph unicode="&#x2000;" horiz-adv-x="915" />
<glyph unicode="&#x2001;" horiz-adv-x="1831" />
<glyph unicode="&#x2002;" horiz-adv-x="915" />
<glyph unicode="&#x2003;" horiz-adv-x="1831" />
<glyph unicode="&#x2004;" horiz-adv-x="610" />
<glyph unicode="&#x2005;" horiz-adv-x="457" />
<glyph unicode="&#x2006;" horiz-adv-x="305" />
<glyph unicode="&#x2007;" horiz-adv-x="305" />
<glyph unicode="&#x2008;" horiz-adv-x="228" />
<glyph unicode="&#x2009;" horiz-adv-x="366" />
<glyph unicode="&#x200a;" horiz-adv-x="101" />
<glyph unicode="&#x2010;" horiz-adv-x="530" d="M4 451l39 163h483l-37 -163h-485z" />
<glyph unicode="&#x2011;" horiz-adv-x="530" d="M4 451l39 163h483l-37 -163h-485z" />
<glyph unicode="&#x2012;" horiz-adv-x="530" d="M4 451l39 163h483l-37 -163h-485z" />
<glyph unicode="&#x2013;" horiz-adv-x="1024" d="M0 471v123h1024v-123h-1024z" />
<glyph unicode="&#x2014;" horiz-adv-x="2048" d="M0 471v123h2048v-123h-2048z" />
<glyph unicode="&#x2018;" horiz-adv-x="303" d="M37 999q0 61 12 108.5t36 88.5q42 72 126 156l22 -19q-110 -110 -106 -241q8 2 35 2t64.5 -32t37.5 -83t-27.5 -84t-81.5 -33t-86 38t-32 99z" />
<glyph unicode="&#x2019;" horiz-adv-x="303" d="M39 1235q0 51 27.5 84t81.5 33t86 -38t32 -99.5t-12 -108.5t-36 -88q-39 -69 -126 -156l-22 19q110 110 106 241q-8 -2 -34.5 -2t-64.5 32t-38 83z" />
<glyph unicode="&#x201a;" horiz-adv-x="303" d="M37 98q0 51 27.5 84t81.5 33t86 -38t32 -99t-12 -108.5t-36 -88.5q-41 -72 -126 -155l-22 18q109 109 106 242q-8 -2 -34.5 -2t-64.5 31.5t-38 82.5z" />
<glyph unicode="&#x201c;" horiz-adv-x="606" d="M37 999q0 61 12 108.5t36 88.5q42 72 126 156l22 -19q-110 -110 -106 -241q8 2 35 2t64.5 -32t37.5 -83t-27.5 -84t-81.5 -33t-86 38t-32 99zM340 999q0 61 12.5 108.5t35.5 88.5q41 71 126 156l23 -19q-110 -110 -107 -241q8 2 35 2t64.5 -32t37.5 -83t-27.5 -84 t-81.5 -33t-86 38t-32 99z" />
<glyph unicode="&#x201d;" horiz-adv-x="606" d="M39 1235q0 51 27.5 84t81.5 33t86 -38t32 -99.5t-12 -108.5t-36 -88q-39 -69 -126 -156l-22 19q110 110 106 241q-8 -2 -34.5 -2t-64.5 32t-38 83zM342 1235q0 51 27.5 84t82 33t86 -38t31.5 -99.5t-12 -108.5t-35 -88q-40 -69 -127 -156l-22 19q110 110 106 241 q-8 -2 -34.5 -2t-64.5 32t-38 83z" />
<glyph unicode="&#x201e;" horiz-adv-x="606" d="M39 98q0 51 27.5 84t81.5 33t86 -38t32 -99t-12 -108.5t-36 -88.5q-41 -72 -126 -155l-22 18q109 109 106 242q-8 -2 -34.5 -2t-64.5 31.5t-38 82.5zM342 98q0 51 27.5 84t82 33t86 -38t31.5 -99t-12 -108.5t-35 -88.5q-42 -72 -127 -155l-22 18q109 109 106 242 q-8 -2 -34.5 -2t-64.5 31.5t-38 82.5z" />
<glyph unicode="&#x2022;" horiz-adv-x="1024" d="M184 655q0 137 96 233q95 95 232 95t232 -95q96 -96 96 -233q0 -136 -96 -232q-95 -95 -232 -95t-232 95q-96 96 -96 232z" />
<glyph unicode="&#x2026;" horiz-adv-x="2048" d="M219 92q0 49 37 86t86 37t86 -37t37 -86t-37 -86t-86 -37t-86 37t-37 86zM901 92q0 49 37 86t86 37t86 -37t37 -86t-37 -86t-86 -37t-86 37t-37 86zM1583 92q0 49 37 86t86 37t86 -37t37 -86t-37 -86t-86 -37t-86 37t-37 86z" />
<glyph unicode="&#x202f;" horiz-adv-x="366" />
<glyph unicode="&#x2039;" horiz-adv-x="796" d="M203 535q165 230 266 393q45 -61 121 -84q-180 -223 -228 -309q19 -34 84 -127q120 -170 146 -183q-94 -48 -131 -88q-53 109 -121 205t-137 193z" />
<glyph unicode="&#x203a;" horiz-adv-x="796" d="M205 225q27 13 90 104q127 183 139 206q-42 82 -122.5 180t-104.5 129q76 23 121 84q110 -175 266 -393q-70 -96 -137.5 -192.5t-120.5 -205.5q-37 40 -131 88z" />
<glyph unicode="&#x205f;" horiz-adv-x="457" />
<glyph unicode="&#x2122;" horiz-adv-x="2027" d="M63 1130v181h707v-181h-41q-14 57 -44 99.5t-93 42.5h-103v-637q0 -75 11 -86q12 -15 92 -27v-39h-350v39q79 12 89.5 23.5t11.5 32t1 57.5v637h-100q-66 0 -95.5 -42t-44.5 -100h-41zM860 1272v39h248l315 -633l328 633h211v-39q-68 -4 -91.5 -33t-23.5 -82v-522 q0 -76 11 -87q13 -14 92 -26v-39h-348v39q78 11 88 23q12 14 12 90v475h-4l-312 -631h-22l-305 627h-4v-449q0 -68 19.5 -98.5t88.5 -36.5v-39h-268v39q68 6 87 37t19 98v510q-18 47 -57 76t-84 29z" />
<glyph unicode="&#xe000;" horiz-adv-x="1075" d="M0 0v1075h1075v-1075h-1075z" />
<glyph unicode="&#xfb01;" horiz-adv-x="1251" d="M37 948l26 66h152v65q0 219 153 320q131 86 390 86l-58 -150q-11 -39 -21.5 -39t-23.5 17q-60 98 -124 98t-84.5 -40t-20.5 -116v-241h201l-19 -66h-182v-690q0 -110 12 -144q23 -61 94 -100q21 0 21 -7t-29 -7h-407q-29 0 -29 5t10.5 7t32 11t40.5 30t29 51 q15 40 15 154v690h-178zM733 0q0 14 21 18q72 14 90 79t18 161v596q0 69 -18 91q-32 41 -76 48q-12 2 -12 6t13 5.5t55 9.5q108 21 249 59v-815q0 -115 15 -154q27 -73 92 -86q20 -4 20 -18q0 -6 -29 -6l-204 6l-205 -6q-29 0 -29 6zM829 1327q0 49 36 86t87 37t86 -37 t35 -86t-35 -85t-86 -36t-87 36t-36 85z" />
<glyph unicode="&#xfb02;" horiz-adv-x="1251" d="M37 948l26 66h152v65q0 219 153 320q131 86 390 86l-58 -150q-11 -39 -21.5 -39t-23.5 17q-60 98 -124 98t-84.5 -40t-20.5 -116v-241h201l-19 -66h-182v-690q0 -110 12 -144q23 -61 94 -100q21 0 21 -7t-29 -7h-407q-29 0 -29 5t10.5 7t32 11t40.5 30t29 51 q15 40 15 154v690h-178zM733 0q0 6 27.5 18t51.5 35t35 51q15 39 15 154v979q0 76 -15.5 109.5t-53.5 42.5q-31 6 -31 15t10 11t52 10q118 23 249 60v-1227q0 -112 15 -149q27 -69 102 -97q12 -6 12 -12t-13 -6t-59.5 3t-162.5 3l-213 -6q-20 0 -21 6z" />
</font>
</defs>
</svg>
