<?xml version="1.0" standalone="no"?>
<!DOCTYPE svg PUBLIC "-//W3C//DTD SVG 1.1//EN" "http://www.w3.org/Graphics/SVG/1.1/DTD/svg11.dtd" >
<svg xmlns="http://www.w3.org/2000/svg">
<metadata></metadata>
<defs>
<font id="AmericanaRegular" horiz-adv-x="1327" >
<font-face units-per-em="2048" ascent="1638" descent="-410" />
<missing-glyph horiz-adv-x="663" />
<glyph horiz-adv-x="0" />
<glyph horiz-adv-x="2048" />
<glyph unicode=" "  horiz-adv-x="663" />
<glyph unicode="&#x09;" horiz-adv-x="663" />
<glyph unicode="&#xa0;" horiz-adv-x="663" />
<glyph unicode="!" horiz-adv-x="569" d="M180 1049.5q0 65.5 2 109t14 86.5q28 107 89 107q37 0 57 -32t32 -75q15 -58 15 -127t-5 -124.5t-14 -111.5q-23 -158 -31.5 -209.5t-15 -106t-10.5 -108.5q-8 -110 -8 -229h-41q0 259 -35 453q-49 302 -49 367.5zM184 74q0 41 29 70.5t72 29.5t70.5 -29.5t27.5 -70.5 t-27.5 -70t-70.5 -29t-72 29t-29 70z" />
<glyph unicode="&#x22;" horiz-adv-x="681" d="M123 1186q-18 166 67 166q88 0 70 -166l-35 -418q-2 -12 -6 -37.5t-28 -25.5t-27.5 25.5t-5.5 37.5zM418 1186q-18 166 67 166q88 0 70 -166l-35 -418q-2 -12 -6 -37.5t-28 -25.5t-27.5 25.5t-5.5 37.5z" />
<glyph unicode="#" d="M176 403v91h254l39 272h-240v90h252l56 404h100l-57 -404h245l56 404h100l-57 -404h225v-90h-238l-39 -272h224v-91h-236l-55 -403h-100l57 403h-246l-55 -403h-101l58 403h-242zM528 494h246l37 272h-244z" />
<glyph unicode="$" d="M164 160l65 194q6 14 13 15q6 0 16 -35t51 -83t97 -83q114 -72 247 -72q234 0 315 131q31 49 31 120t-39.5 110t-99 60.5t-128 32.5t-135.5 27t-134.5 39t-116.5 58q-106 76 -106 215q0 154 138 249q118 82 281 87v188h70v-188q193 -12 373 -84l-43 -146q-9 -37 -27 -37 q-8 0 -24 46t-56.5 79t-87.5 53q-72 30 -188 38q-110 4 -190 -54q-83 -62 -83 -145.5t29 -126.5t75 -66.5t102.5 -35t119 -22.5t140 -25.5t143.5 -44.5q151 -71 151 -234q0 -150 -145 -264q-128 -102 -289 -111v-197h-70v197q-209 0 -383 61q-61 21 -112 54z" />
<glyph unicode="%" horiz-adv-x="1366" d="M43 894q0 63 18.5 129.5t55.5 118.5q84 118 223 118q136 0 216 -109q71 -97 71 -242q0 -149 -70 -255q-76 -113 -221 -113q-135 0 -217 115q-76 105 -76 238zM166 899q0 -319 170 -319q149 0 164 208q4 56 4 103t-3 103.5t-19 106.5q-40 120 -146 120t-146 -117 q-24 -73 -24 -205zM250 -31l786 1321h90l-786 -1321h-90zM737 352q0 64 18.5 130.5t55.5 118.5q84 118 223 118q136 0 216 -109q71 -97 71 -241q0 -150 -69 -255q-75 -114 -222 -114q-135 0 -217 114q-76 106 -76 238zM860 358q0 -319 170 -319q149 0 164 209q4 55 4 102 t-3 103.5t-19 106.5q-40 120 -146 120t-146 -117q-24 -73 -24 -205z" />
<glyph unicode="&#x26;" horiz-adv-x="1441" d="M102 305q0 167 210 294q57 34 110 60q-53 53 -88 127t-35 148t28.5 133t74.5 102q99 91 230.5 91t211.5 -57.5t80 -176.5q0 -177 -205 -284q-57 -29 -113 -52q213 -231 463 -420q49 73 49 163.5t-45 140t-121 63.5q-14 2 -14 10q0 10 18 10h320q7 -90 -46 -228 q-49 -123 -112 -204q98 -80 178 -129t177 -67q27 -2 26 -17q0 -10 -8 -11t-18 -1h-297q-21 0 -85.5 51t-76.5 60q-190 -152 -426 -152q-183 -4 -324 78q-162 94 -162 268zM279 362q0 -143 119 -248q119 -104 259 -104q169 0 316 131q-321 269 -522 482q-172 -97 -172 -261z M422 1030q0 -82 48 -163t105 -140q89 23 151 105q58 78 58 196q0 66 -48 125t-134 57t-133 -50t-47 -130z" />
<glyph unicode="'" horiz-adv-x="454" d="M158 1186q-18 166 67 166q88 0 70 -166l-35 -418q-2 -12 -6 -37.5t-28 -25.5t-27.5 25.5t-5.5 37.5z" />
<glyph unicode="(" horiz-adv-x="530" d="M80 485q0 338 192 665q60 101 131 202h48q-220 -311 -220 -867q0 -219 57 -467q67 -284 173 -407h-47q-25 27 -79 109.5t-111 201.5q-144 297 -144 563z" />
<glyph unicode=")" horiz-adv-x="530" d="M70 -389q106 127 172 407q57 248 57 467q0 550 -219 867h47q237 -329 300 -628q24 -114 24 -253.5t-43 -284.5t-100.5 -264t-112 -201.5t-78.5 -109.5h-47z" />
<glyph unicode="*" horiz-adv-x="909" d="M109 969l53 174q130 -126 270 -156q-6 84 -16 165t-45 159h176q-60 -141 -64 -324q133 33 256 156l60 -178q-139 0 -197.5 -11.5t-101.5 -23.5q106 -142 227 -215l-135 -125q-53 170 -135 307q-45 -70 -84 -145.5t-47 -161.5l-144 129q140 76 236 211q-147 43 -309 39z " />
<glyph unicode="+" horiz-adv-x="1228" d="M84 473v119h471v473h119v-473h471v-119h-471v-473h-119v473h-471z" />
<glyph unicode="," horiz-adv-x="663" d="M225 66q0 45 25.5 76.5t79 31.5t81 -40t27.5 -96t-19.5 -104.5t-46.5 -89.5q-62 -92 -98 -92q-10 0 -10 8t20 35q66 86 66 180q-125 0 -125 91z" />
<glyph unicode="-" horiz-adv-x="530" d="M12 473l37 119h469l-37 -119h-469z" />
<glyph unicode="." horiz-adv-x="663" d="M231 74q0 41 29 70.5t72 29.5t70.5 -29.5t27.5 -70.5t-27.5 -70t-70.5 -29t-72 29t-29 70z" />
<glyph unicode="/" horiz-adv-x="569" d="M-41 -41l535 1393h114l-534 -1393h-115z" />
<glyph unicode="0" d="M35 631q0 288 177 474q176 185 450 185q271 0 450 -185q177 -184 178 -474q0 -292 -178 -476q-180 -186 -450 -186q-273 0 -450 186t-177 476zM248 629q0 -255 64 -395q98 -214 352 -214q251 0 349 214q64 140 64 395t-64 395q-98 215 -349 215q-143 0 -226.5 -61.5 t-125.5 -153.5q-64 -140 -64 -395z" />
<glyph unicode="1" d="M420 5q0 9 39 24.5t61.5 35t35.5 56.5q26 74 26 252v600q0 116 -15.5 149t-36 45.5t-52.5 19.5t-32 13t10.5 10t26.5 11l262 90v-940q0 -279 63 -323q21 -15 52 -25t29 -19q0 -8 -37 -8l-188 4l-203 -4q-41 0 -41 9z" />
<glyph unicode="2" d="M72 0q0 16 24 76q65 169 235 286q103 72 207.5 120t175 96.5t114.5 102.5q83 102 83 249.5t-94 228t-230.5 80.5t-241.5 -64.5t-165 -168.5q-4 -8 -14 -8.5t-10 8.5l-47 178q210 106 495 106q198 0 348 -98q172 -111 172 -301q0 -137 -106 -245q-92 -94 -236 -142 l-213 -74q-144 -51 -237 -142q-86 -84 -86 -134h436q266 0 376 86q42 33 68 67q10 10 15 10q12 0 12 -14q0 -8 -3 -16t-9 -29l-84 -258h-985z" />
<glyph unicode="3" d="M39 106l49 148q23 68 37 68q11 0 23.5 -54.5t59 -104.5t106.5 -82q116 -61 268 -61q167 0 280 77q129 89 129 243q0 149 -123 236q-110 79 -266 79q-78 0 -151 -22v94q58 -20 130.5 -20t134.5 14t109 46q105 71 105 210q0 131 -95 199q-87 63 -221.5 65t-222.5 -46 t-158 -159q-27 -43 -35.5 -43t-15.5 29l-43 162q171 90 371 102q65 4 134 4t156 -13t162 -47q181 -81 181 -237q0 -137 -135 -220q-98 -61 -258 -87v-4q190 -33 277 -83t132 -108.5t45 -158t-62.5 -171t-154.5 -114.5q-167 -78 -387 -78q-325 0 -561 137z" />
<glyph unicode="4" d="M39 322q0 51 19.5 77.5t43.5 55.5l701 782q24 27 41.5 50t28 23.5t10.5 -30.5v-864q249 0 317 88q15 20 43 55q14 14 21 14q6 0 6 -4v-8t-4 -16l-72 -228h-311v-75q0 -74 29.5 -135.5t82.5 -77.5q23 -8 40.5 -12.5t17.5 -10.5q0 -10 -25 -10l-227 4l-189 -4 q-33 0 -32.5 8t9.5 10q129 29 130 228v80h-680zM166 412h553v661h-4z" />
<glyph unicode="5" d="M59 100l50 142q10 29 18 53t18 24t16.5 -18t26 -61t69.5 -88.5t111 -73.5q122 -58 261 -58q155 0 264 84q117 91 117 242q0 178 -130 269q-114 81 -305 81t-403 -100l53 664h766q94 0 129 40q6 10 13 11q6 0 6 -6q0 -11 -6 -29l-52 -170h-690q-51 0 -89 -36t-42 -105 l-20 -287q195 70 368 70q220 0 394 -77q94 -42 157.5 -115t63.5 -177t-47.5 -180t-129.5 -126q-172 -104 -444 -104q-118 0 -235 25q-201 44 -308 106z" />
<glyph unicode="6" d="M82 616q0 287 188 481q187 193 473 193q111 0 307 -56q140 -40 140 -63t-12 -53l-54 -143q-2 -4 -6 -4t-8 8q-37 133 -138.5 196.5t-234.5 63.5t-220 -48t-139 -129q-90 -140 -99 -407q0 -55 6 -92l-4 4v-4h4q52 131 181 204q118 67 267 67q200 0 347 -104 q165 -117 165 -310q0 -214 -167 -339q-149 -112 -367 -112q-290 0 -461 177q-168 174 -168 470zM303 401q0 -162 107 -272q105 -109 266 -109t266 109q107 111 107 272q0 162 -107 273q-104 108 -266 108t-266 -108q-107 -110 -107 -273z" />
<glyph unicode="7" d="M133 989q0 10 4 19.5t8 21.5l78 230h1039q-2 -63 -45 -130t-106.5 -143t-137.5 -164t-137 -195q-146 -252 -146 -522v-53q0 -27 2 -53h-260q5 340 341 702q87 93 162 168.5t125 135t50 100.5h-688q-102 0 -158.5 -28.5t-93.5 -78.5q-4 -6 -14.5 -13t-16.5 -7t-6 10z" />
<glyph unicode="8" d="M72 313q0 143 132 233q100 69 261 99v4q-122 27 -207 106q-96 89 -96 227q0 81 51 144.5t129 100.5q133 63 348 63q298 0 424 -141q49 -55 49 -132t-33.5 -126t-85.5 -84q-87 -57 -233 -84l-4 4h4v-4q190 -42 274 -96t127 -115t43 -166t-65.5 -181.5t-162.5 -119.5 q-171 -76 -411 -76q-193 0 -349 75q-195 94 -195 269zM248 345q0 -95 37 -154.5t95 -97.5t129.5 -55.5t139.5 -17.5t142.5 12.5t138.5 44.5q149 75 149 220q0 143 -147 209q-138 63 -345 112q-44 11 -80 7t-86 -30t-88 -66q-85 -89 -85 -184zM326 1023.5q0 -64.5 41 -114 t99 -83.5q120 -72 243 -72q112 0 198 70q92 76 92 186q0 124 -109 183q-85 46 -222 46q-220 0 -308 -109q-34 -42 -34 -106.5z" />
<glyph unicode="9" d="M72 809q0 229 177 363q157 118 372 118q290 0 463 -177q171 -175 171 -470q0 -143 -51 -266t-140 -213t-211 -142.5t-265 -52.5q-115 0 -308 57q-139 41 -139 63t13 52l53 144q2 4 6 4t8 -8q37 -133 140.5 -197t231.5 -64t212 47.5t141.5 123t85 172t27.5 174.5t-8 118 h-4q-38 -128 -163 -207q-116 -75 -230.5 -75t-214 28.5t-181.5 84.5q-186 125 -186 323zM268 831q0 -173 98 -285q107 -122 285 -122q180 0 285 122q98 112 98 285t-98 287q-105 121 -285 121q-178 0 -285 -121q-98 -113 -98 -287z" />
<glyph unicode=":" horiz-adv-x="663" d="M231 74q0 41 29 70.5t72 29.5t70.5 -29.5t27.5 -70.5t-27.5 -70t-70.5 -29t-72 29t-29 70zM231 831q0 41 29 71t72 30t70.5 -30t27.5 -71t-27.5 -69.5t-70.5 -28.5t-72 28.5t-29 69.5z" />
<glyph unicode=";" horiz-adv-x="663" d="M225 66q0 45 25.5 76.5t79 31.5t81 -40t27.5 -96t-19.5 -104.5t-46.5 -89.5q-62 -92 -98 -92q-10 0 -10 8t20 35q66 86 66 180q-125 0 -125 91zM231 831q0 41 29 71t72 30t70.5 -30t27.5 -71t-27.5 -69.5t-70.5 -28.5t-72 28.5t-29 69.5z" />
<glyph unicode="&#x3c;" horiz-adv-x="1228" d="M94 473v119l1041 475v-127l-893 -408l893 -407v-127z" />
<glyph unicode="=" horiz-adv-x="1228" d="M84 272v119h1061v-119h-1061zM84 674v119h1061v-119h-1061z" />
<glyph unicode="&#x3e;" horiz-adv-x="1228" d="M94 -2v127l893 407l-893 408v127l1041 -475v-119z" />
<glyph unicode="?" horiz-adv-x="1024" d="M31 1268q193 84 393 84q209 0 347 -92q163 -108 163 -304q0 -137 -157 -276q-44 -39 -89 -77t-88 -77t-76 -83q-72 -98 -65 -207h-45q-10 148 93 303l60 90q85 123 113 178q57 109 57 228.5t-78.5 192t-210.5 72.5t-222.5 -73.5t-135.5 -194.5zM338 74q0 41 28.5 70.5 t71.5 29.5t71 -29.5t28 -70.5t-28 -70t-71 -29t-71.5 29t-28.5 70z" />
<glyph unicode="@" horiz-adv-x="1638" d="M117 633.5q0 155.5 59.5 289.5t160.5 229t236.5 147.5t284.5 52.5t271 -46t209 -127q184 -171 184 -419q0 -177 -98 -318q-111 -163 -279 -163q-93 0 -143 61q-37 45 -37 78l-4 4q-46 -82 -169 -128q-34 -13 -59.5 -13t-58.5 6t-64 31q-78 60 -78 210q0 138 99 294 q122 192 310 188q78 -1 136 -105l21 82h137l-133 -522q-17 -70 22 -107q17 -16 66 -14t100 42t87 100q75 127 75 251.5t-41 223t-117 173.5q-168 166 -434 166q-253 0 -416 -180q-170 -189 -170 -516q0 -106 42 -209.5t120 -184.5q172 -179 436 -179q169 0 319 58 q44 17 87 36l27 -49q-98 -45 -204 -81t-233 -36t-233.5 30.5t-190.5 82t-146 119t-102 141.5q-79 146 -79 301.5zM670 528q0 -92 39 -130t83 -38t81.5 28t72.5 83q79 124 98 326q0 131 -88 131q-37 0 -87 -27t-94 -78q-105 -122 -105 -295z" />
<glyph unicode="A" horiz-adv-x="1593" d="M-2 6q0 10 16.5 19.5t37 30t51 59.5t57.5 80q40 62 92 153l539 991q6 12 14 13h4q4 0 9 -4.5t5 -8.5l604 -1163q53 -95 129 -147q31 -20 31 -23q0 -10 -20 -10l-193 4l-207 -4q-16 0 -16 8t11.5 11t26.5 11q38 22 38 69q0 81 -99 274l-133 270h-524l-131 -248 q-14 -29 -30.5 -61.5t-29.5 -67.5q-30 -76 -30 -118q0 -68 51 -105q18 -14 37.5 -19.5t19.5 -14.5t-30 -9l-144 4l-149 -4q-37 0 -37 10zM496 690h479l-232 443z" />
<glyph unicode="B" horiz-adv-x="1554" d="M37 2q0 8 32.5 18t51 32t33.5 63q34 89 34 266v655q0 118 -9 156q-16 67 -75 94q-25 10 -24 21q0 12 45 12h436q394 0 569 -53q226 -69 226 -256q0 -86 -52.5 -144.5t-123.5 -93.5q-133 -65 -256 -65v-5q423 -35 529 -224q28 -50 28 -127t-45 -141.5t-112 -109.5 q-129 -87 -290 -96q-190 -10 -282 -10l-242 6h-289l-170 -6q-14 0 -14 8zM365 406q0 -230 18 -277t49 -62.5t86 -15.5l184 -6q63 0 214 9t248.5 80t97.5 206t-64.5 200.5t-161 96.5t-209 36t-209.5 5h-253v-272zM365 729h325q204 0 286.5 36t124.5 93t42 156 q0 125 -108.5 189.5t-346.5 64.5h-323v-539z" />
<glyph unicode="C" horiz-adv-x="1554" d="M86 640q0 169 66.5 303t177.5 224q227 185 563 185t577 -183l-38 -118q-27 -76 -37 -76t-15 18q-57 164 -198 243q-114 64 -273 64t-268 -47t-183 -132q-153 -174 -153 -453q0 -281 147 -463q157 -195 435 -195q289 0 445 166q51 55 83 126q4 9 10 9q9 0 23 -49l33 -127 q-243 -176 -584 -176q-150 0 -295 44t-260 129t-185.5 212t-70.5 296z" />
<glyph unicode="D" horiz-adv-x="1630" d="M51 -2q0 8 32 25.5t54.5 41t33.5 58.5q17 54 17 217v696q0 185 -44 222q-15 14 -29 21t-20.5 11t-6.5 13q0 16 62 16h628q361 0 572 -195q96 -88 143 -203.5t47 -247.5t-48 -251t-136 -209q-185 -189 -492 -213q-76 -6 -157 -6l-240 6h-234l-167 -8q-14 0 -15 6zM365 377 q0 -184 22.5 -236.5t47 -67t72.5 -19.5q86 -9 169.5 -9t176 8t182 44t153.5 110q133 156 133 477q0 316 -151 454q-144 130 -461 130h-344v-891z" />
<glyph unicode="E" horiz-adv-x="1441" d="M45 6q0 16 37 26t57.5 52.5t30.5 97.5q14 78 14 205v715q0 59 -11 107t-67 77q-14 8 -14 12q0 13 43 13h1090l37 -119q15 -46 22.5 -77.5t11.5 -45.5t4 -20t-8 -7q-13 0 -24 21q-78 115 -212 156t-323 41h-373v-531h199q336 0 417 27q71 24 109 116q6 10 15 11 q10 0 10 -33v-301q0 -33 -8 -33q-6 0 -14 16q-23 48 -64 76.5t-100.5 42t-125.5 19.5q-89 8 -239 8h-199v-266q0 -90 9.5 -185.5t25 -120t45.5 -36.5q46 -19 166.5 -19t199.5 3t156 14q172 26 291 92q49 29 73 53.5t50 56.5q10 10 19 11q10 0 10 -12.5t-4 -22.5l-82 -246 h-1245q-29 0 -29 6z" />
<glyph unicode="F" d="M49 0q0 7 30 16.5t53.5 39.5t34.5 73q17 66 17 219v809q0 51 -16 79t-62 48q-20 7 -20 16.5t47 10.5h1112l37 -119q6 -18 12 -42t12 -46q15 -47 15 -54t-8 -8q-14 0 -25 21q-135 197 -608 197h-320v-531h330q182 0 238 13q85 21 112 46q39 36 49.5 63t16.5 28 q12 0 12 -29v-348q0 -10 -8 -10t-18 29.5t-35 58t-71 50.5q-104 48 -286 48h-340v-328q0 -133 19.5 -217t89.5 -115q20 -8 20 -16t-20 -8l-195 6l-211 -6q-14 0 -14 6z" />
<glyph unicode="G" horiz-adv-x="1669" d="M86 647.5q0 139.5 35 232.5t93 168.5t134 132t158 94.5q166 77 317 77q236 0 407 -50.5t257 -119.5l-57 -174q-12 -29 -21 -29q-4 0 -6 10t-20.5 53t-70.5 94.5t-120 88.5q-138 75 -298.5 75t-270 -50t-179.5 -138q-139 -173 -139 -467q0 -297 162 -467 q160 -168 442 -168q238 0 342 112q39 42 41 105v174q0 78 -8 122t-32.5 68.5t-70.5 37t-122 30.5q-6 0 -6 9.5t11 10.5t30 1l295 -8l176 8q20 0 31.5 -2t11.5 -12t-32 -19.5t-59.5 -31t-27.5 -72.5v-398q-269 -186 -600 -186q-160 0 -305.5 50t-256 142.5t-176 224.5 t-65.5 271.5z" />
<glyph unicode="H" horiz-adv-x="1630" d="M75 10q9 4 19 13q87 57 94 263q2 56 2 105v721q0 151 -75 180q-6 4 -10.5 6t-4.5 10.5t6.5 9.5t26.5 1l146 -8l143 8q35 0 35 -12t-15 -15q-51 -14 -63 -67.5t-12 -112.5v-383h899v383q0 115 -34 154q-15 18 -35.5 23t-20.5 20q0 10 34 10l144 -8l145 8q20 0 26.5 -1 t6.5 -9t-4 -10.5t-20.5 -9.5t-32 -27.5t-22.5 -45.5q-11 -38 -11 -104v-721q0 -214 44 -305q25 -53 72 -76q9 -4 9 -10t-25 -6l-188 6l-180 -6q-23 0 -23 8t29 20t47 46t27 82q12 59 12 241v287h-899v-287q0 -181 10 -235q20 -108 82 -138q23 -8 22 -18q0 -6 -22 -6l-180 6 l-189 -6q-25 0 -25 6t10 10z" />
<glyph unicode="I" horiz-adv-x="569" d="M81 10q9 4 19 13q88 58 95 263q2 56 2 105v721q0 151 -76 180q-6 4 -10.5 6t-4.5 10.5t6.5 9.5t26.5 1l146 -8l143 8q35 0 35 -12t-14 -15q-51 -14 -63.5 -67.5t-12.5 -112.5v-721q0 -181 10 -235q20 -108 82 -138q22 -8 22 -17v-1q0 -6 -22 -6l-180 6l-189 -6 q-25 0 -25 6t10 10z" />
<glyph unicode="J" horiz-adv-x="872" d="M-10 0l51 174q4 20 12 21q8 0 10 -9q49 -163 218 -163h2q137 0 191 161q32 98 32 275v700q0 49 -17.5 79t-58.5 54q-14 10 -14 15q0 12 33 12l145 -8l154 8q24 0 24 -8t-14 -17q-43 -25 -59.5 -55.5t-16.5 -79.5v-704q0 -216 -142 -357q-142 -139 -360 -139 q-113 0 -190 41z" />
<glyph unicode="K" horiz-adv-x="1478" d="M152 27q52 23 67 192q4 45 4 84v741q0 106 -14 166t-62 82q-14 6 -14 17q0 10 23 10l155 -8l144 8q20 0 20 -11t-21.5 -21.5t-31.5 -28t-14 -40.5q-9 -45 -9 -106v-420l359 269q203 159 258 227q24 29 24 53.5t-16 35.5t-23.5 15t-7.5 11q0 16 35 16l119 -8l162 8 q77 0 77 -16q0 -8 -33.5 -20.5t-72.5 -30t-66.5 -32t-53.5 -29.5q-34 -19 -113 -77l-515 -387v-4q129 -6 211 -20.5t143.5 -49.5t114 -97t101.5 -135t84 -123t74 -97q105 -125 229 -183q20 -10 20 -17t-24 -7l-166 6l-156 -6l-303 442q-81 111 -127 152q-97 88 -186 88 q-59 0 -103.5 -30t-44.5 -97v-246q0 -241 80 -274q45 -16 45 -25.5t-20 -9.5l-193 6l-168 -6q-34 0 -34 8t43 25z" />
<glyph unicode="L" horiz-adv-x="1366" d="M51 5q0 11 34 21t58.5 31t40.5 62q27 73 27 256v719q0 104 -20.5 144t-63.5 52q-16 6 -16 17.5t36 11.5l146 -8l188 8q23 0 23 -12q0 -6 -5 -8.5t-12 -6.5q-61 -16 -79.5 -68.5t-20.5 -111.5v-580q0 -172 8 -268t33 -144t70 -58.5t118 -10.5q209 0 332 26.5t209 64.5 t137 102q20 30 33 30q10 0 10 -11t-4 -27l-78 -236h-1040l-141 -6q-23 0 -23 11z" />
<glyph unicode="M" horiz-adv-x="1781" d="M35 16q88 54 112.5 156t24.5 215v686q0 106 -12 137q-22 53 -70 76q-10 6 -18.5 10t-8.5 13q3 10 33 10l135 -8l95 8q21 0 36 -6q4 -2 12.5 -20.5t20 -41t20.5 -43t13 -26.5l465 -926l524 1055h234q35 0 35 -11q-2 -8 -11.5 -10t-19.5 -8q-41 -23 -51.5 -62.5 t-10.5 -107.5v-666q0 -249 49 -364q17 -34 39 -46q39 -22 39 -32t-26 -10l-183 6l-202 -6q-15 0 -15 12q0 4 23.5 12t41 25.5t28 37t17.5 49.5q13 56 13 173v868h-4l-553 -1134q-28 -53 -47 -53q-12 0 -21 20q-8 19 -18 41l-532 1112h-4v-829q0 -195 66 -262q20 -19 44 -37 q25 -18 25 -26.5t-39 -8.5l-129 6l-160 -6q-22 0 -22 9q0 5 12 13z" />
<glyph unicode="N" horiz-adv-x="1554" d="M14 3q0 9 30 17.5t52 28.5q49 43 68.5 113.5t19.5 208.5v702q-2 82 -20.5 137.5t-89.5 79.5q-18 8 -19 15q0 14 27 14l151 -8q88 0 154 4q93 -132 250 -289l682 -727v684q0 131 -37 199.5t-67.5 86t-44 20.5t-13.5 11q0 18 35 19l160 -8l141 8q35 0 35 -16 q0 -8 -25.5 -19.5t-46 -28t-36.5 -49.5q-36 -76 -36 -223v-829q0 -195 -20 -195h-4q-13 0 -38 32q-32 40 -130 155t-211 241.5t-235 260.5q-267 292 -496 513v-833q0 -232 104 -297q23 -14 33 -17.5t10 -11.5t-16 -8l-164 6l-180 -6q-23 0 -23 9z" />
<glyph unicode="O" horiz-adv-x="1705" d="M86 658.5q0 164.5 65.5 292.5t173 217t246 136.5t282.5 47.5t281.5 -47.5t245 -136.5t173 -217t65.5 -293t-65.5 -295t-173 -220t-245 -137t-281.5 -47t-282.5 47t-246 137t-173 220.5t-65.5 295zM305 641q0 -445 299 -583q103 -48 248 -48q280 0 420 181 q127 165 127 450q0 471 -297 610q-105 49 -250 49q-277 0 -418 -185q-129 -168 -129 -474z" />
<glyph unicode="P" horiz-adv-x="1402" d="M37 4q0 10 18.5 14t40.5 17q88 54 88 364v711q0 142 -80 180q-18 10 -18 19.5t29 9.5h598q491 0 629 -205q42 -63 42 -141t-43 -137.5t-112.5 -99.5t-156.5 -64.5t-174 -36.5q-152 -21 -304 -21l-234 4v-251q0 -152 21.5 -237t83.5 -101q31 -10 41 -13.5t10 -12.5t-22 -9 l-220 6l-217 -6q-20 0 -20 10zM360 680q82 -14 176.5 -14t201 6t201.5 35.5t160.5 93t65.5 161t-30.5 149.5t-82 83t-120 45t-159.5 21.5t-202 7.5t-211 -4v-584z" />
<glyph unicode="Q" horiz-adv-x="1705" d="M86 659q0 164 65.5 292t173 217t246 136.5t282.5 47.5t281.5 -47.5t245 -136.5t173 -217t65.5 -291t-63.5 -291.5t-168 -218t-238.5 -138.5t-276 -51v-10l504 -211q85 -33 112 -33q70 0 95 17q8 4 15 4t8 -9q0 -20 -56 -49l-155 -76q-40 -20 -64 -20q-18 0 -84 35 l-416 215q-43 20 -71.5 32.5t-81.5 12.5t-93 -22.5t-81 -61.5q-20 -16 -27 -16q-14 0 -14 47q0 22 73 49q17 6 25 10l178 70q31 12 56 12v6q-137 8 -265.5 59.5t-226.5 140.5q-217 197 -217 496zM305 641q0 -445 299 -583q103 -48 248 -48q280 0 420 181q127 165 127 450 q0 471 -297 610q-105 49 -250 49q-277 0 -418 -185q-129 -168 -129 -474z" />
<glyph unicode="R" horiz-adv-x="1554" d="M47 2q0 4 11 9q46 20 66.5 50.5t33.5 78.5q26 91 26 290v680q0 49 -14 102.5t-55.5 68.5t-40.5 28q0 10 41 10h602q552 0 652 -195q30 -59 30 -126t-26.5 -114.5t-71 -83.5t-97.5 -58.5t-108 -37.5q-92 -24 -183 -24v-4q88 -25 151.5 -48.5t111.5 -60.5q94 -72 155 -237 q14 -37 29.5 -81t35.5 -85q49 -104 95 -131q27 -16 38 -17.5t11 -8.5t-14 -7h-236q-35 0 -47 8t-27 51t-36 97.5t-40 108.5q-83 228 -128 282.5t-98 78.5q-90 40 -330 40h-224v-299q0 -312 103 -349q10 -4 21.5 -8t11.5 -10t-41 -6l-181 6q-115 0 -158.5 -3t-49.5 -3 q-19 0 -19 8zM360 717h379q196 0 299 51q142 71 142 242q0 132 -112 200q-94 58 -241 58h-467v-551z" />
<glyph unicode="S" horiz-adv-x="1366" d="M10 115q0 4 4 12l68 207q4 14 15 14t16 -16q10 -86 67.5 -147.5t137.5 -99.5q156 -75 333 -75q172 0 297 67q156 83 156 236q0 172 -190 231q-56 17 -119 29l-258 52q-173 33 -252.5 82t-120.5 104t-41 144t46 165t125 127q163 105 411 105q133 0 276 -33t260 -94 l-57 -168q-16 -43 -23 -43q-4 0 -22.5 57.5t-79 103.5t-133.5 75q-131 50 -283 50q-221 0 -311 -139q-33 -51 -33 -127t42 -122t103 -74q72 -32 250 -66l242 -45q241 -43 316 -197q28 -57 28 -137t-31.5 -143.5t-85 -112.5t-122 -83t-141.5 -56q-134 -39 -239.5 -39 t-184.5 11.5t-158 30.5q-142 35 -287 101q-20 8 -21 13z" />
<glyph unicode="T" horiz-adv-x="1441" d="M25 1063q0 4 4 20l65 228h1254l65 -228q4 -16 4 -22t-6 -6t-25 22q-60 93 -204 143q-117 40 -250 40q-62 0 -83 -10q-40 -20 -40 -74v-775q0 -196 17.5 -257.5t36 -85t57 -36.5t38.5 -20.5t-22 -7.5l-207 6l-237 -6q-19 0 -19 10t14.5 12t41 8.5t47 42t34.5 91.5 q23 99 23 280v738q0 73 -73 82q-23 2 -65 2t-107.5 -9.5t-127.5 -30.5q-140 -49 -205 -143q-30 -38 -30 -14z" />
<glyph unicode="U" horiz-adv-x="1593" d="M90 1308.5q0 10.5 23 10.5l151 -8l180 8q31 0 31 -10q0 -13 -30 -23t-47 -38.5t-25 -67.5q-13 -63 -13 -181v-514q0 -333 254 -439q86 -36 205 -36t217.5 22.5t167.5 81.5q146 122 146 418v449q0 135 -26 202.5t-87 96.5q-41 18 -41 29q0 10 15.5 10t25.5 -1t29 -3 q37 -4 120 -4l146 4q24 0 24 -6q0 -5 -13 -13q-11 -6 -31.5 -18t-41 -32.5t-32.5 -53.5q-23 -59 -23 -211v-414q0 -355 -163 -493q-78 -66 -191 -90.5t-271.5 -24.5t-278.5 30.5t-193 92.5q-134 114 -134 356v674q0 138 -42 163q-11 7 -31.5 15t-20.5 18.5z" />
<glyph unicode="V" horiz-adv-x="1554" d="M4 1303q0 16 19 16l170 -8l165 8q48 0 48 -14q0 -6 -11.5 -10.5t-24.5 -14.5q-36 -28 -36 -74q0 -52 72 -182l440 -801l379 735q73 150 73 204.5t-16 77t-42 32.5t-42 17t-16 18.5t24 11.5l162 -8l160 8q22 0 22 -11q0 -7 -13 -12.5t-46 -35.5q-54 -48 -117 -166 l-581 -1110q-10 -25 -23 -25h-4q-12 0 -23 25l-516 1042q-45 92 -96 156.5t-77.5 83t-38 23.5t-11.5 14z" />
<glyph unicode="W" horiz-adv-x="2048" d="M10 1308.5q0 10.5 47 10.5h295q57 0 58 -14q0 -6 -16.5 -11.5t-29.5 -14.5q-36 -25 -36 -69q0 -86 69 -243l299 -680l365 993q25 72 33 72h4q7 0 32 -72l373 -993l264 692q39 93 39 194v19q0 29 -18.5 54.5t-38.5 34.5t-32.5 12t-12.5 14.5t31 11.5l147 -8l148 8 q30 0 30 -9q0 -15 -37 -38t-95 -107t-118 -239l-340 -895q-24 -72 -32 -72h-4q-8 0 -33 72l-365 1007h-4l-364 -1007q-24 -72 -33 -72h-4q-8 0 -33 72l-420 1034q-61 154 -125 205q-25 18 -34 23t-9 15.5z" />
<glyph unicode="X" horiz-adv-x="1441" d="M29 -2q0 6 15 11t48 24t71 52.5t73.5 73.5t71.5 83t73 84l264 317l-317 428q-120 161 -172 193q-53 31 -54 45q0 10 16.5 10t65.5 -4t135 -4l173 8q18 0 18 -10t-27.5 -22.5t-33 -34t-5.5 -42.5q0 -43 68 -133l238 -311l188 217q137 164 137 229q0 42 -21 56t-37 20 t-16 15q0 16 19 16l168 -8l153 8q14 0 18.5 -8t4.5 -13q0 -4 -8 -7t-17.5 -9t-24 -15.5t-28.5 -19.5q-106 -75 -215.5 -196t-196.5 -226l-88 -106q123 -154 242 -308.5t199 -241.5t108.5 -109.5t45.5 -33.5t28.5 -15.5t11.5 -11.5t-41 -7l-188 8q-109 0 -156 -4t-58 -4 t-11 7t20 17q31 16 31 50q0 64 -146 262l-190 264q-29 -35 -85 -102q-128 -151 -189.5 -256t-61.5 -153t35 -63t35 -20.5t-19 -5.5l-176 8q-97 0 -124 -3q-45 -5 -56.5 -5t-11.5 6z" />
<glyph unicode="Y" horiz-adv-x="1441" d="M-2 1307.5q0 11.5 14 11.5l181 -8l225 8q16 0 16 -16q0 -4 -10 -6.5t-26 -7.5q-48 -16 -48 -61.5t32 -98t91 -123.5l289 -349l231 267q18 23 50 59.5t62 76.5q73 97 73 143q0 70 -66 89q-4 2 -11 5t-7 12.5t10 9.5h4l154 -6l143 6h31q10 -4 10 -13t-14 -22 q-133 -105 -296 -284q-46 -50 -81 -95l-264 -321v-281q0 -168 28 -223q23 -45 73 -64q21 -8 21 -14t-22 -6l-182 4l-197 -4q-18 0 -18 7t21.5 14.5t39.5 25.5t28.5 37.5t17.5 49.5q13 56 13 173v260l-309 410q-25 29 -89 108q-110 134 -140.5 161t-54 40.5t-23.5 25z" />
<glyph unicode="Z" horiz-adv-x="1290" d="M41 0l491 639q74 100 145 194.5t125 172.5q122 175 122 204q0 27 -38 37q-48 13 -182 13t-228.5 -12.5t-159.5 -35.5q-103 -35 -193 -125q-14 -14 -19.5 -21t-12.5 -7t-7 9q0 16 12 52l66 191h1061l-461 -627q-371 -505 -371 -575q0 -54 159 -57q46 -1 110.5 -1 t140.5 7.5t147 27.5q154 44 260 152q31 35 41 34q11 0 11 -13q0 -8 -3 -11l-81 -248h-1135z" />
<glyph unicode="[" horiz-adv-x="530" d="M113 18v949q0 307 171 367q54 18 117 18v-31q-68 0 -107.5 -55.5t-39.5 -149.5v-1247q0 -94 40 -149.5t107 -55.5v-31q-212 0 -267 201q-21 74 -21 184z" />
<glyph unicode="\" horiz-adv-x="569" d="M-147 1352h120l742 -1393h-121z" />
<glyph unicode="]" horiz-adv-x="530" d="M129 -336q68 0 107.5 55.5t39.5 149.5v1247q0 94 -39.5 149.5t-107.5 55.5v31q213 0 269 -201q20 -74 20 -184v-949q0 -306 -171 -366q-52 -19 -118 -19v31z" />
<glyph unicode="^" horiz-adv-x="1228" d="M186 512l375 748h107l374 -748h-127l-301 604l-301 -604h-127z" />
<glyph unicode="_" horiz-adv-x="1024" d="M0 -152h1024v-94h-1024v94z" />
<glyph unicode="`" horiz-adv-x="530" d="M-41 1482q0 32 21.5 48t46.5 16q43 0 90 -51l303 -301h-86l-303 195q-31 23 -51.5 42t-20.5 51z" />
<glyph unicode="a" horiz-adv-x="1251" d="M74 297q0 206 262 298q176 62 436 62h156q0 195 -66 284q-76 103 -262 103q-129 0 -242 -58q-140 -72 -151 -181q0 -8 -8 -8t-11 6l-55 194q226 99 461 99q498 0 498 -400v-389q0 -259 71 -280q16 -6 17 -17q0 -14 -19 -14l-80 4l-75 -4q-12 0 -18.5 6t-6.5 27.5 t-15.5 77t-19.5 98.5h-4q-66 -131 -178.5 -183.5t-253.5 -52.5q-169 0 -292 80q-144 93 -144 248zM270 293q0 -129 90 -204q83 -69 206.5 -69t193 42t106.5 112q62 117 62 342v90h-152q-216 0 -334 -54q-172 -78 -172 -259z" />
<glyph unicode="b" horiz-adv-x="1366" d="M43 5q0 5 18 24q59 53 75 169.5t16 297.5v731q0 92 -21.5 128t-52.5 44t-31 14t9.5 9t19.5 8l227 55v-651h4q55 127 164 194.5t239 67.5t236.5 -39t185.5 -109q173 -153 173 -395q0 -251 -154 -415q-158 -169 -406 -169q-167 0 -266 51q-83 44 -184 166l-68 -186h-178 q-6 0 -6 5zM303 516q0 -341 214 -455q77 -41 185.5 -41t184.5 42t125 114q96 141 96 361q0 343 -204 463q-74 44 -187 44t-193 -44t-129 -118q-92 -138 -92 -366z" />
<glyph unicode="c" horiz-adv-x="1214" d="M76 524q0 254 172 415q167 157 428 157q152 -4 256 -35q159 -48 207 -88l-52 -174q-6 -18 -14 -19q-9 0 -47 82q-30 91 -146 140q-86 37 -204 42q-213 0 -318 -158q-86 -130 -86 -364q0 -211 104 -349q115 -153 316 -153q159 0 291 107q70 57 133 147q12 23 22 23 q17 0 17 -19.5t-8 -31.5q-96 -143 -215 -210t-257.5 -67t-243.5 41t-184 115q-171 160 -171 399z" />
<glyph unicode="d" horiz-adv-x="1366" d="M76 520q0 260 170 419q167 157 426 157q112 0 236 -60q95 -46 169 -123v285q0 165 -71 184q-35 9 -35 17t18 16l240 70v-1032q0 -359 71 -412q29 -20 29 -30.5t-18 -10.5l-92 8l-93 -8l-49 225q-154 -256 -432 -256q-244 0 -406.5 155t-162.5 396zM272 520 q0 -203 90 -338q106 -162 289 -162q219 0 329 158q93 134 93 369q0 354 -222 459q-79 38 -192 38t-186.5 -48t-117.5 -122q-83 -141 -83 -354z" />
<glyph unicode="e" horiz-adv-x="1290" d="M76 547q0 100 40 198.5t114 176.5q168 174 423 174q212 0 365 -107q167 -116 182 -313h-915q-13 -75 -13 -144.5t22.5 -168.5t73.5 -173q111 -161 341 -161q202 0 345 157q58 62 89 122.5t34 77.5q7 36 25 36q19 0 19 -24q0 -21 -11 -46q-58 -181 -216 -282 q-155 -101 -365 -101q-237 0 -395 172q-158 171 -158 406zM289 727h715q0 146 -97 233q-93 84 -249 84q-295 0 -369 -317z" />
<glyph unicode="f" horiz-adv-x="645" d="M39 952l14 52h152v98q0 175 147 276q114 78 316 107l-56 -172q-60 76 -139 76q-47 0 -82 -38t-35 -98v-249h189l-15 -52h-174v-491q0 -357 80 -422q14 -12 31.5 -19.5t17.5 -15.5t-20 -8l-184 4l-146 -4q-23 0 -22.5 5t9.5 9t19 15q64 52 64 180v747h-166z" />
<glyph unicode="g" horiz-adv-x="1290" d="M25 -98q0 94 125 158q87 43 210 61v4q-149 26 -149 111q0 58 77 100q65 37 132 37v4q-116 26 -209 119q-102 102 -102 210.5t47 179t118.5 117t159.5 70t163.5 23.5t213.5 -27q139 171 389 171q19 0 39 -1l-59 -174q-45 33 -79 50.5t-86 17.5q-100 0 -163 -76 q135 -52 200 -123q81 -87 81 -215q0 -163 -141 -264q-124 -90 -294 -103q-59 -4 -117 -4h-118q-29 0 -57.5 -9t-28.5 -42t55 -50.5t127 -27.5t138.5 -14t106 -6t115.5 -14.5t143 -40.5q163 -69 163 -201q0 -197 -221 -284q-166 -65 -437 -65q-202 0 -358 72 q-184 85 -184 236zM184 -121q0 -120 154 -185q116 -48 250 -48q240 0 365.5 66.5t125.5 170.5q0 213 -534 213q-43 0 -108.5 -6t-122.5 -28q-130 -49 -130 -183zM285 716q0 -163 92 -245t252 -82q327 0 327 338q0 168 -90 248t-251 80t-245.5 -88t-84.5 -251z" />
<glyph unicode="h" d="M47 4q-1 7 11 11q12 5 28 16q47 29 60.5 76t13.5 98v1079q0 96 -74 111q-18 6 -18 11t7 9t11 4l225 66v-656h6q51 131 159 199t247 68q183 0 303 -87q143 -103 143 -309v-401q0 -123 13.5 -188.5t51.5 -84.5t38 -22q0 -8 -21 -8l-164 4l-169 -4q-14 0 -15 8q0 8 11.5 11 t23.5 12q68 46 68 178v401q0 244 -97 350q-80 88 -227 88q-163 0 -268 -130q-103 -127 -103 -312v-315q0 -113 13 -171q16 -67 88 -104q10 -6 10 -11t-16 -5l-170 4l-170 -4q-19 0 -19 8z" />
<glyph unicode="i" horiz-adv-x="530" d="M86 5q0 9 31 23t46 35t23 55q11 52 11 201v599q0 31 -21.5 41t-43 21t-21.5 16t14 10l223 59v-700q0 -172 24.5 -253t61.5 -92q14 -4 23.5 -6t9.5 -10t-25 -8l-170 4l-170 -4q-16 0 -16 9zM176 1315q0 47 30.5 72.5t65.5 25.5t66 -25.5t31 -72.5t-31 -72.5t-66 -25.5 t-65.5 25.5t-30.5 72.5z" />
<glyph unicode="j" horiz-adv-x="530" d="M-133 -389l47 133q13 20 19.5 20t18.5 -24q36 -66 116 -66t114 118q33 117 33 403v628q0 123 -44 150q-24 15 -37 20.5t-13 10.5q0 4 6 6t10 4l230 51v-850q0 -185 -16.5 -263.5t-54.5 -142t-92 -110.5q-113 -99 -265 -105q-45 0 -72 17zM195 1315q0 47 30.5 72.5 t65.5 25.5t65.5 -25.5t30.5 -72.5t-30.5 -72.5t-65.5 -25.5t-65.5 25.5t-30.5 72.5z" />
<glyph unicode="k" horiz-adv-x="1175" d="M57 1q0 5 15.5 12t36.5 22q45 29 61 116t16 224v807q0 117 -13 153q-21 56 -55 63t-34 15t11 11t18 6l225 55v-879q173 108 330 246q120 107 120 145q0 36 -17 47t-24.5 12t-7.5 8t31 7l166 -6l156 6q47 0 47 -9t-46 -17q-91 -16 -311 -177l-311 -231v-4q172 0 273 -73 q49 -36 87.5 -90t81.5 -123q97 -156 160 -222q54 -61 123 -92q16 -8 27.5 -13.5t11.5 -12.5t-33 -7h-274l-203 342q-138 242 -276 242q-97 0 -108 -132q-3 -36 -3 -73v-133q0 -190 76 -219q47 -12 47 -25q0 -6 -29 -6l-170 4l-170 -4q-35 0 -35 5z" />
<glyph unicode="l" horiz-adv-x="530" d="M57 4q0 8 16.5 14.5t42.5 17.5t42 49t24 95q15 105 15 279v727q0 115 -15.5 160t-56.5 59q-34 10 -15 19q7 3 13 6l225 55v-1188q0 -236 76 -266q43 -16 43 -25.5t-35 -9.5l-160 4l-170 -4q-45 0 -45 8z" />
<glyph unicode="m" horiz-adv-x="2048" d="M74 4q0 8 9 11t24 15.5t27.5 43t19.5 70.5q12 61 12 182v501q0 113 -57 142q-16 8 -22.5 11t-6.5 9q0 12 14 15l207 61v-240h4q55 133 152.5 202t202 69t172 -19.5t113.5 -57.5q82 -68 134 -212h4q41 147 135.5 218t217.5 71q456 0 456 -449v-358q0 -115 9.5 -175.5 t50.5 -88.5q14 -10 25.5 -13.5t11.5 -9.5t-15 -6l-174 4l-153 -4q-18 0 -19 8q0 8 23 19q45 23 61.5 83t16.5 152v356q0 231 -97 342q-76 88 -202 88q-251 0 -300 -309q-16 -96 -16 -211v-319q0 -94 32 -147q11 -19 28 -27q40 -18 40 -26.5t-20 -8.5l-176 4l-158 -4 q-16 0 -16 6t9 10t29 17.5t34 35t21 55.5q13 63 13 202v378q0 176 -97 268q-80 76 -169.5 76t-153 -40.5t-110.5 -106.5q-103 -145 -103 -315v-344q0 -76 13 -128q17 -74 72 -94q10 -4 10 -12t-23 -8l-147 4l-150 -4q-18 0 -18 8z" />
<glyph unicode="n" d="M47 4q-1 7 11 11q12 5 32.5 17.5t34.5 43t21 71.5q14 74 14 177v458q0 150 -44 184q-12 9 -32.5 14t-20.5 19q0 6 9.5 8.5t15.5 4.5l207 53v-236h6q44 126 163 198q114 69 259 69q183 0 303 -87q143 -103 143 -309v-401q0 -156 10.5 -198t24 -53t41 -23t27.5 -20.5 t-21 -8.5l-164 4l-169 -4q-29 0 -29 8t16.5 14.5t24.5 10.5q49 29 62.5 106.5t13.5 192.5v278q0 244 -97 350q-80 88 -227 88q-163 0 -268 -130q-103 -127 -103 -312v-315q0 -113 13 -171q16 -67 88 -104q10 -6 10 -11t-16 -5l-170 4l-170 -4q-19 0 -19 8z" />
<glyph unicode="o" horiz-adv-x="1366" d="M76 532q0 245 187 408q179 156 419 156t419 -156q187 -163 187 -408q0 -244 -187 -407q-179 -156 -419 -156t-419 156q-187 163 -187 407zM272 532q0 -357 218 -471q79 -41 193 -41t191.5 41t127.5 111q90 128 90 360q0 358 -218 472q-77 40 -191 40t-192.5 -40.5 t-128.5 -110.5q-90 -128 -90 -361z" />
<glyph unicode="p" horiz-adv-x="1366" d="M16 -394q0 10 54 29q32 12 45 88q22 137 22 287v803q0 140 -48 162q-13 6 -28 9t-16 9q0 10 41 17q74 11 186 55v-266h7q128 293 450 297q235 0 399 -158q166 -161 166 -391q0 -244 -160 -408q-167 -170 -423 -170q-131 4 -257 71q-119 63 -161 136h-4v-309 q0 -78 11 -138.5t69 -95.5q16 -10 29.5 -14t13.5 -12t-27 -8l-162 6q-100 0 -133 -3t-53.5 -3t-20.5 7zM289 553q0 -376 216 -491q79 -42 195.5 -42t192.5 43t121 117q84 138 84 373q0 212 -96 346q-103 145 -304 145q-107 0 -185.5 -41.5t-128.5 -111.5q-95 -133 -95 -338z " />
<glyph unicode="q" horiz-adv-x="1366" d="M66 526q0 244 172 408q169 162 413 162q141 0 236.5 -45t181.5 -129l39 143h176q10 0 11 -1t1 -8t-12 -18q-41 -35 -52 -82t-11 -98v-813q0 -341 65 -399q19 -17 41 -23q23 -6 23 -14q0 -10 -25 -10l-211 4l-158 -4q-16 0 -16 10t29 18q100 24 100 340v256l-4 4 q-115 -258 -436 -258q-238 0 -399 158q-164 160 -164 399zM262 553q0 -356 216 -485q79 -48 196 -48t192.5 43t120.5 117q84 138 84 373q0 211 -95 346q-102 145 -299 145q-101 0 -178 -41.5t-129 -111.5q-108 -143 -108 -338z" />
<glyph unicode="r" horiz-adv-x="757" d="M59 7q0 11 42 31t59.5 83t17.5 205v594q0 52 -69 79q-31 10 -31 17q0 4 26 12l213 57v-286h5q70 152 166 224.5t249 72.5l-69 -205q-18 16 -44 34.5t-78 18.5t-96 -37t-71 -107q-49 -126 -49 -386v-125q0 -115 19.5 -182.5t80.5 -75.5q35 -4 35 -25q0 -10 -16 -10l-183 4 l-182 -4q-25 0 -25 11z" />
<glyph unicode="s" horiz-adv-x="1175" d="M45 78l43 133q20 70 37 70q8 0 12 -11q31 -91 78 -135.5t105 -68.5q109 -46 247 -46q232 0 321 120q34 46 34 119t-38 114t-96.5 61.5t-128 25.5t-132 10t-132 23.5t-127.5 53.5q-135 80 -135 219q0 171 169 259q136 71 321 71q210 0 411 -86l-53 -164q-8 -27 -18 -27 t-25 47q-26 88 -137 136q-95 42 -178.5 42t-136 -12t-94.5 -38q-95 -57 -95 -163q0 -180 261 -209q67 -8 128.5 -13t132 -15t129.5 -38q137 -64 137 -212q0 -98 -49 -170t-124 -117q-148 -88 -341 -88q-135 0 -270 20.5t-256 88.5z" />
<glyph unicode="t" horiz-adv-x="645" d="M57 962q0 14 33 31q82 41 149.5 114t94.5 177q8 29 20.5 29t12.5 -27v-282h180q29 0 28 -9l-8 -43h-200v-358q0 -257 20.5 -359t49 -152t75.5 -63q14 -2 14 -9t-50 -9t-101.5 -2t-79 6t-45.5 30q-35 43 -35 195v721h-119q-23 0 -31 1t-8 9z" />
<glyph unicode="u" d="M66 988q0 9 22 13l238 64v-686q0 -245 172 -329q61 -30 153 -30t161 43t114 117q88 145 88 377v201q0 115 -12 146q-19 50 -54 65q-10 4 -21.5 8t-11.5 14q0 4 19 10l231 64v-686q0 -283 72 -346q10 -10 16.5 -15.5t6.5 -11.5t-33 -6h-150l-61 213q-89 -137 -178 -187 q-104 -57 -231 -57t-204 29t-131 79q-110 100 -110 275v463q0 88 -12 111q-19 38 -42.5 41.5t-32.5 7.5t-9 13z" />
<glyph unicode="v" horiz-adv-x="1251" d="M8 1061q0 14 33 14l149 -10l144 10q41 0 41 -12q0 -8 -26.5 -24.5t-33 -32t-6.5 -40.5q0 -48 76 -198l303 -578l191 373q145 275 145 358t-53 109q-51 26 -51 31q0 14 12 14l151 -10q59 0 94 5t51.5 5t16.5 -10t-6 -14q-64 -42 -128 -148t-136 -252l-297 -592 q-44 -90 -53 -90h-4q-4 0 -17.5 30t-30.5 60l-374 736q-49 98 -86 158.5t-71 80.5t-34 27z" />
<glyph unicode="w" horiz-adv-x="1896" d="M8 1064q0 11 35 10l150 -9l143 9q41 0 41 -11q0 -5 -34 -26t-36 -60v-9q1 -36 15 -82q16 -52 40 -108q45 -111 84 -188l187 -369l354 853q4 8 8 9h2q2 0 7 -9l382 -847l254 572q29 74 29 122q0 74 -51 111q-18 12 -33.5 16.5t-15.5 15.5t14 10l143 -9q59 0 94 5t51.5 4.5 t16.5 -10t-6 -13.5t-36 -34q-55 -54 -154 -265l-361 -768q-7 -15 -16 -15h-4q-6 0 -17 19l-348 829l-348 -829q-8 -18 -16 -19h-4q-10 0 -17 15l-336 712q-137 289 -192 338q-25 19 -25 30z" />
<glyph unicode="x" horiz-adv-x="1175" d="M18 2q0 4 29 16q55 31 109.5 87.5t136.5 150.5l231 258l-245 317q-45 57 -93 117q-50 62 -118 106q-11 7 -11 11q0 10 26.5 10t65.5 -5t97 -5l143 10q23 0 23 -9t-14 -20q-34 -24 -34 -52q0 -4 1 -9q0 -29 25 -68q50 -83 67 -98l157 -192l148 166q102 126 102 190 q0 29 -18 46t-24.5 20.5t-9.5 10.5t2 11t11 4l136 -10q66 0 99.5 5t45.5 5t12 -14t-23.5 -26.5t-59.5 -43t-71 -64.5q-51 -51 -120 -126l-199 -215l184 -221q74 -90 152 -183.5t170 -165.5l10 -10q0 -6 -14 -6h-359q-10 0 -10 2t8.5 7t18.5 11q35 18 35 44q0 44 -92 159 l-193 256l-182 -215q-31 -35 -60.5 -87t-29.5 -83.5t3 -47t15 -26t20.5 -13.5t8.5 -5q0 -6 -27 -6l-131 2l-139 -2q-14 0 -15 6z" />
<glyph unicode="y" horiz-adv-x="1251" d="M16 1057q0 14 27 14l147 -6l146 6q39 0 39 -14q0 -7 -33 -29q-10 -10 -21.5 -23.5t-11.5 -38.5q0 -53 80 -202l299 -574l191 373q107 203 128 274.5t21 99.5q0 60 -57 91q-10 6 -24.5 14.5t-14.5 12.5q0 14 16 14l135 -4l138 4q6 0 12 -4t6 -8t-5 -8.5t-9 -8.5 q-89 -62 -250 -389l-334 -678q-80 -152 -182 -256q-74 -72 -154 -99q-74 -24 -168 -24h-14l55 179q6 20 12 20t11 -4q33 -61 121 -61t168 91q79 88 79 167.5t-32 148.5l-328 664q-93 193 -162 229q-12 6 -21.5 15.5t-9.5 13.5z" />
<glyph unicode="z" horiz-adv-x="1138" d="M61 4q0 16 29 45q18 23 36.5 42.5t37.5 41.5l639 803q28 35 28 53t-10 21.5t-30 3.5h-267q-189 0 -313 -111q-37 -33 -70 -69q-2 -6 -10 -7q-10 0 -10 11l76 227h835q33 0 33 -12t-18 -37l-676 -887q-25 -36 -25 -51q0 -27 39 -27h313q136 0 296 107q53 35 80 64.5 t34.5 29.5t7.5 -8t-4 -21l-74 -223h-968q-8 0 -9 4z" />
<glyph unicode="{" horiz-adv-x="681" d="M121 485q127 38 139 146q4 37 4 86v360q0 235 178 265q54 10 117 10v-31q-101 0 -138 -111q-15 -45 -15 -120v-345q0 -109 -35 -170t-142 -88v-4q106 -27 141.5 -88t35.5 -170v-352q0 -135 54 -191q38 -40 99 -40v-31q-147 0 -211 51q-84 67 -84 232v360q0 109 -20 143 q-34 61 -123 88z" />
<glyph unicode="|" horiz-adv-x="454" d="M168 0v1485h119v-1485h-119z" />
<glyph unicode="}" horiz-adv-x="681" d="M123 -358q101 0 138 110q15 45 15 121v352q0 109 35 170.5t142 87.5v4q-106 27 -141.5 88.5t-35.5 169.5v345q0 133 -54 190q-38 41 -99 41v31q146 0 211 -48q84 -61 84 -227v-360q0 -109 20 -143q33 -60 123 -89q-89 -27 -119 -81q-24 -41 -24 -150v-360 q0 -240 -178 -273q-54 -10 -117 -10v31z" />
<glyph unicode="~" horiz-adv-x="1228" d="M141 483q85 176 256 176q82 0 236 -69q59 -27 110.5 -48.5t86.5 -21.5t60 13.5t46.5 34t40 47t37.5 53.5l73 -86q-60 -87 -97 -116q-73 -60 -146.5 -60t-123.5 21.5t-102 47.5q-51 27 -105 48.5t-126 21.5q-106 0 -172 -148z" />
<glyph unicode="&#xa1;" horiz-adv-x="569" d="M180 -46.5q0 69.5 5 124.5t13 112q24 157 38 239q28 172 28 413h41q0 -251 35 -453q49 -302 49 -367t-2 -109t-13.5 -87t-31.5 -75t-57 -32q-61 0 -89 107q-16 58 -16 127.5zM184 995q0 41 29 71t72 30t70.5 -30t27.5 -71t-27.5 -69.5t-70.5 -28.5t-72 28.5t-29 69.5z " />
<glyph unicode="&#xa2;" d="M158 618q0 199 128 328q122 125 320 137v207h70v-205q133 -8 228 -39.5t124 -58.5l-41 -143q-8 -28 -20.5 -8t-30.5 61q-36 121 -287 135q-315 0 -315 -416q0 -170 78 -280q84 -119 229 -119q154 0 263 82q61 46 88.5 89.5t35.5 43.5q14 0 14 -14q0 -15 -6 -27 q-72 -111 -153.5 -164t-206.5 -61v-197h-70v197q-189 8 -316 133q-132 128 -132 319z" />
<glyph unicode="&#xa3;" d="M-25 88q0 49 33 96t82 82q109 78 219 78q72 0 189 -10q0 125 -41 289h-201l18 65h166q-37 145 -37 218t31 142.5t84 119.5q110 102 281 102q143 0 303 -105l-43 -143q-8 -25 -11.5 -37t-12.5 -12t-12 13t-16 49t-46 75t-72 64q-72 45 -165 45t-145.5 -57.5t-52.5 -148.5 t32 -169t58 -156h345l-23 -70h-295q25 -88 25 -155q0 -87 -33 -158q89 -30 207 -100q142 -72 214.5 -72t135.5 54.5t88 127.5q4 16 18 17q34 0 -2 -72q-32 -90 -125 -185q-104 -106 -194 -106q-103 0 -215 88q-47 37 -91 78t-98 72q-82 -109 -196.5 -169.5t-251.5 -60.5 q-150 0 -150 111zM121 155.5q0 -58.5 44 -82.5t91 -24t86 16.5t70 44.5q62 56 75 144q-70 39 -182 39q-56 0 -101 -27q-83 -52 -83 -110.5z" />
<glyph unicode="&#xa4;" d="M152 201l110 116q-109 135 -108.5 319.5t108.5 307.5l-110 113l81 84l113 -115q137 111 314.5 111t318.5 -111l117 115l80 -84l-113 -113q106 -127 106 -311.5t-106 -315.5l113 -116l-82 -82l-115 119q-131 -117 -318 -117t-315 117l-113 -119zM279 629q0 -160 113 -277 q111 -114 270 -114q162 0 272 117.5t110 273.5q0 160 -110 274q-113 117 -272 117t-272 -115q-111 -113 -111 -276z" />
<glyph unicode="&#xa5;" d="M-31 1257q0 11 17 11l170 -8l168 8q29 0 42 -1t13 -14q0 -6 -12.5 -10t-27.5 -14q-40 -27 -40 -57.5t12.5 -50t30.5 -44.5l354 -446l351 420q47 59 47 96q0 52 -39 80q-16 10 -28.5 15t-12.5 15t18 11l154 -8l153 8q23 0 23 -9t-26 -30t-45 -36t-35 -29q-30 -27 -74 -74 l-404 -478h254v-69h-309v-146h309v-69h-309v-86q0 -80 24.5 -140.5t102.5 -78.5q23 -6 22 -21q0 -10 -51 -10l-176 8l-178 -8q-51 0 -51 10q0 4 22 21q121 79 121 219v86h-303v69h303v146h-303v69h252l-436 545q-29 38 -76 78q-27 18 -27 22z" />
<glyph unicode="&#xa6;" horiz-adv-x="663" d="M168 0v618h119v-618h-119zM168 866v619h119v-619h-119z" />
<glyph unicode="&#xa7;" horiz-adv-x="1138" d="M135 593q0 141 135 249q-63 63 -63 186q0 138 117 232q114 92 272 92q90 0 185.5 -27t160.5 -92q-44 -51 -68 -127q-41 92 -123.5 143t-185.5 51q-102 0 -175 -56q-81 -61 -81 -161q0 -113 108 -182q51 -33 140 -55l252 -74q92 -27 142 -99.5t50 -168.5q0 -140 -110 -250 q80 -74 80 -183t-42 -183t-109 -120q-123 -87 -316 -87q-209 0 -344 83l24 179q57 -91 151 -150q97 -61 200 -61q219 0 303 138q30 48 30 109.5t-20.5 97.5t-53.5 61q-55 39 -161 69l-176 47q-138 31 -226 111q-96 87 -96 228zM217 644q0 -52 25.5 -94t65.5 -71.5t90.5 -48 t122 -41.5t162.5 -45t177 -70q59 72 60 164q0 123 -160 190q-77 32 -167.5 56.5t-138.5 40.5q-114 38 -155 82q-35 -23 -58.5 -67t-23.5 -96z" />
<glyph unicode="&#xa8;" horiz-adv-x="530" d="M-37 1333q0 41 28.5 71t71.5 30t71 -30t28 -71t-28 -69.5t-71 -28.5t-71.5 28.5t-28.5 69.5zM371 1333q0 41 28.5 71t71.5 30t70.5 -30t27.5 -71t-27.5 -69.5t-70.5 -28.5t-71.5 28.5t-28.5 69.5z" />
<glyph unicode="&#xa9;" horiz-adv-x="1638" d="M94 650q0 144 57.5 272.5t156 223.5t230 150.5t282.5 55.5t283 -55.5t230.5 -150.5t154.5 -223t56 -272.5t-56 -270.5t-154 -220q-211 -201 -515 -201q-150 0 -281.5 53.5t-230 147.5t-156 220t-57.5 270zM203 649q0 -123 49 -233.5t133 -194.5t196.5 -133t238.5 -49 t237.5 49t195.5 133t133.5 194.5t49.5 233.5t-48.5 235.5t-132.5 198.5t-196.5 137.5t-239.5 51.5t-238.5 -51.5t-195.5 -137.5t-133 -198.5t-49 -235.5zM412 668q0 145 112 258q132 131 353 131q113 0 221 -37q47 -12 47 -41v-141h-33q-7 117 -133 164q-45 16 -117 16 t-130 -25.5t-96 -70.5q-77 -91 -77 -246q0 -266 179 -346q61 -27 147 -27q188 0 262 174h33l-35 -139q0 -16 -15.5 -23.5t-43.5 -16.5q-108 -34 -211 -34t-185 22.5t-144 71.5q-134 106 -134 310z" />
<glyph unicode="&#xaa;" horiz-adv-x="751" d="M16 801.5q0 81.5 50.5 123.5t121.5 65q112 38 283 38h84q0 115 -27.5 150.5t-66.5 48t-88.5 12.5t-91 -6t-79.5 -19q-89 -32 -98 -98q0 -6 -6 -6t-6 4l-37 117q139 59 301 59q322 0 322 -239v-230q0 -158 47 -172q10 -4 10 -9t-10 -5l-53 2l-49 -2q-12 0 -17 6 q0 23 -10 55.5t-14 59.5h-2q-73 -142 -279 -142q-107 0 -190 50q-95 56 -95 137.5zM164 809q0 -82 49 -112.5t127 -30.5t121 22.5t63 59.5q31 56 31 194v35h-82q-309 0 -309 -168z" />
<glyph unicode="&#xab;" horiz-adv-x="1138" d="M215 535q120 138 264 395q23 -20 48.5 -39t56.5 -23l-258 -333l249 -336q-63 -12 -102 -66q-94 181 -258 402zM557 535q120 138 264 395q23 -20 48.5 -39t56.5 -23l-258 -333l250 -336q-63 -12 -103 -66q-94 181 -258 402z" />
<glyph unicode="&#xac;" horiz-adv-x="1228" d="M84 674v119h1061v-557h-119v438h-942z" />
<glyph unicode="&#xad;" horiz-adv-x="530" d="M12 473l37 119h469l-37 -119h-469z" />
<glyph unicode="&#xae;" horiz-adv-x="1638" d="M94 650q0 144 57.5 272.5t156 223.5t230 150.5t282.5 55.5t283 -55.5t230.5 -150.5t154.5 -223t56 -272.5t-56 -270.5t-154 -220q-211 -201 -515 -201q-150 0 -281.5 53.5t-230 147.5t-156 220t-57.5 270zM203 649q0 -123 49 -233.5t133 -194.5t196.5 -133t238.5 -49 t237.5 49t195.5 133t133.5 194.5t49.5 233.5t-48.5 235.5t-132.5 198.5t-196.5 137.5t-239.5 51.5t-238.5 -51.5t-195.5 -137.5t-133 -198.5t-49 -235.5zM475 285v30q81 8 92 18.5t12 29t1 53.5v489q0 72 -10 82q-14 13 -95 21v26h371q169 0 230 -100q22 -35 22 -98.5 t-50.5 -118.5t-123.5 -78l125 -164q105 -135 170 -172v-18h-127q-45 0 -108 90q-30 43 -68.5 103.5t-94.5 135.5h-112v-198q0 -70 10 -80q13 -13 96 -21v-30h-340zM709 653h100q80 0 120 51.5t40 138.5t-50.5 119.5t-115.5 32.5h-94v-342z" />
<glyph unicode="&#xaf;" horiz-adv-x="530" d="M-53 1278v108h639v-108h-639z" />
<glyph unicode="&#xb0;" horiz-adv-x="819" d="M117 997q0 123 85 208t208 85q124 0 208 -85q84 -86 84 -208q0 -123 -84.5 -207.5t-207.5 -84.5q-122 0 -208 85q-85 83 -85 207zM203 997q0 -92 57 -154.5t150 -62.5q92 0 149 62.5t57 154.5t-57 154.5t-149 62.5t-149.5 -62t-57.5 -155z" />
<glyph unicode="&#xb1;" horiz-adv-x="1228" d="M84 0v119h1061v-119h-1061zM84 588v119h471v358h119v-358h471v-119h-471v-361h-119v361h-471z" />
<glyph unicode="&#xb2;" horiz-adv-x="663" d="M47 516q0 10 15.5 46t49.5 82q61 83 240 163q131 57 180 119q48 58 48 147.5t-54.5 127.5t-142.5 38q-191 0 -266 -119q0 -6 -8 -6t-9 6l-30 107q133 63 323 63q132 0 227 -58q111 -67 111 -181q0 -79 -69 -147q-50 -49 -154 -85l-137 -45q-85 -24 -156 -84 q-55 -45 -55 -72h282q157 0 230 31q43 29 54 43q22 28 24 6q0 -8 -9 -26l-55 -156h-639z" />
<glyph unicode="&#xb3;" horiz-adv-x="663" d="M18 580l33 88q14 41 23.5 41t17.5 -33t37 -59.5t69 -42.5q66 -25 144 -25t124 8t81 27q78 44 78 137q0 88 -74 137q-64 41 -166 41h-51q-25 0 -47 -4v57q23 -2 45 -2h45q209 0 209 152q0 111 -118 131q-129 22 -220 -9q-58 -20 -103 -85q-14 -27 -24 -27q-4 0 -8 16 l-29 99q84 39 161 51t145.5 12t124.5 -8t105 -28q117 -49 117 -142q0 -83 -87 -132q-64 -37 -169 -52v-4q193 -26 265 -114q30 -36 30 -95.5t-40 -102.5t-100 -68q-108 -46 -229 -46q-236 0 -389 82z" />
<glyph unicode="&#xb4;" horiz-adv-x="530" d="M111 1194l303 301q44 51 92 51q23 0 44 -16.5t21 -48t-20.5 -51t-50.5 -41.5l-303 -195h-86z" />
<glyph unicode="&#xb6;" horiz-adv-x="1228" d="M172 905q0 293 232 378q81 30 196 28h508v-47q-144 -11 -162 -58q-6 -16 -6 -37v-1441h-119v1521h-125v-1521h-118v741q-204 0 -309 121q-97 111 -97 315z" />
<glyph unicode="&#xb7;" horiz-adv-x="663" d="M231 532q0 41 29 71t72 30t70.5 -30t27.5 -71t-27.5 -69.5t-70.5 -28.5t-72 28.5t-29 69.5z" />
<glyph unicode="&#xb8;" horiz-adv-x="530" d="M53 -408l29 64q72 -25 123 -25t86 18.5t35 76.5q0 69 -109 69q-18 0 -37.5 -6t-34.5 8l86 203h70l-51 -133q48 6 59 6q66 0 118 -35t52 -94t-22.5 -92t-56.5 -54q-64 -40 -135 -40q-142 0 -212 34z" />
<glyph unicode="&#xb9;" horiz-adv-x="663" d="M236 520q0 6 12 12q56 25 72 54.5t16 75.5v438q0 37 -8 72q-9 36 -76 49q-10 2 -10 10t13 11t24 7l180 54v-641q0 -45 14 -74t40.5 -41t27.5 -25q0 -8 -23 -8l-123 2l-121 -2q-38 0 -38 6z" />
<glyph unicode="&#xba;" horiz-adv-x="819" d="M14 952q0 148 121 245q116 93 273 93q158 0 274 -93q121 -97 121 -245q0 -147 -121 -244q-118 -94 -274 -94t-273 94q-121 97 -121 244zM166 952q0 -141 48 -206q60 -80 194 -80q201 0 233 170q10 53 10 116q0 141 -48 206q-60 81 -195 81q-199 0 -232 -171 q-10 -52 -10 -116z" />
<glyph unicode="&#xbb;" horiz-adv-x="1138" d="M213 195l258 333l-250 336q63 12 103 66q94 -181 258 -402q-115 -133 -265 -395q-64 56 -104 62zM555 195l258 333l-250 336q63 12 103 66q94 -181 258 -402q-115 -133 -265 -395q-64 56 -104 62z" />
<glyph unicode="&#xbc;" horiz-adv-x="663" d="M252 520q0 6 12 12q57 26 72.5 55t15.5 75v438q0 37 -8 72q-9 36 -76 49q-10 2 -10 10t13.5 11t23.5 7l180 54v-641q0 -45 14.5 -74t41 -41t26.5 -25q0 -8 -22 -8l-123 2l-121 -2q-39 0 -39 6zM346 -31l918 1321h102l-917 -1321h-103zM844 193q0 31 12 47t29 32l456 469 q10 10 17.5 19.5t14.5 16.5t21.5 7t14.5 -16v-518q149 0 190 53q8 10 15.5 18.5t11.5 14.5q10 8 14 8t5 -4v-2q0 -6 -3 -10l-47 -138h-186v-45q0 -45 19.5 -81.5t45 -44t36 -9.5t10.5 -7t-18 -5h-285q-20 0 -21 10q0 8 29 18q61 19 61 119v48h-442zM928 248h358v397h-2z" />
<glyph unicode="&#xbd;" horiz-adv-x="663" d="M248 520q0 6 12 12q57 26 72.5 55t15.5 75v438q0 37 -8 72q-9 36 -76 49q-10 2 -10 10t13.5 11t23.5 7l180 54v-641q0 -45 14.5 -74t41 -41t26.5 -25q0 -8 -23 -8l-122 2l-121 -2q-39 0 -39 6zM315 -31l924 1321h102l-923 -1321h-103zM1022 0q0 10 15.5 46t48.5 82 q61 83 241 163q131 57 181 119q46 57 46 147t-54 128t-142 38q-193 0 -266 -119q0 -6 -9 -6q-8 0 -8 6l-31 107q133 63 324 63q129 0 228 -58q110 -66 110 -181q0 -79 -70 -147q-53 -52 -153 -85l-137 -45q-85 -24 -156 -84q-55 -45 -55 -72h282q156 0 230 31q43 29 54 43 t17 14t6 -8t-8 -26l-55 -156h-639z" />
<glyph unicode="&#xbe;" horiz-adv-x="663" d="M123 580l33 88q14 41 23 41t17.5 -33t37 -59.5t68.5 -42.5q66 -25 144 -25t124 8t81 27q78 44 78 137q0 88 -73 137q-63 41 -167 41h-51q-25 0 -47 -4v57q23 -2 45 -2h45q209 0 209 152q0 111 -118 131q-128 22 -220 -9q-57 -20 -102 -85q-14 -27 -25 -27q-4 0 -8 16 l-29 99q84 39 161 51t145.5 12t125 -8t105.5 -28q117 -49 117 -142q0 -83 -87 -132q-64 -37 -169 -52v-4q191 -26 265 -114q30 -36 30 -95.5t-40 -102.5t-101 -68q-107 -46 -228 -46q-236 0 -389 82zM561 -31l924 1321h102l-923 -1321h-103zM1008 193q0 31 12 47t29 32 l456 469q10 10 17 19q19 24 35 24t16 -16v-518q149 0 190 53q8 10 15.5 18.5t11.5 14.5q10 8 14 8t4 -4v-2q0 -6 -2 -10l-47 -138h-186v-45q0 -45 19.5 -81.5t45 -44t35.5 -9.5t10 -7t-18 -5h-285q-20 0 -20 9t28 19q62 20 62 119v48h-442zM1092 248h358v395z" />
<glyph unicode="&#xbf;" horiz-adv-x="1024" d="M90 115q0 137 157 276q44 39 90 77t89 77t76 84q70 96 63 207h45q10 -147 -93 -304l-60 -90q-84 -122 -113 -176q-57 -108 -57 -229t78.5 -193.5t210.5 -72.5t222.5 73.5t135.5 194.5l59 -236q-193 -84 -393 -84q-209 0 -347 91q-163 109 -163 305zM487 997q0 41 28 70 t71 29t71.5 -29t28.5 -70t-28.5 -70.5t-71.5 -29.5t-71 29.5t-28 70.5z" />
<glyph unicode="&#xc0;" horiz-adv-x="1593" d="M-2 6q0 10 16.5 19.5t37 30t51 59.5t57.5 80q40 62 92 153l539 991q6 12 14 13h4q4 0 9 -4.5t5 -8.5l604 -1163q53 -95 129 -147q31 -20 31 -23q0 -10 -20 -10l-193 4l-207 -4q-16 0 -16 8t11.5 11t26.5 11q38 22 38 69q0 81 -99 274l-133 270h-524l-131 -248 q-14 -29 -30.5 -61.5t-29.5 -67.5q-30 -76 -30 -118q0 -68 51 -105q18 -14 37.5 -19.5t19.5 -14.5t-30 -9l-144 4l-149 -4q-37 0 -37 10zM496 690h479l-232 443zM508 1689q0 32 21.5 48t46.5 16q43 0 90 -51l303 -301h-86l-303 195q-31 23 -51.5 42t-20.5 51z" />
<glyph unicode="&#xc1;" horiz-adv-x="1593" d="M-2 6q0 10 16.5 19.5t37 30t51 59.5t57.5 80q40 62 92 153l539 991q6 12 14 13h4q4 0 9 -4.5t5 -8.5l604 -1163q53 -95 129 -147q31 -20 31 -23q0 -10 -20 -10l-193 4l-207 -4q-16 0 -16 8t11.5 11t26.5 11q38 22 38 69q0 81 -99 274l-133 270h-524l-131 -248 q-14 -29 -30.5 -61.5t-29.5 -67.5q-30 -76 -30 -118q0 -68 51 -105q18 -14 37.5 -19.5t19.5 -14.5t-30 -9l-144 4l-149 -4q-37 0 -37 10zM496 690h479l-232 443zM660 1401l303 301q44 51 92 51q23 0 44 -16.5t21 -48t-20.5 -51t-50.5 -41.5l-303 -195h-86z" />
<glyph unicode="&#xc2;" horiz-adv-x="1593" d="M-2 6q0 10 16.5 19.5t37 30t51 59.5t57.5 80q40 62 92 153l539 991q6 12 14 13h4q4 0 9 -4.5t5 -8.5l604 -1163q53 -95 129 -147q31 -20 31 -23q0 -10 -20 -10l-193 4l-207 -4q-16 0 -16 8t11.5 11t26.5 11q38 22 38 69q0 81 -99 274l-133 270h-524l-131 -248 q-14 -29 -30.5 -61.5t-29.5 -67.5q-30 -76 -30 -118q0 -68 51 -105q18 -14 37.5 -19.5t19.5 -14.5t-30 -9l-144 4l-149 -4q-37 0 -37 10zM496 690h479l-232 443zM496 1401l254 342h129l256 -342h-72l-248 211l-248 -211h-71z" />
<glyph unicode="&#xc3;" horiz-adv-x="1593" d="M-2 6q0 10 16.5 19.5t37 30t51 59.5t57.5 80q40 62 92 153l539 991q6 12 14 13h4q4 0 9 -4.5t5 -8.5l604 -1163q53 -95 129 -147q31 -20 31 -23q0 -10 -20 -10l-193 4l-207 -4q-16 0 -16 8t11.5 11t26.5 11q38 22 38 69q0 81 -99 274l-133 270h-524l-131 -248 q-14 -29 -30.5 -61.5t-29.5 -67.5q-30 -76 -30 -118q0 -68 51 -105q18 -14 37.5 -19.5t19.5 -14.5t-30 -9l-144 4l-149 -4q-37 0 -37 10zM477 1454q48 205 213 205q52 0 122.5 -31.5t104 -46t69.5 -14.5t67 30.5t41 71.5h59q-18 -94 -70.5 -154.5t-154.5 -60.5 q-61 0 -152 47q-35 16 -65.5 30.5t-66.5 14.5t-65.5 -25.5t-39.5 -66.5h-62zM496 690h479l-232 443z" />
<glyph unicode="&#xc4;" horiz-adv-x="1593" d="M-2 6q0 10 16.5 19.5t37 30t51 59.5t57.5 80q40 62 92 153l539 991q6 12 14 13h4q4 0 9 -4.5t5 -8.5l604 -1163q53 -95 129 -147q31 -20 31 -23q0 -10 -20 -10l-193 4l-207 -4q-16 0 -16 8t11.5 11t26.5 11q38 22 38 69q0 81 -99 274l-133 270h-524l-131 -248 q-14 -29 -30.5 -61.5t-29.5 -67.5q-30 -76 -30 -118q0 -68 51 -105q18 -14 37.5 -19.5t19.5 -14.5t-30 -9l-144 4l-149 -4q-37 0 -37 10zM496 690h479l-232 443zM512 1540q0 41 28.5 71t71.5 30t71 -30t28 -71t-28 -69.5t-71 -28.5t-71.5 28.5t-28.5 69.5zM920 1540 q0 41 28.5 71t71.5 30t70.5 -30t27.5 -71t-27.5 -69.5t-70.5 -28.5t-71.5 28.5t-28.5 69.5z" />
<glyph unicode="&#xc5;" horiz-adv-x="1593" d="M-2 6q0 10 16.5 19.5t37 30t51 59.5t57.5 80q40 62 92 153l539 991q6 12 14 13h4q4 0 9 -4.5t5 -8.5l604 -1163q53 -95 129 -147q31 -20 31 -23q0 -10 -20 -10l-193 4l-207 -4q-16 0 -16 8t11.5 11t26.5 11q38 22 38 69q0 81 -99 274l-133 270h-524l-131 -248 q-14 -29 -30.5 -61.5t-29.5 -67.5q-30 -76 -30 -118q0 -68 51 -105q18 -14 37.5 -19.5t19.5 -14.5t-30 -9l-144 4l-149 -4q-37 0 -37 10zM496 690h479l-232 443zM610 1606q0 85 61 145q60 58 144 58t143.5 -58.5t59.5 -144.5t-59.5 -145.5t-145.5 -59.5q-80 0 -142 60 q-61 60 -61 145zM690 1605q0 -56 36 -90t89 -34t88 33.5t35 90t-35 90.5t-88 34t-89 -34t-36 -90z" />
<glyph unicode="&#xc6;" horiz-adv-x="1972" d="M-135 6q0 6 30.5 31.5t53 50.5t49.5 53.5t52 58.5q62 74 85 111l565 832q39 55 39 89t-39 44t-38 20q0 15 47 15h1069l37 -119q12 -39 23 -74t11 -49t-10 -14t-18 8q-78 115 -212 156t-323 41h-213v-531h60q308 0 370 15.5t89 35.5q35 28 67 92q6 10 17 10.5t12 -30.5 v-303q0 -27 -11.5 -27t-18.5 14t-19.5 38t-37 41t-59.5 29.5t-88 19.5q-95 14 -321 14h-60v-356q0 -172 24.5 -211t57.5 -49.5t84 -10.5h94q271 0 463 111q64 33 113 100q18 23 30 23q23 0 0 -47l-75 -238h-1084q-16 0 -16 8t23.5 19.5t50.5 33.5q59 50 59 242v375h-451 l-186 -283q-139 -212 -139 -270q0 -35 15.5 -55.5t32.5 -34.5t32.5 -18.5t15.5 -13.5t-18 -9l-144 6l-170 -6q-20 0 -20 12zM485 729h412v508q0 43 -31 39q-23 0 -43 -26.5t-51 -73.5z" />
<glyph unicode="&#xc7;" horiz-adv-x="1554" d="M86 640q0 169 66.5 303t177.5 224q227 185 563 185t577 -183l-38 -118q-27 -76 -37 -76t-15 18q-57 164 -198 243q-114 64 -273 64t-268 -47t-183 -132q-153 -174 -153 -453q0 -281 147 -463q157 -195 435 -195q289 0 445 166q51 55 83 126q4 9 10 9q9 0 23 -49l33 -127 q-243 -176 -584 -176q-150 0 -295 44t-260 129t-185.5 212t-70.5 296zM671 -408l29 64q72 -25 123 -25t86 18.5t35 76.5q0 69 -109 69q-18 0 -37.5 -6t-34.5 8l86 203h70l-51 -133q48 6 59 6q66 0 118 -35t52 -94t-22.5 -92t-56.5 -54q-64 -40 -135 -40q-142 0 -212 34z" />
<glyph unicode="&#xc8;" horiz-adv-x="1441" d="M45 6q0 16 37 25.5t57.5 52.5t30.5 98q14 78 14 205v715q0 59 -11 107t-67 77q-14 8 -14 12q0 13 43 13h1090l37 -119q15 -46 22.5 -77.5t11.5 -45.5t4 -20t-8 -7q-13 0 -24 21q-78 115 -212 156t-323 41h-373v-531h199q336 0 417 27q71 24 109 116q6 10 15 11 q10 0 10 -33v-301q0 -33 -8 -33q-6 0 -14 16q-23 48 -64 76.5t-100.5 42t-125.5 19.5q-89 8 -239 8h-199v-266q0 -90 9.5 -185.5t25 -120t45.5 -36.5q46 -19 166.5 -19t199.5 3t156 14q172 26 291 92q49 29 73 53.5t50 56.5q10 10 19 11q10 0 10 -12.5t-4 -22.5l-82 -246 h-1245q-29 0 -29 6zM403 1689q0 32 21.5 48t46.5 16q43 0 90 -51l303 -301h-86l-303 195q-31 23 -51.5 42t-20.5 51z" />
<glyph unicode="&#xc9;" horiz-adv-x="1441" d="M45 6q0 16 37 25.5t57.5 52.5t30.5 98q14 78 14 205v715q0 59 -11 107t-67 77q-14 8 -14 12q0 13 43 13h1090l37 -119q15 -46 22.5 -77.5t11.5 -45.5t4 -20t-8 -7q-13 0 -24 21q-78 115 -212 156t-323 41h-373v-531h199q336 0 417 27q71 24 109 116q6 10 15 11 q10 0 10 -33v-301q0 -33 -8 -33q-6 0 -14 16q-23 48 -64 76.5t-100.5 42t-125.5 19.5q-89 8 -239 8h-199v-266q0 -90 9.5 -185.5t25 -120t45.5 -36.5q46 -19 166.5 -19t199.5 3t156 14q172 26 291 92q49 29 73 53.5t50 56.5q10 10 19 11q10 0 10 -12.5t-4 -22.5l-82 -246 h-1245q-29 0 -29 6zM555 1401l303 301q44 51 92 51q23 0 44 -16.5t21 -48t-20.5 -51t-50.5 -41.5l-303 -195h-86z" />
<glyph unicode="&#xca;" horiz-adv-x="1441" d="M45 6q0 16 37 25.5t57.5 52.5t30.5 98q14 78 14 205v715q0 59 -11 107t-67 77q-14 8 -14 12q0 13 43 13h1090l37 -119q15 -46 22.5 -77.5t11.5 -45.5t4 -20t-8 -7q-13 0 -24 21q-78 115 -212 156t-323 41h-373v-531h199q336 0 417 27q71 24 109 116q6 10 15 11 q10 0 10 -33v-301q0 -33 -8 -33q-6 0 -14 16q-23 48 -64 76.5t-100.5 42t-125.5 19.5q-89 8 -239 8h-199v-266q0 -90 9.5 -185.5t25 -120t45.5 -36.5q46 -19 166.5 -19t199.5 3t156 14q172 26 291 92q49 29 73 53.5t50 56.5q10 10 19 11q10 0 10 -12.5t-4 -22.5l-82 -246 h-1245q-29 0 -29 6zM391 1401l254 342h129l256 -342h-72l-248 211l-248 -211h-71z" />
<glyph unicode="&#xcb;" horiz-adv-x="1441" d="M45 6q0 16 37 25.5t57.5 52.5t30.5 98q14 78 14 205v715q0 59 -11 107t-67 77q-14 8 -14 12q0 13 43 13h1090l37 -119q15 -46 22.5 -77.5t11.5 -45.5t4 -20t-8 -7q-13 0 -24 21q-78 115 -212 156t-323 41h-373v-531h199q336 0 417 27q71 24 109 116q6 10 15 11 q10 0 10 -33v-301q0 -33 -8 -33q-6 0 -14 16q-23 48 -64 76.5t-100.5 42t-125.5 19.5q-89 8 -239 8h-199v-266q0 -90 9.5 -185.5t25 -120t45.5 -36.5q46 -19 166.5 -19t199.5 3t156 14q172 26 291 92q49 29 73 53.5t50 56.5q10 10 19 11q10 0 10 -12.5t-4 -22.5l-82 -246 h-1245q-29 0 -29 6zM407 1540q0 41 28.5 71t71.5 30t71 -30t28 -71t-28 -69.5t-71 -28.5t-71.5 28.5t-28.5 69.5zM815 1540q0 41 28.5 71t71.5 30t70.5 -30t27.5 -71t-27.5 -69.5t-70.5 -28.5t-71.5 28.5t-28.5 69.5z" />
<glyph unicode="&#xcc;" horiz-adv-x="569" d="M-33 1689q0 32 21.5 48t46.5 16q43 0 90 -51l303 -301h-86l-303 195q-31 23 -51.5 42t-20.5 51zM71.5 0q0.5 6 9.5 10t19 13q88 58 95 263q2 56 2 105v721q0 151 -76 180q-6 4 -10.5 6t-4.5 10.5t6.5 9.5t26.5 1l146 -8l143 8q35 0 35 -12t-14 -15q-51 -14 -63.5 -67.5 t-12.5 -112.5v-721q0 -181 10 -235q20 -108 82 -138q23 -8 22 -18q0 -6 -22 -6l-180 6l-189 -6q-25 0 -24.5 6z" />
<glyph unicode="&#xcd;" horiz-adv-x="569" d="M71.5 0q0.5 6 9.5 10t19 13q88 58 95 263q2 56 2 105v721q0 151 -76 180q-6 4 -10.5 6t-4.5 10.5t6.5 9.5t26.5 1l146 -8l143 8q35 0 35 -12t-14 -15q-51 -14 -63.5 -67.5t-12.5 -112.5v-721q0 -181 10 -235q20 -108 82 -138q23 -8 22 -18q0 -6 -22 -6l-180 6l-189 -6 q-25 0 -24.5 6zM119 1401l303 301q44 51 92 51q23 0 44 -16.5t21 -48t-20.5 -51t-50.5 -41.5l-303 -195h-86z" />
<glyph unicode="&#xce;" horiz-adv-x="569" d="M-45 1401l254 342h129l256 -342h-72l-248 211l-248 -211h-71zM71.5 0q0.5 6 9.5 10t19 13q88 58 95 263q2 56 2 105v721q0 151 -76 180q-6 4 -10.5 6t-4.5 10.5t6.5 9.5t26.5 1l146 -8l143 8q35 0 35 -12t-14 -15q-51 -14 -63.5 -67.5t-12.5 -112.5v-721q0 -181 10 -235 q20 -108 82 -138q23 -8 22 -18q0 -6 -22 -6l-180 6l-189 -6q-25 0 -24.5 6z" />
<glyph unicode="&#xcf;" horiz-adv-x="569" d="M-29 1540q0 41 28.5 71t71.5 30t71 -30t28 -71t-28 -69.5t-71 -28.5t-71.5 28.5t-28.5 69.5zM71.5 0q0.5 6 9.5 10t19 13q88 58 95 263q2 56 2 105v721q0 151 -76 180q-6 4 -10.5 6t-4.5 10.5t6.5 9.5t26.5 1l146 -8l143 8q35 0 35 -12t-14 -15q-51 -14 -63.5 -67.5 t-12.5 -112.5v-721q0 -181 10 -235q20 -108 82 -138q23 -8 22 -18q0 -6 -22 -6l-180 6l-189 -6q-25 0 -24.5 6zM379 1540q0 41 28.5 71t71.5 30t70.5 -30t27.5 -71t-27.5 -69.5t-70.5 -28.5t-71.5 28.5t-28.5 69.5z" />
<glyph unicode="&#xd0;" horiz-adv-x="663" d="M29 678v51h159v307q0 185 -44 222q-15 14 -29 21t-20.5 11t-6.5 13q0 16 62 16h628q361 0 572 -195q96 -88 143 -203.5t47 -247.5t-48 -251t-136 -209q-185 -189 -492 -213q-76 -6 -157 -6l-240 6h-234l-167 -8q-14 0 -15 6q0 8 32 25.5t54.5 41t33.5 58.5q17 54 17 217 v338h-159zM365 377q0 -184 22.5 -236.5t47 -67t72.5 -19.5q86 -9 169.5 -9t177 8t183 44t151.5 110q133 157 133 477q0 316 -151 454q-144 130 -461 130h-344v-539h368v-51h-368v-301z" />
<glyph unicode="&#xd1;" horiz-adv-x="1554" d="M14 3q0 9 30 17.5t52 28.5q49 43 68.5 113.5t19.5 208.5v702q-2 82 -20.5 137.5t-89.5 79.5q-18 8 -19 15q0 14 27 14l151 -8q88 0 154 4q93 -132 250 -289l682 -727v684q0 131 -37 199.5t-67.5 86t-44 20.5t-13.5 11q0 18 35 19l160 -8l141 8q35 0 35 -16 q0 -8 -25.5 -19.5t-46 -28t-36.5 -49.5q-36 -76 -36 -223v-829q0 -195 -20 -195h-4q-13 0 -38 32q-32 40 -130 155t-211 241.5t-235 260.5q-267 292 -496 513v-833q0 -232 104 -297q23 -14 33 -17.5t10 -11.5t-16 -8l-164 6l-180 -6q-23 0 -23 9zM471 1454q48 205 213 205 q52 0 122.5 -31.5t104 -46t69.5 -14.5t67 30.5t41 71.5h59q-18 -94 -70.5 -154.5t-154.5 -60.5q-61 0 -152 47q-35 16 -65.5 30.5t-66.5 14.5t-65.5 -25.5t-39.5 -66.5h-62z" />
<glyph unicode="&#xd2;" horiz-adv-x="1705" d="M86 658.5q0 164.5 65.5 292.5t173 217t246 136.5t282.5 47.5t281.5 -47.5t245 -136.5t173 -217t65.5 -293t-65.5 -295t-173 -220t-245 -137t-281.5 -47t-282.5 47t-246 137t-173 220.5t-65.5 295zM305 641q0 -445 299 -583q103 -48 248 -48q280 0 420 181 q127 165 127 450q0 471 -297 610q-105 49 -250 49q-277 0 -418 -185q-129 -168 -129 -474zM547 1689q0 32 21.5 48t46.5 16q43 0 90 -51l303 -301h-86l-303 195q-31 23 -51.5 42t-20.5 51z" />
<glyph unicode="&#xd3;" horiz-adv-x="1705" d="M86 658.5q0 164.5 65.5 292.5t173 217t246 136.5t282.5 47.5t281.5 -47.5t245 -136.5t173 -217t65.5 -293t-65.5 -295t-173 -220t-245 -137t-281.5 -47t-282.5 47t-246 137t-173 220.5t-65.5 295zM305 641q0 -445 299 -583q103 -48 248 -48q280 0 420 181 q127 165 127 450q0 471 -297 610q-105 49 -250 49q-277 0 -418 -185q-129 -168 -129 -474zM699 1401l303 301q44 51 92 51q23 0 44 -16.5t21 -48t-20.5 -51t-50.5 -41.5l-303 -195h-86z" />
<glyph unicode="&#xd4;" horiz-adv-x="1705" d="M86 658.5q0 164.5 65.5 292.5t173 217t246 136.5t282.5 47.5t281.5 -47.5t245 -136.5t173 -217t65.5 -293t-65.5 -295t-173 -220t-245 -137t-281.5 -47t-282.5 47t-246 137t-173 220.5t-65.5 295zM305 641q0 -445 299 -583q103 -48 248 -48q280 0 420 181 q127 165 127 450q0 471 -297 610q-105 49 -250 49q-277 0 -418 -185q-129 -168 -129 -474zM535 1401l254 342h129l256 -342h-72l-248 211l-248 -211h-71z" />
<glyph unicode="&#xd5;" horiz-adv-x="1705" d="M86 658.5q0 164.5 65.5 292.5t173 217t246 136.5t282.5 47.5t281.5 -47.5t245 -136.5t173 -217t65.5 -293t-65.5 -295t-173 -220t-245 -137t-281.5 -47t-282.5 47t-246 137t-173 220.5t-65.5 295zM305 641q0 -445 299 -583q103 -48 248 -48q280 0 420 181 q127 165 127 450q0 471 -297 610q-105 49 -250 49q-277 0 -418 -185q-129 -168 -129 -474zM516 1454q48 205 213 205q52 0 122.5 -31.5t104 -46t69.5 -14.5t67 30.5t41 71.5h59q-18 -94 -70.5 -154.5t-154.5 -60.5q-61 0 -152 47q-35 16 -65.5 30.5t-66.5 14.5t-65.5 -25.5 t-39.5 -66.5h-62z" />
<glyph unicode="&#xd6;" horiz-adv-x="1705" d="M86 658.5q0 164.5 65.5 292.5t173 217t246 136.5t282.5 47.5t281.5 -47.5t245 -136.5t173 -217t65.5 -293t-65.5 -295t-173 -220t-245 -137t-281.5 -47t-282.5 47t-246 137t-173 220.5t-65.5 295zM305 641q0 -445 299 -583q103 -48 248 -48q280 0 420 181 q127 165 127 450q0 471 -297 610q-105 49 -250 49q-277 0 -418 -185q-129 -168 -129 -474zM551 1540q0 41 28.5 71t71.5 30t71 -30t28 -71t-28 -69.5t-71 -28.5t-71.5 28.5t-28.5 69.5zM959 1540q0 41 28.5 71t71.5 30t70.5 -30t27.5 -71t-27.5 -69.5t-70.5 -28.5 t-71.5 28.5t-28.5 69.5z" />
<glyph unicode="&#xd7;" horiz-adv-x="663" d="M84 86l446 446l-446 447l84 84l446 -447l447 447l84 -84l-447 -447l447 -446l-84 -84l-447 447l-446 -447z" />
<glyph unicode="&#xd8;" horiz-adv-x="1705" d="M49 -135l268 287q-231 200 -231 507q0 164 65.5 292t173 217t246 136.5t281.5 47.5q252 0 459 -133l215 229l104 2l-258 -276q111 -88 178.5 -218.5t67.5 -296.5t-65.5 -296t-173 -220t-245 -137t-282.5 -47q-264 0 -475 147l-225 -241h-103zM305 641q0 -244 94 -401 l846 907q-140 153 -393 153q-277 0 -418 -185q-129 -168 -129 -474zM444 178q142 -168 408 -168q280 0 420 181q127 165 127 450q0 279 -109 444z" />
<glyph unicode="&#xd9;" horiz-adv-x="1593" d="M90 1308.5q0 10.5 23 10.5l151 -8l180 8q31 0 31 -10q0 -13 -30 -23t-47 -38.5t-25 -67.5q-13 -63 -13 -181v-514q0 -333 254 -439q86 -36 205 -36t217.5 22.5t167.5 81.5q146 122 146 418v449q0 135 -26 202.5t-87 96.5q-41 18 -41 29q0 10 15.5 10t25.5 -1t29 -3 q37 -4 120 -4l146 4q42 0 11 -19q-11 -6 -31.5 -18t-41 -32.5t-32.5 -53.5q-23 -59 -23 -211v-414q0 -355 -163 -493q-78 -66 -191 -90.5t-271.5 -24.5t-278.5 30.5t-193 92.5q-134 114 -134 356v674q0 138 -42 163q-11 7 -31.5 15t-20.5 18.5zM532 1689q0 32 21.5 48 t46.5 16q43 0 90 -51l303 -301h-86l-303 195q-31 23 -51.5 42t-20.5 51z" />
<glyph unicode="&#xda;" horiz-adv-x="1593" d="M90 1308.5q0 10.5 23 10.5l151 -8l180 8q31 0 31 -10q0 -13 -30 -23t-47 -38.5t-25 -67.5q-13 -63 -13 -181v-514q0 -333 254 -439q86 -36 205 -36t217.5 22.5t167.5 81.5q146 122 146 418v449q0 135 -26 202.5t-87 96.5q-41 18 -41 29q0 10 15.5 10t25.5 -1t29 -3 q37 -4 120 -4l146 4q42 0 11 -19q-11 -6 -31.5 -18t-41 -32.5t-32.5 -53.5q-23 -59 -23 -211v-414q0 -355 -163 -493q-78 -66 -191 -90.5t-271.5 -24.5t-278.5 30.5t-193 92.5q-134 114 -134 356v674q0 138 -42 163q-11 7 -31.5 15t-20.5 18.5zM684 1401l303 301 q44 51 92 51q23 0 44 -16.5t21 -48t-20.5 -51t-50.5 -41.5l-303 -195h-86z" />
<glyph unicode="&#xdb;" horiz-adv-x="1593" d="M90 1308.5q0 10.5 23 10.5l151 -8l180 8q31 0 31 -10q0 -13 -30 -23t-47 -38.5t-25 -67.5q-13 -63 -13 -181v-514q0 -333 254 -439q86 -36 205 -36t217.5 22.5t167.5 81.5q146 122 146 418v449q0 135 -26 202.5t-87 96.5q-41 18 -41 29q0 10 15.5 10t25.5 -1t29 -3 q37 -4 120 -4l146 4q42 0 11 -19q-11 -6 -31.5 -18t-41 -32.5t-32.5 -53.5q-23 -59 -23 -211v-414q0 -355 -163 -493q-78 -66 -191 -90.5t-271.5 -24.5t-278.5 30.5t-193 92.5q-134 114 -134 356v674q0 138 -42 163q-11 7 -31.5 15t-20.5 18.5zM520 1401l254 342h129 l256 -342h-72l-248 211l-248 -211h-71z" />
<glyph unicode="&#xdc;" horiz-adv-x="1593" d="M90 1308.5q0 10.5 23 10.5l151 -8l180 8q31 0 31 -10q0 -13 -30 -23t-47 -38.5t-25 -67.5q-13 -63 -13 -181v-514q0 -333 254 -439q86 -36 205 -36t217.5 22.5t167.5 81.5q146 122 146 418v449q0 135 -26 202.5t-87 96.5q-41 18 -41 29q0 10 15.5 10t25.5 -1t29 -3 q37 -4 120 -4l146 4q42 0 11 -19q-11 -6 -31.5 -18t-41 -32.5t-32.5 -53.5q-23 -59 -23 -211v-414q0 -355 -163 -493q-78 -66 -191 -90.5t-271.5 -24.5t-278.5 30.5t-193 92.5q-134 114 -134 356v674q0 138 -42 163q-11 7 -31.5 15t-20.5 18.5zM536 1540q0 41 28.5 71 t71.5 30t71 -30t28 -71t-28 -69.5t-71 -28.5t-71.5 28.5t-28.5 69.5zM944 1540q0 41 28.5 71t71.5 30t70.5 -30t27.5 -71t-27.5 -69.5t-70.5 -28.5t-71.5 28.5t-28.5 69.5z" />
<glyph unicode="&#xdd;" horiz-adv-x="663" d="M-2 1307.5q0 11.5 14 11.5l181 -8l225 8q16 0 16 -16q0 -4 -10 -6.5t-26 -7.5q-48 -16 -48 -61.5t32 -98t91 -123.5l289 -349l231 267q18 23 50 59.5t62 76.5q73 97 73 143q0 70 -66 89q-4 2 -11 5t-7 12.5t10 9.5h4l154 -6l143 6h31q10 -4 10 -13t-14 -22 q-133 -105 -296 -284q-46 -50 -81 -95l-264 -321v-281q0 -168 28 -223q23 -45 73 -64q21 -8 21 -14t-22 -6l-182 4l-197 -4q-18 0 -18 7t21.5 14.5t39.5 25.5t28.5 37.5t17.5 49.5q13 56 13 173v260l-309 410q-25 29 -89 108q-110 134 -140.5 161t-54 40.5t-23.5 25z M572 1401l303 301q44 51 92 51q23 0 44 -16.5t21 -48t-20.5 -51t-50.5 -41.5l-303 -195h-86z" />
<glyph unicode="&#xde;" horiz-adv-x="663" d="M59 0q0 6 9.5 10t19.5 13q87 57 94 263q2 56 2 105v721q0 151 -75 180q-6 4 -10.5 6t-4.5 10.5t6 9.5t27 1l145 -8l144 8q35 0 35 -12t-15 -15q-51 -14 -63.5 -67.5t-12.5 -112.5v-68h283q330 0 505 -97q167 -93 167 -242q0 -275 -487 -345q-143 -20 -304 -20l-164 2 q0 -123 14.5 -209t78.5 -115q23 -8 22 -18q0 -6 -22 -6l-181 6l-188 -6q-25 0 -25 6zM360 397q59 -6 130 -6t177.5 6t202 36t161 93.5t65.5 161t-31 149.5t-82 83q-123 73 -485 73h-69t-69 -2v-594z" />
<glyph unicode="&#xdf;" horiz-adv-x="1290" d="M59 1q0 5 9.5 9t19.5 15q64 52 64 180v753q-4 241 114 382q122 145 334 145q329 0 439 -183q42 -69 42 -196t-89 -206t-224 -95v-4q186 -17 310 -115q132 -106 132 -289q0 -192 -124 -310q-123 -118 -314 -118q-108 0 -197 37l-22 154q-2 12 -2 18v12q0 14 8 14.5 t12 -3.5q40 -92 67 -122q55 -59 135.5 -59t124.5 38t70 94q46 95 46 205t-18.5 179.5t-58.5 121.5q-87 112 -253 108l-53 -4q-35 0 -35 29t35 28l53 -2q119 0 176 93q45 75 45 212t-71.5 224.5t-229.5 87.5q-251 0 -290 -243q-11 -73 -11 -153v-577q0 -357 80 -422 q14 -12 31.5 -19.5t17.5 -15.5t-20 -8l-185 4l-145 -4q-23 0 -23 5z" />
<glyph unicode="&#xe0;" horiz-adv-x="1251" d="M74 297q0 206 262 298q176 62 436 62h156q0 195 -66 284q-76 103 -262 103q-129 0 -242 -58q-140 -72 -151 -181q0 -8 -8 -8t-11 6l-55 194q226 99 461 99q498 0 498 -400v-389q0 -259 71 -280q16 -6 17 -17q0 -14 -19 -14l-80 4l-75 -4q-12 0 -18.5 6t-6.5 27.5 t-15.5 77t-19.5 98.5h-4q-66 -131 -178.5 -183.5t-253.5 -52.5q-169 0 -292 80q-144 93 -144 248zM270 293q0 -129 90 -204q83 -69 206.5 -69t193 42t106.5 112q62 117 62 342v90h-152q-216 0 -334 -54q-172 -78 -172 -259zM319 1482q0 32 21.5 48t46.5 16q43 0 90 -51 l303 -301h-86l-303 195q-31 23 -51.5 42t-20.5 51z" />
<glyph unicode="&#xe1;" horiz-adv-x="1251" d="M74 297q0 206 262 298q176 62 436 62h156q0 195 -66 284q-76 103 -262 103q-129 0 -242 -58q-140 -72 -151 -181q0 -8 -8 -8t-11 6l-55 194q226 99 461 99q498 0 498 -400v-389q0 -259 71 -280q16 -6 17 -17q0 -14 -19 -14l-80 4l-75 -4q-12 0 -18.5 6t-6.5 27.5 t-15.5 77t-19.5 98.5h-4q-66 -131 -178.5 -183.5t-253.5 -52.5q-169 0 -292 80q-144 93 -144 248zM270 293q0 -129 90 -204q83 -69 206.5 -69t193 42t106.5 112q62 117 62 342v90h-152q-216 0 -334 -54q-172 -78 -172 -259zM471 1194l303 301q44 51 92 51q23 0 44 -16.5 t21 -48t-20.5 -51t-50.5 -41.5l-303 -195h-86z" />
<glyph unicode="&#xe2;" horiz-adv-x="1251" d="M74 297q0 206 262 298q176 62 436 62h156q0 195 -66 284q-76 103 -262 103q-129 0 -242 -58q-140 -72 -151 -181q0 -8 -8 -8t-11 6l-55 194q226 99 461 99q498 0 498 -400v-389q0 -259 71 -280q16 -6 17 -17q0 -14 -19 -14l-80 4l-75 -4q-12 0 -18.5 6t-6.5 27.5 t-15.5 77t-19.5 98.5h-4q-66 -131 -178.5 -183.5t-253.5 -52.5q-169 0 -292 80q-144 93 -144 248zM270 293q0 -129 90 -204q83 -69 206.5 -69t193 42t106.5 112q62 117 62 342v90h-152q-216 0 -334 -54q-172 -78 -172 -259zM307 1194l254 342h129l256 -342h-72l-248 211 l-248 -211h-71z" />
<glyph unicode="&#xe3;" horiz-adv-x="1251" d="M74 297q0 206 262 298q176 62 436 62h156q0 195 -66 284q-76 103 -262 103q-129 0 -242 -58q-140 -72 -151 -181q0 -8 -8 -8t-11 6l-55 194q226 99 461 99q498 0 498 -400v-389q0 -259 71 -280q16 -6 17 -17q0 -14 -19 -14l-80 4l-75 -4q-12 0 -18.5 6t-6.5 27.5 t-15.5 77t-19.5 98.5h-4q-66 -131 -178.5 -183.5t-253.5 -52.5q-169 0 -292 80q-144 93 -144 248zM270 293q0 -129 90 -204q83 -69 206.5 -69t193 42t106.5 112q62 117 62 342v90h-152q-216 0 -334 -54q-172 -78 -172 -259zM288 1247q48 205 213 205q52 0 122.5 -31.5 t104 -46t69.5 -14.5t67 30.5t41 71.5h59q-18 -94 -70.5 -154.5t-154.5 -60.5q-61 0 -152 47q-35 16 -65.5 30.5t-66.5 14.5t-65.5 -25.5t-39.5 -66.5h-62z" />
<glyph unicode="&#xe4;" horiz-adv-x="1251" d="M74 297q0 206 262 298q176 62 436 62h156q0 195 -66 284q-76 103 -262 103q-129 0 -242 -58q-140 -72 -151 -181q0 -8 -8 -8t-11 6l-55 194q226 99 461 99q498 0 498 -400v-389q0 -259 71 -280q16 -6 17 -17q0 -14 -19 -14l-80 4l-75 -4q-12 0 -18.5 6t-6.5 27.5 t-15.5 77t-19.5 98.5h-4q-66 -131 -178.5 -183.5t-253.5 -52.5q-169 0 -292 80q-144 93 -144 248zM270 293q0 -129 90 -204q83 -69 206.5 -69t193 42t106.5 112q62 117 62 342v90h-152q-216 0 -334 -54q-172 -78 -172 -259zM323 1333q0 41 28.5 71t71.5 30t71 -30t28 -71 t-28 -69.5t-71 -28.5t-71.5 28.5t-28.5 69.5zM731 1333q0 41 28.5 71t71.5 30t70.5 -30t27.5 -71t-27.5 -69.5t-70.5 -28.5t-71.5 28.5t-28.5 69.5z" />
<glyph unicode="&#xe5;" horiz-adv-x="1251" d="M74 297q0 206 262 298q176 62 436 62h156q0 195 -66 284q-76 103 -262 103q-129 0 -242 -58q-140 -72 -151 -181q0 -8 -8 -8t-11 6l-55 194q226 99 461 99q498 0 498 -400v-389q0 -259 71 -280q16 -6 17 -17q0 -14 -19 -14l-80 4l-75 -4q-12 0 -18.5 6t-6.5 27.5 t-15.5 77t-19.5 98.5h-4q-66 -131 -178.5 -183.5t-253.5 -52.5q-169 0 -292 80q-144 93 -144 248zM270 293q0 -129 90 -204q83 -69 206.5 -69t193 42t106.5 112q62 117 62 342v90h-152q-216 0 -334 -54q-172 -78 -172 -259zM421 1399q0 85 61 145q60 58 144 58t143.5 -58.5 t59.5 -144.5t-59.5 -145.5t-145.5 -59.5q-80 0 -142 60q-61 60 -61 145zM501 1398q0 -56 36 -90t89 -34t88 33.5t35 90t-35 90.5t-88 34t-89 -34t-36 -90z" />
<glyph unicode="&#xe6;" horiz-adv-x="2048" d="M61 287q0 132 125 225q99 73 270 114q133 31 263 31h170v48q0 185 -116 273q-87 66 -220 66q-124 0 -225 -61q-116 -70 -131 -176q-2 -14 -17 -14q-6 0 -16 30l-47 170q117 41 231.5 72t240.5 31t234.5 -38t190.5 -140q178 178 409 178q203 0 369 -122q76 -56 125 -133 t53 -165h-915q-15 -86 -15 -101q0 -383 234 -503q84 -43 203 -43t203.5 47t140 107.5t83 117.5t30.5 84t20 27q22 0 22 -29q0 -73 -86 -193q-158 -221 -491 -221q-134 0 -277 78q-152 84 -190 205h-4q-89 -283 -408 -283q-186 0 -312 73q-147 86 -147 245zM258 305 q0 -135 80 -210t215 -75q167 0 257 140q79 124 79 307v139h-176q-166 0 -297 -66q-68 -34 -113 -92.5t-45 -142.5zM1059 727h715q0 146 -97 233q-93 84 -249 84q-295 0 -369 -317z" />
<glyph unicode="&#xe7;" horiz-adv-x="1214" d="M76 524q0 254 172 415q167 157 428 157q152 -4 256 -35q159 -48 207 -88l-52 -174q-6 -18 -14 -19q-9 0 -47 82q-30 91 -146 140q-86 37 -204 42q-213 0 -318 -158q-86 -130 -86 -364q0 -211 104 -349q115 -153 316 -153q159 0 291 107q70 57 133 147q12 23 22 23 q17 0 17 -19.5t-8 -31.5q-96 -143 -215 -210t-257.5 -67t-243.5 41t-184 115q-171 160 -171 399zM467 -408l29 64q72 -25 123 -25t86 18.5t35 76.5q0 69 -109 69q-18 0 -37.5 -6t-34.5 8l86 203h70l-51 -133q48 6 59 6q66 0 118 -35t52 -94t-22.5 -92t-56.5 -54 q-64 -40 -135 -40q-142 0 -212 34z" />
<glyph unicode="&#xe8;" horiz-adv-x="1290" d="M76 547q0 100 40 198.5t114 176.5q168 174 423 174q212 0 365 -107q167 -116 182 -313h-915q-13 -75 -13 -144.5t22.5 -168.5t73.5 -173q111 -161 341 -161q202 0 345 157q58 62 89 122.5t34 77.5q6 36 24.5 36t19 -22t-10.5 -48q-58 -181 -216 -282q-155 -101 -365 -101 q-237 0 -395 172q-158 171 -158 406zM289 727h715q0 146 -97 233q-93 84 -249 84q-295 0 -369 -317zM365 1482q0 32 21.5 48t46.5 16q43 0 90 -51l303 -301h-86l-303 195q-31 23 -51.5 42t-20.5 51z" />
<glyph unicode="&#xe9;" horiz-adv-x="1290" d="M76 547q0 100 40 198.5t114 176.5q168 174 423 174q212 0 365 -107q167 -116 182 -313h-915q-13 -75 -13 -144.5t22.5 -168.5t73.5 -173q111 -161 341 -161q202 0 345 157q58 62 89 122.5t34 77.5q6 36 24.5 36t19 -22t-10.5 -48q-58 -181 -216 -282q-155 -101 -365 -101 q-237 0 -395 172q-158 171 -158 406zM289 727h715q0 146 -97 233q-93 84 -249 84q-295 0 -369 -317zM517 1194l303 301q44 51 92 51q23 0 44 -16.5t21 -48t-20.5 -51t-50.5 -41.5l-303 -195h-86z" />
<glyph unicode="&#xea;" horiz-adv-x="1290" d="M76 547q0 100 40 198.5t114 176.5q168 174 423 174q212 0 365 -107q167 -116 182 -313h-915q-13 -75 -13 -144.5t22.5 -168.5t73.5 -173q111 -161 341 -161q202 0 345 157q58 62 89 122.5t34 77.5q6 36 24.5 36t19 -22t-10.5 -48q-58 -181 -216 -282q-155 -101 -365 -101 q-237 0 -395 172q-158 171 -158 406zM289 727h715q0 146 -97 233q-93 84 -249 84q-295 0 -369 -317zM353 1194l254 342h129l256 -342h-72l-248 211l-248 -211h-71z" />
<glyph unicode="&#xeb;" horiz-adv-x="1290" d="M76 547q0 100 40 198.5t114 176.5q168 174 423 174q212 0 365 -107q167 -116 182 -313h-915q-13 -75 -13 -144.5t22.5 -168.5t73.5 -173q111 -161 341 -161q202 0 345 157q58 62 89 122.5t34 77.5q6 36 24.5 36t19 -22t-10.5 -48q-58 -181 -216 -282q-155 -101 -365 -101 q-237 0 -395 172q-158 171 -158 406zM289 727h715q0 146 -97 233q-93 84 -249 84q-295 0 -369 -317zM369 1333q0 41 28.5 71t71.5 30t71 -30t28 -71t-28 -69.5t-71 -28.5t-71.5 28.5t-28.5 69.5zM777 1333q0 41 28.5 71t71.5 30t70.5 -30t27.5 -71t-27.5 -69.5t-70.5 -28.5 t-71.5 28.5t-28.5 69.5z" />
<glyph unicode="&#xec;" horiz-adv-x="530" d="M-64 1482q0 32 21.5 48t46.5 16q43 0 90 -51l303 -301h-86l-303 195q-31 23 -51.5 42t-20.5 51zM86 5q0 9 31 22.5t46 35t23 55.5q11 52 11 201v599q0 31 -21.5 41t-43 21t-21.5 16t14 10l223 59v-700q0 -172 24.5 -253t61.5 -92q14 -4 23.5 -6t9.5 -10t-25 -8l-170 4 l-170 -4q-16 0 -16 9z" />
<glyph unicode="&#xed;" horiz-adv-x="530" d="M86 5q0 9 31 22.5t46 35t23 55.5q11 52 11 201v599q0 31 -21.5 41t-43 21t-21.5 16t14 10l223 59v-700q0 -172 24.5 -253t61.5 -92q14 -4 23.5 -6t9.5 -10t-25 -8l-170 4l-170 -4q-16 0 -16 9zM88 1194l303 301q44 51 92 51q23 0 44 -16.5t21 -48t-20.5 -51t-50.5 -41.5 l-303 -195h-86z" />
<glyph unicode="&#xee;" horiz-adv-x="530" d="M-76 1194l254 342h129l256 -342h-72l-248 211l-248 -211h-71zM86 5q0 9 31 22.5t46 35t23 55.5q11 52 11 201v599q0 31 -21.5 41t-43 21t-21.5 16t14 10l223 59v-700q0 -172 24.5 -253t61.5 -92q14 -4 23.5 -6t9.5 -10t-25 -8l-170 4l-170 -4q-16 0 -16 9z" />
<glyph unicode="&#xef;" horiz-adv-x="530" d="M-60 1333q0 41 28.5 71t71.5 30t71 -30t28 -71t-28 -69.5t-71 -28.5t-71.5 28.5t-28.5 69.5zM86 5q0 9 31 22.5t46 35t23 55.5q11 52 11 201v599q0 31 -21.5 41t-43 21t-21.5 16t14 10l223 59v-700q0 -172 24.5 -253t61.5 -92q14 -4 23.5 -6t9.5 -10t-25 -8l-170 4 l-170 -4q-16 0 -16 9zM348 1333q0 41 28.5 71t71.5 30t70.5 -30t27.5 -71t-27.5 -69.5t-70.5 -28.5t-71.5 28.5t-28.5 69.5z" />
<glyph unicode="&#xf0;" horiz-adv-x="663" d="M76 532q0 245 187 408q179 156 419 156q98 0 203 -39l4 4q-102 117 -250 215l-291 -121l-33 55l258 107q-126 76 -290 133l57 35q195 -64 322 -131l313 129l41 -51l-283 -117q395 -226 513 -543q42 -113 42 -240q0 -243 -186 -407q-177 -156 -420 -156q-240 0 -419 156 q-187 163 -187 407zM272 532q0 -357 218 -471q79 -41 193 -41t191.5 41t127.5 111q90 128 90 360q0 358 -218 472q-77 40 -191 40t-192.5 -40.5t-128.5 -110.5q-90 -128 -90 -361z" />
<glyph unicode="&#xf1;" d="M47.5 3q-0.5 7 11 12t32 17.5t34.5 43t21 71.5q14 74 14 177v458q0 150 -44 184q-12 9 -32.5 14t-20.5 19q0 6 9.5 8.5t15.5 4.5l207 53v-236h6q44 126 163 198q114 69 259 69q183 0 303 -87q143 -103 143 -309v-401q0 -156 10.5 -198t24 -53t41 -23t27.5 -20.5t-21 -8.5 l-164 4l-169 -4q-29 0 -29 8t16.5 14.5t24.5 10.5q49 29 62.5 106.5t13.5 192.5v278q0 244 -97 350q-80 88 -227 88q-163 0 -268 -130q-103 -127 -103 -312v-315q0 -113 13 -171q16 -67 88 -104q10 -6 10 -11t-16 -5l-170 4l-170 -4q-18 0 -18.5 7zM327 1247q48 205 213 205 q52 0 122.5 -31.5t104 -46t69.5 -14.5t67 30.5t41 71.5h59q-18 -94 -70.5 -154.5t-154.5 -60.5q-61 0 -152 47q-35 16 -65.5 30.5t-66.5 14.5t-65.5 -25.5t-39.5 -66.5h-62z" />
<glyph unicode="&#xf2;" horiz-adv-x="1366" d="M76 532q0 245 187 408q179 156 419 156t419 -156q187 -163 187 -408q0 -244 -187 -407q-179 -156 -419 -156t-419 156q-187 163 -187 407zM272 532q0 -357 218 -471q79 -41 193 -41t191.5 41t127.5 111q90 128 90 360q0 358 -218 472q-77 40 -191 40t-192.5 -40.5 t-128.5 -110.5q-90 -128 -90 -361zM377 1482q0 32 21.5 48t46.5 16q43 0 90 -51l303 -301h-86l-303 195q-31 23 -51.5 42t-20.5 51z" />
<glyph unicode="&#xf3;" horiz-adv-x="1366" d="M76 532q0 245 187 408q179 156 419 156t419 -156q187 -163 187 -408q0 -244 -187 -407q-179 -156 -419 -156t-419 156q-187 163 -187 407zM272 532q0 -357 218 -471q79 -41 193 -41t191.5 41t127.5 111q90 128 90 360q0 358 -218 472q-77 40 -191 40t-192.5 -40.5 t-128.5 -110.5q-90 -128 -90 -361zM529 1194l303 301q44 51 92 51q23 0 44 -16.5t21 -48t-20.5 -51t-50.5 -41.5l-303 -195h-86z" />
<glyph unicode="&#xf4;" horiz-adv-x="1366" d="M76 532q0 245 187 408q179 156 419 156t419 -156q187 -163 187 -408q0 -244 -187 -407q-179 -156 -419 -156t-419 156q-187 163 -187 407zM272 532q0 -357 218 -471q79 -41 193 -41t191.5 41t127.5 111q90 128 90 360q0 358 -218 472q-77 40 -191 40t-192.5 -40.5 t-128.5 -110.5q-90 -128 -90 -361zM365 1194l254 342h129l256 -342h-72l-248 211l-248 -211h-71z" />
<glyph unicode="&#xf5;" horiz-adv-x="1366" d="M76 532q0 245 187 408q179 156 419 156t419 -156q187 -163 187 -408q0 -244 -187 -407q-179 -156 -419 -156t-419 156q-187 163 -187 407zM272 532q0 -357 218 -471q79 -41 193 -41t191.5 41t127.5 111q90 128 90 360q0 358 -218 472q-77 40 -191 40t-192.5 -40.5 t-128.5 -110.5q-90 -128 -90 -361zM346 1247q48 205 213 205q52 0 122.5 -31.5t104 -46t69.5 -14.5t67 30.5t41 71.5h59q-18 -94 -70.5 -154.5t-154.5 -60.5q-61 0 -152 47q-35 16 -65.5 30.5t-66.5 14.5t-65.5 -25.5t-39.5 -66.5h-62z" />
<glyph unicode="&#xf6;" horiz-adv-x="1366" d="M76 532q0 245 187 408q179 156 419 156t419 -156q187 -163 187 -408q0 -244 -187 -407q-179 -156 -419 -156t-419 156q-187 163 -187 407zM272 532q0 -357 218 -471q79 -41 193 -41t191.5 41t127.5 111q90 128 90 360q0 358 -218 472q-77 40 -191 40t-192.5 -40.5 t-128.5 -110.5q-90 -128 -90 -361zM381 1333q0 41 28.5 71t71.5 30t71 -30t28 -71t-28 -69.5t-71 -28.5t-71.5 28.5t-28.5 69.5zM789 1333q0 41 28.5 71t71.5 30t70.5 -30t27.5 -71t-27.5 -69.5t-70.5 -28.5t-71.5 28.5t-28.5 69.5z" />
<glyph unicode="&#xf7;" horiz-adv-x="1228" d="M84 473v119h1061v-119h-1061zM492 124q0 50 36.5 86t85.5 36t86 -37t37 -85t-36.5 -86t-86.5 -38q-49 0 -85.5 37t-36.5 87zM492 943q0 50 36.5 86t85.5 36t86 -37t37 -85t-36.5 -86t-86.5 -38q-49 0 -85.5 37t-36.5 87z" />
<glyph unicode="&#xf8;" horiz-adv-x="1366" d="M-25 -100l258 254q-157 157 -157 378q0 245 187 408q179 156 407 156t393 -125l188 186h101l-236 -231q172 -159 172 -394q0 -244 -187 -407q-179 -156 -408.5 -156t-407.5 140l-213 -209h-97zM272 532q0 -179 52 -288l669 659q-109 141 -311 141q-213 0 -320 -151 q-90 -128 -90 -361zM358 180q102 -160 324 -160q212 0 320 152q90 128 90 360q4 182 -62 310z" />
<glyph unicode="&#xf9;" d="M66 988q0 9 22 13l238 64v-686q0 -245 172 -329q61 -30 153 -30t161 43t114 117q88 145 88 377v201q0 115 -12 146q-19 50 -54 65q-10 4 -21.5 8t-11.5 14q0 4 19 10l231 64v-686q0 -283 72 -346q10 -10 16.5 -15.5t6.5 -11.5t-33 -6h-150l-61 213q-89 -137 -178 -187 q-104 -57 -231 -57t-204 29t-131 79q-110 100 -110 275v463q0 88 -12 111q-19 38 -42.5 41.5t-32.5 7.5t-9 13zM358 1482q0 32 21.5 48t46.5 16q43 0 90 -51l303 -301h-86l-303 195q-31 23 -51.5 42t-20.5 51z" />
<glyph unicode="&#xfa;" d="M66 988q0 9 22 13l238 64v-686q0 -245 172 -329q61 -30 153 -30t161 43t114 117q88 145 88 377v201q0 115 -12 146q-19 50 -54 65q-10 4 -21.5 8t-11.5 14q0 4 19 10l231 64v-686q0 -283 72 -346q10 -10 16.5 -15.5t6.5 -11.5t-33 -6h-150l-61 213q-89 -137 -178 -187 q-104 -57 -231 -57t-204 29t-131 79q-110 100 -110 275v463q0 88 -12 111q-19 38 -42.5 41.5t-32.5 7.5t-9 13zM510 1194l303 301q44 51 92 51q23 0 44 -16.5t21 -48t-20.5 -51t-50.5 -41.5l-303 -195h-86z" />
<glyph unicode="&#xfb;" d="M66 988q0 9 22 13l238 64v-686q0 -245 172 -329q61 -30 153 -30t161 43t114 117q88 145 88 377v201q0 115 -12 146q-19 50 -54 65q-10 4 -21.5 8t-11.5 14q0 4 19 10l231 64v-686q0 -283 72 -346q10 -10 16.5 -15.5t6.5 -11.5t-33 -6h-150l-61 213q-89 -137 -178 -187 q-104 -57 -231 -57t-204 29t-131 79q-110 100 -110 275v463q0 88 -12 111q-19 38 -42.5 41.5t-32.5 7.5t-9 13zM346 1194l254 342h129l256 -342h-72l-248 211l-248 -211h-71z" />
<glyph unicode="&#xfc;" d="M66 988q0 9 22 13l238 64v-686q0 -245 172 -329q61 -30 153 -30t161 43t114 117q88 145 88 377v201q0 115 -12 146q-19 50 -54 65q-10 4 -21.5 8t-11.5 14q0 4 19 10l231 64v-686q0 -283 72 -346q10 -10 16.5 -15.5t6.5 -11.5t-33 -6h-150l-61 213q-89 -137 -178 -187 q-104 -57 -231 -57t-204 29t-131 79q-110 100 -110 275v463q0 88 -12 111q-19 38 -42.5 41.5t-32.5 7.5t-9 13zM362 1333q0 41 28.5 71t71.5 30t71 -30t28 -71t-28 -69.5t-71 -28.5t-71.5 28.5t-28.5 69.5zM770 1333q0 41 28.5 71t71.5 30t70.5 -30t27.5 -71t-27.5 -69.5 t-70.5 -28.5t-71.5 28.5t-28.5 69.5z" />
<glyph unicode="&#xfd;" horiz-adv-x="663" d="M16 1057q0 14 27 14l147 -6l146 6q39 0 39 -14q0 -7 -33 -29q-10 -10 -21.5 -23.5t-11.5 -38.5q0 -53 80 -202l299 -574l191 373q107 203 128 274.5t21 99.5q0 60 -57 91q-10 6 -24.5 14.5t-14.5 12.5q0 14 16 14l135 -4l138 4q6 0 12 -4t6 -8t-5 -8.5t-9 -8.5 q-89 -62 -250 -389l-334 -678q-80 -152 -182 -256q-74 -72 -154 -98.5t-182 -24.5l55 179q6 20 12 20t11 -4q33 -61 121 -61t168 91q79 88 79 167.5t-32 148.5l-328 664q-93 193 -162 229q-12 6 -21.5 15.5t-9.5 13.5zM471 1194l303 301q44 51 92 51q23 0 44 -16.5t21 -48 t-20.5 -51t-50.5 -41.5l-303 -195h-86z" />
<glyph unicode="&#xfe;" horiz-adv-x="663" d="M16 -394q0 10 54 29q32 12 45 88q22 137 22 287v1301q0 41 -21 63q-12 12 -69 45q0 6 14 11l228 55v-686h4q57 135 166.5 216t247 81t241 -42t180.5 -116q166 -161 166 -391q0 -244 -160 -408q-167 -170 -423 -170q-131 4 -257 71q-119 63 -161 136h-4v-309 q0 -78 11 -138.5t69 -95.5q16 -10 29.5 -14t13.5 -12t-27 -8l-162 6q-100 0 -133 -3t-53.5 -3t-20.5 7zM289 553q0 -356 216 -485q79 -48 195.5 -48t192.5 43t121 117q84 138 84 373q0 212 -96 346q-103 145 -299 145q-101 0 -177.5 -41.5t-129.5 -111.5 q-107 -143 -107 -338z" />
<glyph unicode="&#xff;" horiz-adv-x="1251" d="M16 1057q0 14 27 14l147 -6l146 6q39 0 39 -14q0 -7 -33 -29q-10 -10 -21.5 -23.5t-11.5 -38.5q0 -53 80 -202l299 -574l191 373q107 203 128 274.5t21 99.5q0 60 -57 91q-10 6 -24.5 14.5t-14.5 12.5q0 14 16 14l135 -4l138 4q6 0 12 -4t6 -8t-5 -8.5t-9 -8.5 q-89 -62 -250 -389l-334 -678q-80 -152 -182 -256q-74 -72 -154 -98.5t-182 -24.5l55 179q6 20 12 20t11 -4q33 -61 121 -61t168 91q79 88 79 167.5t-32 148.5l-328 664q-93 193 -162 229q-12 6 -21.5 15.5t-9.5 13.5zM323 1333q0 41 28.5 71t71.5 30t71 -30t28 -71 t-28 -69.5t-71 -28.5t-71.5 28.5t-28.5 69.5zM731 1333q0 41 28.5 71t71.5 30t70.5 -30t27.5 -71t-27.5 -69.5t-70.5 -28.5t-71.5 28.5t-28.5 69.5z" />
<glyph unicode="&#x152;" horiz-adv-x="2048" d="M86 674q0 257 175 449q83 91 200 145.5t256 54.5t248.5 -6t179.5 -6h702l37 -119q12 -39 23.5 -75t11.5 -46t-12 -10q-4 0 -8.5 5t-8.5 9q-78 104 -178 144.5t-217 40.5h-291v-531q444 0 494 62q20 24 49 81q6 10 14 11q10 0 11 -33v-301q0 -27 -15 -27q-8 0 -17 24 q-14 36 -38 61t-55 36.5t-89 18.5q-118 16 -354 16v-356q0 -142 14 -185q30 -86 117 -86h78q396 0 553 205q12 14 16.5 22.5t15.5 8.5t11 -13q0 -19 -35 -130t-47 -144h-823l-385 -12q-308 0 -479 208q-154 187 -154 478zM274 647q0 -426 250 -559q92 -49 209 -49t174.5 9 t87 43t37.5 101.5t8 182.5l2 710q0 51 -6 87t-32 58q-50 42 -211 42t-259 -54.5t-156 -142.5q-104 -156 -104 -428z" />
<glyph unicode="&#x153;" horiz-adv-x="2048" d="M43 532q0 240 159 402q158 162 398 162q129 0 245 -56.5t191 -171.5q61 90 176 157q124 71 227 71t192 -30t163 -85q163 -121 182 -305h-856q-8 -58 -8 -133.5t20.5 -172t67.5 -174.5q107 -176 318 -176q174 0 306 156q52 62 80.5 122t32.5 79.5t7.5 30t13.5 10.5 q23 0 22 -21q0 -10 -3 -21t-7 -26q-38 -149 -188 -269q-138 -112 -264 -112q-178 4 -294 67.5t-194 174.5q-68 -115 -182.5 -178.5t-240.5 -63.5t-228.5 43t-176.5 119q-159 162 -159 401zM240 543q0 -223 65 -349q90 -174 295 -174t295 174q66 128 66 349q0 330 -175 452 q-71 49 -186 49q-204 0 -295 -172q-65 -122 -65 -329zM1130 727h650q0 158 -86 237.5t-240 79.5q-213 0 -286 -189q-23 -58 -38 -128z" />
<glyph unicode="&#x178;" horiz-adv-x="1441" d="M-2 1307.5q0 11.5 14 11.5l181 -8l225 8q16 0 16 -16q0 -4 -10 -6.5t-26 -7.5q-48 -16 -48 -61.5t32 -98t91 -123.5l289 -349l231 267q18 23 50 59.5t62 76.5q73 97 73 143q0 70 -66 89q-4 2 -11 5t-7 12.5t10 9.5h4l154 -6l143 6h31q10 -4 10 -13t-14 -22 q-133 -105 -296 -284q-46 -50 -81 -95l-264 -321v-281q0 -168 28 -223q23 -45 73 -64q21 -8 21 -14t-22 -6l-182 4l-197 -4q-18 0 -18 7t21.5 14.5t39.5 25.5t28.5 37.5t17.5 49.5q13 56 13 173v260l-309 410q-25 29 -89 108q-110 134 -140.5 161t-54 40.5t-23.5 25z M424 1540q0 41 28.5 71t71.5 30t71 -30t28 -71t-28 -69.5t-71 -28.5t-71.5 28.5t-28.5 69.5zM832 1540q0 41 28.5 71t71.5 30t70.5 -30t27.5 -71t-27.5 -69.5t-70.5 -28.5t-71.5 28.5t-28.5 69.5z" />
<glyph unicode="&#x2c6;" horiz-adv-x="530" d="M-53 1194l254 342h129l256 -342h-72l-248 211l-248 -211h-71z" />
<glyph unicode="&#x2dc;" horiz-adv-x="530" d="M-72 1247q48 205 213 205q52 0 122.5 -31.5t104 -46t69.5 -14.5t67 30.5t41 71.5h59q-18 -94 -70.5 -154.5t-154.5 -60.5q-61 0 -152 47q-35 16 -65.5 30.5t-66.5 14.5t-65.5 -25.5t-39.5 -66.5h-62z" />
<glyph unicode="&#x2000;" horiz-adv-x="904" />
<glyph unicode="&#x2001;" horiz-adv-x="1809" />
<glyph unicode="&#x2002;" horiz-adv-x="904" />
<glyph unicode="&#x2003;" horiz-adv-x="1809" />
<glyph unicode="&#x2004;" horiz-adv-x="603" />
<glyph unicode="&#x2005;" horiz-adv-x="452" />
<glyph unicode="&#x2006;" horiz-adv-x="301" />
<glyph unicode="&#x2007;" horiz-adv-x="301" />
<glyph unicode="&#x2008;" horiz-adv-x="226" />
<glyph unicode="&#x2009;" horiz-adv-x="361" />
<glyph unicode="&#x200a;" horiz-adv-x="100" />
<glyph unicode="&#x2010;" horiz-adv-x="530" d="M12 473l37 119h469l-37 -119h-469z" />
<glyph unicode="&#x2011;" horiz-adv-x="530" d="M12 473l37 119h469l-37 -119h-469z" />
<glyph unicode="&#x2012;" horiz-adv-x="530" d="M12 473l37 119h469l-37 -119h-469z" />
<glyph unicode="&#x2013;" horiz-adv-x="1024" d="M0 485v95h1024v-95h-1024z" />
<glyph unicode="&#x2014;" horiz-adv-x="2048" d="M0 485v95h2048v-95h-2048z" />
<glyph unicode="&#x2018;" horiz-adv-x="266" d="M16 1066q0 56 19.5 104.5t47.5 89t55.5 66.5t39.5 26t12 -9q0 -8 -20 -35q-66 -84 -66 -180q125 0 125 -90q0 -45 -25.5 -76.5t-78.5 -31.5t-81 40t-28 96z" />
<glyph unicode="&#x2019;" horiz-adv-x="266" d="M37 1243q0 45 25.5 77t78.5 32t81 -40t28 -95.5t-19.5 -104.5t-46.5 -90q-62 -92 -98 -92q-10 0 -10 8t20 34q66 85 66 181q-125 0 -125 90z" />
<glyph unicode="&#x201a;" horiz-adv-x="266" d="M37 66q0 45 25.5 76.5t78.5 31.5t81 -40t28 -96t-19.5 -104.5t-46.5 -89.5q-62 -92 -98 -92q-10 0 -10 8t20 35q66 86 66 180q-125 0 -125 91z" />
<glyph unicode="&#x201c;" horiz-adv-x="606" d="M53 1066q0 56 19.5 104.5t47 89t55.5 66.5t40 26t12 -9q0 -8 -21 -35q-65 -84 -65 -180q125 0 125 -90q0 -45 -25.5 -76.5t-78.5 -31.5t-81 40t-28 96zM356 1066q0 56 19.5 104.5t47.5 89t55.5 66.5t39.5 26t12 -9q0 -8 -20 -35q-66 -84 -66 -180q125 0 125 -90 q0 -45 -25.5 -76.5t-78.5 -31.5t-81 40t-28 96z" />
<glyph unicode="&#x201d;" horiz-adv-x="606" d="M37 1243q0 45 25.5 77t78.5 32t81 -40t28 -95.5t-19.5 -104.5t-46.5 -90q-62 -92 -98 -92q-10 0 -10 8t20 34q66 85 66 181q-125 0 -125 90zM340 1243q0 45 25.5 77t78.5 32t81 -40t28 -95.5t-19.5 -104.5t-47.5 -90q-61 -92 -97 -92q-10 0 -10 8t21 34q65 85 65 181 q-125 0 -125 90z" />
<glyph unicode="&#x201e;" horiz-adv-x="606" d="M37 66q0 45 25.5 76.5t78.5 31.5t81 -40t28 -96t-19.5 -104.5t-46.5 -89.5q-62 -92 -98 -92q-10 0 -10 8t20 35q66 86 66 180q-125 0 -125 91zM340 66q0 45 25.5 76.5t78.5 31.5t81 -40t28 -96t-19.5 -104.5t-47.5 -89.5q-61 -92 -97 -92q-10 0 -10 8t21 35q65 86 65 180 q-125 0 -125 91z" />
<glyph unicode="&#x2022;" horiz-adv-x="1024" d="M182 655q0 139 96 234q98 96 234 96q140 0 234 -96q96 -97 96 -234q0 -136 -96 -233q-94 -96 -234 -96q-136 0 -234 96q-96 95 -96 233z" />
<glyph unicode="&#x2026;" horiz-adv-x="2048" d="M240 74q0 41 28.5 70.5t71.5 29.5t70.5 -29.5t27.5 -70.5t-27.5 -70t-70.5 -29t-71.5 29t-28.5 70zM924 74q0 41 28.5 70.5t71.5 29.5t70.5 -29.5t27.5 -70.5t-27.5 -70t-70.5 -29t-71.5 29t-28.5 70zM1608 74q0 41 28.5 70.5t71.5 29.5t70.5 -29.5t27.5 -70.5t-27.5 -70 t-70.5 -29t-71.5 29t-28.5 70z" />
<glyph unicode="&#x202f;" horiz-adv-x="361" />
<glyph unicode="&#x2039;" horiz-adv-x="796" d="M215 535q120 138 264 395q23 -20 48.5 -39t56.5 -23l-258 -333l249 -336q-63 -12 -102 -66q-94 181 -258 402z" />
<glyph unicode="&#x203a;" horiz-adv-x="796" d="M213 195l258 333l-250 336q63 12 103 66q94 -181 258 -402q-115 -133 -265 -395q-64 56 -104 62z" />
<glyph unicode="&#x205f;" horiz-adv-x="452" />
<glyph unicode="&#x2122;" horiz-adv-x="2027" d="M74 1130v181h694v-181h-39q-14 57 -45 99.5t-94 42.5h-105v-635q0 -80 11 -91q15 -16 92 -24v-39h-334v39q77 8 88.5 20.5t12.5 34t1 60.5v635h-104q-66 0 -95.5 -42t-43.5 -100h-39zM860 1272v39h236l321 -645l336 645h201v-39q-66 -4 -91.5 -34t-25.5 -83v-518 q0 -80 11 -91q15 -16 91 -24v-39h-333v39q77 8 88.5 20.5t12.5 34t1 60.5v483h-4l-318 -643h-18l-311 637h-4v-461q0 -66 20.5 -94.5t85.5 -36.5v-39h-266v39q68 8 88 37t20 94v506q0 61 -49 91q-36 22 -92 22z" />
<glyph unicode="&#xe000;" horiz-adv-x="1075" d="M0 0v1075h1075v-1075h-1075z" />
<glyph unicode="&#xfb01;" horiz-adv-x="1175" d="M39 952l14 52h152v98q0 175 147 276q114 78 316 107l-56 -172q-60 76 -139 76q-47 0 -82 -38t-35 -98v-249h189l-15 -52h-174v-491q0 -357 80 -422q14 -12 31.5 -19.5t17.5 -15.5t-20 -8l-184 4l-146 -4q-23 0 -22.5 5t9.5 9t19 15q64 52 64 180v747h-166zM731 4 q0 10 31 23.5t46 35t22 55.5q12 52 12 201v599q0 31 -21.5 41t-43 21t-21.5 16t14 10l223 59v-700q0 -172 24.5 -253t61.5 -92q14 -4 23.5 -6t9.5 -10t-25 -8l-169 4l-170 -4q-16 0 -17 8zM821 1315q0 47 31 72.5t66 25.5t65.5 -25.5t30.5 -72.5t-31 -72.5t-65 -25.5 q-35 0 -66 25.5t-31 72.5z" />
<glyph unicode="&#xfb02;" horiz-adv-x="1175" d="M39 952l14 52h152v98q0 175 147 276q114 78 316 107l-56 -172q-60 76 -139 76q-47 0 -82 -38t-35 -98v-249h189l-15 -52h-174v-491q0 -357 80 -422q14 -12 31.5 -19.5t17.5 -15.5t-20 -8l-184 4l-146 -4q-23 0 -22.5 5t9.5 9t19 15q64 52 64 180v747h-166zM702 4 q0 8 16.5 14.5t42.5 17.5t42 49t25 95q14 96 14 279v727q0 115 -15.5 160t-56.5 59q-20 6 -20 11t18 14l225 55v-1188q0 -236 76 -266q43 -16 43 -25.5t-35 -9.5l-159 4l-170 -4q-46 0 -46 8z" />
</font>
</defs>
</svg>
